<svg width="419" height="261" viewBox="0 0 419 261" fill="none" xmlns="http://www.w3.org/2000/svg">
<g clip-path="url(#clip0_96_583)">
<path d="M35.359 254.515C34.266 255.301 32.8656 255.864 31.1578 256.206C29.4842 256.547 27.7593 256.718 25.9832 256.718C23.8313 256.718 21.782 256.394 19.8351 255.745C17.9223 255.062 16.2316 253.986 14.7629 252.517C13.2942 251.014 12.1158 249.084 11.2278 246.728C10.3738 244.337 9.9469 241.45 9.9469 238.069C9.9469 234.551 10.4251 231.614 11.3815 229.257C12.372 226.866 13.6358 224.953 15.1728 223.519C16.744 222.05 18.4859 221.008 20.3987 220.393C22.3114 219.744 24.2241 219.42 26.1369 219.42C28.1862 219.42 29.9111 219.556 31.3115 219.83C32.7461 220.103 33.9245 220.427 34.8467 220.803L33.4634 226.746C32.6778 226.371 31.7385 226.097 30.6455 225.927C29.5866 225.756 28.2887 225.67 26.7517 225.67C23.9167 225.67 21.6283 226.678 19.8863 228.693C18.1785 230.708 17.3246 233.834 17.3246 238.069C17.3246 239.913 17.5295 241.604 17.9394 243.141C18.3493 244.644 18.9641 245.942 19.7838 247.035C20.6378 248.094 21.6795 248.931 22.9091 249.545C24.1729 250.126 25.6245 250.416 27.264 250.416C28.8011 250.416 30.099 250.263 31.1578 249.955C32.2167 249.648 33.1389 249.255 33.9245 248.777L35.359 254.515ZM39.6931 220.496C40.4787 220.359 41.3155 220.24 42.2036 220.137C43.1258 220 44.0309 219.898 44.919 219.83C45.8412 219.761 46.7293 219.71 47.5832 219.676C48.4371 219.642 49.2227 219.625 49.9399 219.625C51.6136 219.625 53.2531 219.778 54.8584 220.086C56.4979 220.393 57.9495 220.923 59.2133 221.674C60.5112 222.426 61.5359 223.467 62.2874 224.799C63.073 226.097 63.4657 227.737 63.4657 229.718C63.4657 232.655 62.7826 235.046 61.4164 236.891C60.0501 238.735 58.2228 240.016 55.9343 240.733L58.4448 242.321L66.6423 256.001H58.5473L50.401 241.963L46.7122 241.297V256.001H39.6931V220.496ZM50.4523 225.875C49.735 225.875 49.0177 225.892 48.3004 225.927C47.6173 225.961 47.0879 226.029 46.7122 226.131V236.532H49.6838C51.6307 236.532 53.1848 236.088 54.3461 235.2C55.5074 234.312 56.088 232.843 56.088 230.794C56.088 229.257 55.6098 228.061 54.6535 227.207C53.6971 226.319 52.2967 225.875 50.4523 225.875ZM70.5136 220.137H91.7758V226.388H77.5327V234.739H90.4949V240.989H77.5327V249.75H92.032V256.001H70.5136V220.137ZM114.957 248.06H103.942L101.226 256.001H94.2074L107.118 219.881H112.293L125.204 256.001H117.826L114.957 248.06ZM105.735 242.424H113.42L110.756 234.431L109.68 228.796H109.424L108.348 234.483L105.735 242.424ZM149.763 226.388H139.311V256.001H132.292V226.388H121.789V220.137H149.763V226.388ZM150.29 238.069C150.29 232.092 151.605 227.498 154.235 224.287C156.865 221.042 160.623 219.42 165.507 219.42C168.069 219.42 170.306 219.864 172.219 220.752C174.131 221.64 175.72 222.904 176.983 224.543C178.247 226.183 179.186 228.147 179.801 230.435C180.416 232.724 180.723 235.268 180.723 238.069C180.723 244.046 179.391 248.657 176.727 251.902C174.097 255.113 170.357 256.718 165.507 256.718C162.911 256.718 160.657 256.274 158.744 255.386C156.831 254.498 155.243 253.234 153.979 251.595C152.75 249.955 151.827 247.991 151.213 245.703C150.598 243.414 150.29 240.87 150.29 238.069ZM157.668 238.069C157.668 239.879 157.822 241.553 158.129 243.09C158.437 244.593 158.898 245.891 159.513 246.984C160.161 248.077 160.981 248.931 161.972 249.545C162.962 250.16 164.141 250.468 165.507 250.468C168 250.468 169.93 249.494 171.296 247.547C172.663 245.6 173.346 242.441 173.346 238.069C173.346 236.327 173.192 234.705 172.885 233.202C172.611 231.699 172.167 230.384 171.553 229.257C170.938 228.13 170.135 227.259 169.145 226.644C168.154 225.995 166.941 225.67 165.507 225.67C163.014 225.67 161.084 226.678 159.717 228.693C158.351 230.674 157.668 233.8 157.668 238.069ZM185.74 220.496C186.526 220.359 187.363 220.24 188.251 220.137C189.173 220 190.078 219.898 190.966 219.83C191.888 219.761 192.777 219.71 193.63 219.676C194.484 219.642 195.27 219.625 195.987 219.625C197.661 219.625 199.3 219.778 200.906 220.086C202.545 220.393 203.997 220.923 205.261 221.674C206.559 222.426 207.583 223.467 208.335 224.799C209.12 226.097 209.513 227.737 209.513 229.718C209.513 232.655 208.83 235.046 207.464 236.891C206.097 238.735 204.27 240.016 201.982 240.733L204.492 242.321L212.69 256.001H204.595L196.448 241.963L192.759 241.297V256.001H185.74V220.496ZM196.5 225.875C195.782 225.875 195.065 225.892 194.348 225.927C193.665 225.961 193.135 226.029 192.759 226.131V236.532H195.731C197.678 236.532 199.232 236.088 200.393 235.2C201.555 234.312 202.135 232.843 202.135 230.794C202.135 229.257 201.657 228.061 200.701 227.207C199.744 226.319 198.344 225.875 196.5 225.875Z" fill="#008080"/>
<path d="M260.253 256.001H237.556V220.137H244.575V249.75H260.253V256.001ZM264.591 220.137H271.61V256.001H264.591V220.137ZM293.956 246.369C293.956 245.276 293.546 244.388 292.726 243.705C291.941 243.022 290.933 242.407 289.704 241.86C288.508 241.28 287.193 240.699 285.759 240.118C284.358 239.504 283.043 238.769 281.814 237.915C280.618 237.027 279.611 235.934 278.791 234.636C278.005 233.338 277.612 231.682 277.612 229.667C277.612 227.925 277.903 226.422 278.483 225.158C279.064 223.86 279.884 222.784 280.943 221.93C282.036 221.076 283.316 220.444 284.785 220.035C286.254 219.625 287.893 219.42 289.704 219.42C291.787 219.42 293.751 219.608 295.596 219.983C297.44 220.325 298.96 220.837 300.155 221.52L297.952 227.412C297.201 226.934 296.074 226.507 294.571 226.131C293.068 225.722 291.446 225.517 289.704 225.517C288.064 225.517 286.8 225.841 285.912 226.49C285.058 227.139 284.631 228.01 284.631 229.103C284.631 230.128 285.024 230.982 285.81 231.665C286.63 232.348 287.637 232.98 288.833 233.56C290.062 234.141 291.377 234.739 292.778 235.354C294.212 235.968 295.527 236.72 296.723 237.608C297.952 238.462 298.96 239.538 299.746 240.836C300.565 242.099 300.975 243.688 300.975 245.6C300.975 247.513 300.651 249.17 300.002 250.57C299.387 251.936 298.499 253.081 297.338 254.003C296.21 254.925 294.827 255.608 293.188 256.052C291.582 256.496 289.806 256.718 287.859 256.718C285.298 256.718 283.043 256.479 281.096 256.001C279.149 255.523 277.715 255.045 276.793 254.566L279.047 248.572C279.423 248.777 279.901 248.999 280.482 249.238C281.096 249.477 281.779 249.699 282.531 249.904C283.282 250.109 284.068 250.28 284.888 250.416C285.742 250.553 286.613 250.621 287.501 250.621C289.584 250.621 291.172 250.28 292.265 249.597C293.393 248.879 293.956 247.804 293.956 246.369ZM331.115 226.388H320.663V256.001H313.644V226.388H303.141V220.137H331.115V226.388ZM335.488 220.137H342.507V256.001H335.488V220.137ZM358.295 237.301L355.477 231.665H355.221L356.041 237.301V256.001H349.381V219.881H354.504L368.081 238.991L370.796 244.473H371.053L370.233 238.991V220.137H376.893V256.257H371.77L358.295 237.301ZM395.708 237.301H409.08V253.286C407.645 254.481 405.921 255.352 403.905 255.899C401.924 256.445 399.96 256.718 398.013 256.718C395.725 256.718 393.59 256.36 391.609 255.642C389.662 254.925 387.972 253.815 386.537 252.312C385.102 250.775 383.975 248.828 383.156 246.471C382.336 244.115 381.926 241.314 381.926 238.069C381.926 234.688 382.404 231.818 383.36 229.462C384.351 227.071 385.632 225.141 387.203 223.672C388.808 222.169 390.602 221.093 392.583 220.444C394.564 219.761 396.579 219.42 398.628 219.42C400.678 219.42 402.471 219.574 404.008 219.881C405.579 220.188 406.826 220.513 407.748 220.854L406.313 226.746C405.459 226.405 404.503 226.149 403.444 225.978C402.385 225.773 401.036 225.67 399.397 225.67C397.928 225.67 396.579 225.892 395.349 226.336C394.12 226.78 393.044 227.515 392.121 228.539C391.233 229.53 390.533 230.811 390.021 232.382C389.543 233.953 389.304 235.866 389.304 238.12C389.304 240.272 389.543 242.134 390.021 243.705C390.499 245.242 391.165 246.523 392.019 247.547C392.873 248.538 393.863 249.272 394.991 249.75C396.152 250.229 397.382 250.468 398.679 250.468C399.568 250.468 400.438 250.365 401.292 250.16C402.146 249.921 402.864 249.58 403.444 249.136V242.373L395.708 241.553V237.301Z" fill="#051832"/>
<mask id="mask0_96_583" style="mask-type:luminance" maskUnits="userSpaceOnUse" x="31" y="56" width="74" height="74">
<path d="M104.795 93.1834C104.795 113.37 88.4301 129.735 68.2434 129.735C48.0567 129.735 31.6914 113.37 31.6914 93.1834C31.6914 72.9967 48.0567 56.6313 68.2434 56.6313C88.4301 56.6313 104.795 72.9967 104.795 93.1834Z" fill="white"/>
</mask>
<g mask="url(#mask0_96_583)">
<path d="M104.795 93.1834C104.795 113.37 88.4301 129.735 68.2434 129.735C48.0567 129.735 31.6914 113.37 31.6914 93.1834C31.6914 72.9967 48.0567 56.6313 68.2434 56.6313C88.4301 56.6313 104.795 72.9967 104.795 93.1834Z" fill="url(#paint0_linear_96_583)"/>
</g>
<mask id="mask1_96_583" style="mask-type:luminance" maskUnits="userSpaceOnUse" x="60" y="0" width="143" height="48">
<path d="M93.2254 47.3857C94.3081 47.3857 95.3428 46.9844 96.1681 46.2831C107.601 36.5698 122.393 30.6951 138.537 30.6951C152.723 30.6951 166.196 35.1391 177.536 43.5537C183.533 48.0031 191.945 47.9684 197.352 42.8164C204.299 36.1978 203.431 25.2858 196.104 19.7631C179.405 7.17642 159.499 0.523077 138.537 0.523077C106.657 0.523077 78.3801 16.1964 60.9788 40.2364C58.8241 43.2138 61.0014 47.3857 64.6761 47.3857H93.2254Z" fill="white"/>
</mask>
<g mask="url(#mask1_96_583)">
<path d="M93.2254 47.3857C94.3081 47.3857 95.3428 46.9844 96.1681 46.2831C107.601 36.5698 122.393 30.6951 138.537 30.6951C152.723 30.6951 166.196 35.1391 177.536 43.5537C183.533 48.0031 191.945 47.9684 197.352 42.8164C204.299 36.1978 203.431 25.2858 196.104 19.7631C179.405 7.17642 159.499 0.523077 138.537 0.523077C106.657 0.523077 78.3801 16.1964 60.9788 40.2364C58.8241 43.2138 61.0014 47.3857 64.6761 47.3857H93.2254Z" fill="url(#paint1_linear_96_583)"/>
</g>
<mask id="mask2_96_583" style="mask-type:luminance" maskUnits="userSpaceOnUse" x="56" y="59" width="219" height="133">
<path d="M270.063 64.0255C264.036 58.2722 254.488 58.4882 248.732 64.5175C245.712 67.6802 240.008 74.8109 230.188 87.1416C214.88 106.359 189.261 138.52 179.245 146.579C169.441 154.472 157.721 161.776 138.536 161.776C119.447 161.776 102.251 153.562 90.2628 140.494C89.3908 139.544 88.1788 138.98 86.8908 138.98H60.6241C57.1054 138.98 54.9081 142.836 56.7374 145.842C73.5428 173.458 103.913 191.948 138.536 191.948C167.311 191.948 185.519 180.264 198.164 170.086C209.831 160.696 230.257 135.48 253.787 105.94C260.932 96.9682 268.323 87.6909 270.555 85.3549C276.307 79.3295 276.088 69.7802 270.063 64.0255Z" fill="white"/>
</mask>
<g mask="url(#mask2_96_583)">
<path d="M270.063 64.0255C264.036 58.2722 254.488 58.4882 248.732 64.5175C245.712 67.6802 240.008 74.8109 230.188 87.1416C214.88 106.359 189.261 138.52 179.245 146.579C169.441 154.472 157.721 161.776 138.536 161.776C119.447 161.776 102.251 153.562 90.2628 140.494C89.3908 139.544 88.1788 138.98 86.8908 138.98H60.6241C57.1054 138.98 54.9081 142.836 56.7374 145.842C73.5428 173.458 103.913 191.948 138.536 191.948C167.311 191.948 185.519 180.264 198.164 170.086C209.831 160.696 230.257 135.48 253.787 105.94C260.932 96.9682 268.323 87.6909 270.555 85.3549C276.307 79.3295 276.088 69.7802 270.063 64.0255Z" fill="url(#paint2_linear_96_583)"/>
</g>
<mask id="mask3_96_583" style="mask-type:luminance" maskUnits="userSpaceOnUse" x="321" y="62" width="74" height="74">
<path d="M321.867 99.2882C321.867 79.1002 338.233 62.7362 358.419 62.7362C378.606 62.7362 394.971 79.1002 394.971 99.2882C394.971 119.475 378.606 135.839 358.419 135.839C338.233 135.839 321.867 119.475 321.867 99.2882Z" fill="white"/>
</mask>
<g mask="url(#mask3_96_583)">
<path d="M321.867 99.2882C321.867 79.1002 338.233 62.7362 358.419 62.7362C378.606 62.7362 394.971 79.1002 394.971 99.2882C394.971 119.475 378.606 135.839 358.419 135.839C338.233 135.839 321.867 119.475 321.867 99.2882Z" fill="url(#paint3_linear_96_583)"/>
</g>
<mask id="mask4_96_583" style="mask-type:luminance" maskUnits="userSpaceOnUse" x="224" y="145" width="143" height="47">
<path d="M333.443 145.084C332.36 145.084 331.326 145.487 330.5 146.187C319.067 155.902 304.275 161.776 288.131 161.776C273.946 161.776 260.472 157.332 249.132 148.918C243.135 144.467 234.723 144.503 229.316 149.654C222.37 156.274 223.238 167.186 230.564 172.707C247.263 185.295 267.17 191.948 288.131 191.948C320.011 191.948 348.288 176.274 365.69 152.234C367.844 149.258 365.667 145.084 361.992 145.084H333.443Z" fill="white"/>
</mask>
<g mask="url(#mask4_96_583)">
<path d="M333.443 145.084C332.36 145.084 331.326 145.487 330.5 146.187C319.067 155.902 304.275 161.776 288.131 161.776C273.946 161.776 260.472 157.332 249.132 148.918C243.135 144.467 234.723 144.503 229.316 149.654C222.37 156.274 223.238 167.186 230.564 172.707C247.263 185.295 267.17 191.948 288.131 191.948C320.011 191.948 348.288 176.274 365.69 152.234C367.844 149.258 365.667 145.084 361.992 145.084H333.443Z" fill="url(#paint4_linear_96_583)"/>
</g>
<mask id="mask5_96_583" style="mask-type:luminance" maskUnits="userSpaceOnUse" x="151" y="0" width="220" height="133">
<path d="M156.604 128.446C162.631 134.199 172.179 133.982 177.935 127.954C180.955 124.791 186.659 117.661 196.479 105.329C211.787 86.1127 237.405 53.9501 247.421 45.8914C257.225 37.9994 268.945 30.6954 288.131 30.6954C307.22 30.6954 324.416 38.9101 336.404 51.9781C337.276 52.9274 338.488 53.4914 339.776 53.4914H366.043C369.561 53.4914 371.76 49.6354 369.931 46.6287C353.124 19.0141 322.753 0.523397 288.131 0.523397C259.356 0.523397 241.148 12.2074 228.503 22.3861C216.836 31.7754 196.409 56.9914 172.88 86.5314C165.735 95.5034 158.344 104.779 156.112 107.117C150.36 113.142 150.579 122.691 156.604 128.446Z" fill="white"/>
</mask>
<g mask="url(#mask5_96_583)">
<path d="M156.604 128.446C162.631 134.199 172.179 133.982 177.935 127.954C180.955 124.791 186.659 117.661 196.479 105.329C211.787 86.1127 237.405 53.9501 247.421 45.8914C257.225 37.9994 268.945 30.6954 288.131 30.6954C307.22 30.6954 324.416 38.9101 336.404 51.9781C337.276 52.9274 338.488 53.4914 339.776 53.4914H366.043C369.561 53.4914 371.76 49.6354 369.931 46.6287C353.124 19.0141 322.753 0.523397 288.131 0.523397C259.356 0.523397 241.148 12.2074 228.503 22.3861C216.836 31.7754 196.409 56.9914 172.88 86.5314C165.735 95.5034 158.344 104.779 156.112 107.117C150.36 113.142 150.579 122.691 156.604 128.446Z" fill="url(#paint5_linear_96_583)"/>
</g>
</g>
<defs>
<linearGradient id="paint0_linear_96_583" x1="31.6914" y1="93.1833" x2="104.795" y2="93.1833" gradientUnits="userSpaceOnUse">
<stop stop-color="#008080"/>
<stop offset="1" stop-color="#004D4D"/>
</linearGradient>
<linearGradient id="paint1_linear_96_583" x1="60.1254" y1="23.9537" x2="202.111" y2="23.9537" gradientUnits="userSpaceOnUse">
<stop stop-color="#008080"/>
<stop offset="1" stop-color="#004D4D"/>
</linearGradient>
<linearGradient id="paint2_linear_96_583" x1="56.0774" y1="125.899" x2="274.729" y2="125.899" gradientUnits="userSpaceOnUse">
<stop stop-color="#008080"/>
<stop offset="1" stop-color="#004D4D"/>
</linearGradient>
<linearGradient id="paint3_linear_96_583" x1="321.867" y1="99.2882" x2="394.971" y2="99.2882" gradientUnits="userSpaceOnUse">
<stop stop-color="#07234A"/>
<stop offset="1" stop-color="#0D0D0D"/>
</linearGradient>
<linearGradient id="paint4_linear_96_583" x1="224.559" y1="168.516" x2="366.544" y2="168.516" gradientUnits="userSpaceOnUse">
<stop stop-color="#07234A"/>
<stop offset="1" stop-color="#0D0D0D"/>
</linearGradient>
<linearGradient id="paint5_linear_96_583" x1="151.937" y1="66.5727" x2="370.589" y2="66.5727" gradientUnits="userSpaceOnUse">
<stop stop-color="#07234A"/>
<stop offset="1" stop-color="#0D0D0D"/>
</linearGradient>
<clipPath id="clip0_96_583">
<rect width="418" height="261" fill="white" transform="translate(0.832031)"/>
</clipPath>
</defs>
</svg>
