<svg width="365" height="193" viewBox="0 0 365 193" fill="none" xmlns="http://www.w3.org/2000/svg">
<g clip-path="url(#clip0_96_583)">
<mask id="mask0_96_583" style="mask-type:luminance" maskUnits="userSpaceOnUse" x="1" y="56" width="74" height="74">
<path d="M74.1235 93.1834C74.1235 113.37 57.7582 129.735 37.5715 129.735C17.3849 129.735 1.01953 113.37 1.01953 93.1834C1.01953 72.9967 17.3849 56.6313 37.5715 56.6313C57.7582 56.6313 74.1235 72.9967 74.1235 93.1834Z" fill="white"/>
</mask>
<g mask="url(#mask0_96_583)">
<path d="M74.1235 93.1834C74.1235 113.37 57.7582 129.735 37.5715 129.735C17.3849 129.735 1.01953 113.37 1.01953 93.1834C1.01953 72.9967 17.3849 56.6313 37.5715 56.6313C57.7582 56.6313 74.1235 72.9967 74.1235 93.1834Z" fill="url(#paint0_linear_96_583)"/>
</g>
<mask id="mask1_96_583" style="mask-type:luminance" maskUnits="userSpaceOnUse" x="29" y="0" width="143" height="48">
<path d="M62.5536 47.3857C63.6362 47.3857 64.6709 46.9844 65.4962 46.2831C76.9296 36.5698 91.7216 30.6951 107.866 30.6951C122.051 30.6951 135.524 35.1391 146.864 43.5537C152.862 48.0031 161.274 47.9684 166.68 42.8164C173.627 36.1978 172.759 25.2858 165.432 19.7631C148.734 7.17642 128.827 0.523077 107.866 0.523077C75.9856 0.523077 47.7082 16.1964 30.3069 40.2364C28.1522 43.2138 30.3296 47.3857 34.0042 47.3857H62.5536Z" fill="white"/>
</mask>
<g mask="url(#mask1_96_583)">
<path d="M62.5536 47.3857C63.6362 47.3857 64.6709 46.9844 65.4962 46.2831C76.9296 36.5698 91.7216 30.6951 107.866 30.6951C122.051 30.6951 135.524 35.1391 146.864 43.5537C152.862 48.0031 161.274 47.9684 166.68 42.8164C173.627 36.1978 172.759 25.2858 165.432 19.7631C148.734 7.17642 128.827 0.523077 107.866 0.523077C75.9856 0.523077 47.7082 16.1964 30.3069 40.2364C28.1522 43.2138 30.3296 47.3857 34.0042 47.3857H62.5536Z" fill="url(#paint1_linear_96_583)"/>
</g>
<mask id="mask2_96_583" style="mask-type:luminance" maskUnits="userSpaceOnUse" x="25" y="59" width="220" height="133">
<path d="M239.391 64.0255C233.364 58.2722 223.816 58.4882 218.06 64.5175C215.04 67.6802 209.336 74.8109 199.516 87.1416C184.208 106.359 158.59 138.52 148.574 146.579C138.77 154.472 127.05 161.776 107.864 161.776C88.7749 161.776 71.5789 153.562 59.5909 140.494C58.7189 139.544 57.5069 138.98 56.2189 138.98H29.9522C26.4336 138.98 24.2362 142.836 26.0656 145.842C42.8709 173.458 73.2416 191.948 107.864 191.948C136.639 191.948 154.847 180.264 167.492 170.086C179.159 160.696 199.586 135.48 223.115 105.94C230.26 96.9682 237.651 87.6909 239.883 85.3549C245.635 79.3295 245.416 69.7802 239.391 64.0255Z" fill="white"/>
</mask>
<g mask="url(#mask2_96_583)">
<path d="M239.391 64.0255C233.364 58.2722 223.816 58.4882 218.06 64.5175C215.04 67.6802 209.336 74.8109 199.516 87.1416C184.208 106.359 158.59 138.52 148.574 146.579C138.77 154.472 127.05 161.776 107.864 161.776C88.7749 161.776 71.5789 153.562 59.5909 140.494C58.7189 139.544 57.5069 138.98 56.2189 138.98H29.9522C26.4336 138.98 24.2362 142.836 26.0656 145.842C42.8709 173.458 73.2416 191.948 107.864 191.948C136.639 191.948 154.847 180.264 167.492 170.086C179.159 160.696 199.586 135.48 223.115 105.94C230.26 96.9682 237.651 87.6909 239.883 85.3549C245.635 79.3295 245.416 69.7802 239.391 64.0255Z" fill="url(#paint2_linear_96_583)"/>
</g>
<mask id="mask3_96_583" style="mask-type:luminance" maskUnits="userSpaceOnUse" x="291" y="62" width="74" height="74">
<path d="M291.195 99.2882C291.195 79.1002 307.561 62.7362 327.747 62.7362C347.934 62.7362 364.299 79.1002 364.299 99.2882C364.299 119.475 347.934 135.839 327.747 135.839C307.561 135.839 291.195 119.475 291.195 99.2882Z" fill="white"/>
</mask>
<g mask="url(#mask3_96_583)">
<path d="M291.195 99.2882C291.195 79.1002 307.561 62.7362 327.747 62.7362C347.934 62.7362 364.299 79.1002 364.299 99.2882C364.299 119.475 347.934 135.839 327.747 135.839C307.561 135.839 291.195 119.475 291.195 99.2882Z" fill="url(#paint3_linear_96_583)"/>
</g>
<mask id="mask4_96_583" style="mask-type:luminance" maskUnits="userSpaceOnUse" x="193" y="145" width="143" height="47">
<path d="M302.771 145.084C301.689 145.084 300.654 145.487 299.829 146.187C288.395 155.902 273.603 161.776 257.459 161.776C243.274 161.776 229.801 157.332 218.461 148.918C212.463 144.467 204.051 144.503 198.645 149.654C191.698 156.274 192.566 167.186 199.893 172.707C216.591 185.295 236.498 191.948 257.459 191.948C289.339 191.948 317.617 176.274 335.018 152.234C337.173 149.258 334.995 145.084 331.321 145.084H302.771Z" fill="white"/>
</mask>
<g mask="url(#mask4_96_583)">
<path d="M302.771 145.084C301.689 145.084 300.654 145.487 299.829 146.187C288.395 155.902 273.603 161.776 257.459 161.776C243.274 161.776 229.801 157.332 218.461 148.918C212.463 144.467 204.051 144.503 198.645 149.654C191.698 156.274 192.566 167.186 199.893 172.707C216.591 185.295 236.498 191.948 257.459 191.948C289.339 191.948 317.617 176.274 335.018 152.234C337.173 149.258 334.995 145.084 331.321 145.084H302.771Z" fill="url(#paint4_linear_96_583)"/>
</g>
<mask id="mask5_96_583" style="mask-type:luminance" maskUnits="userSpaceOnUse" x="121" y="0" width="219" height="133">
<path d="M125.932 128.446C131.959 134.199 141.507 133.982 147.263 127.954C150.283 124.791 155.987 117.661 165.807 105.329C181.115 86.1127 206.733 53.9501 216.749 45.8914C226.553 37.9994 238.273 30.6954 257.459 30.6954C276.548 30.6954 293.744 38.9101 305.732 51.9781C306.604 52.9274 307.816 53.4914 309.104 53.4914H335.371C338.889 53.4914 341.088 49.6354 339.259 46.6287C322.452 19.0141 292.081 0.523397 257.459 0.523397C228.684 0.523397 210.476 12.2074 197.831 22.3861C186.164 31.7754 165.737 56.9914 142.208 86.5314C135.063 95.5034 127.672 104.779 125.44 107.117C119.688 113.142 119.907 122.691 125.932 128.446Z" fill="white"/>
</mask>
<g mask="url(#mask5_96_583)">
<path d="M125.932 128.446C131.959 134.199 141.507 133.982 147.263 127.954C150.283 124.791 155.987 117.661 165.807 105.329C181.115 86.1127 206.733 53.9501 216.749 45.8914C226.553 37.9994 238.273 30.6954 257.459 30.6954C276.548 30.6954 293.744 38.9101 305.732 51.9781C306.604 52.9274 307.816 53.4914 309.104 53.4914H335.371C338.889 53.4914 341.088 49.6354 339.259 46.6287C322.452 19.0141 292.081 0.523397 257.459 0.523397C228.684 0.523397 210.476 12.2074 197.831 22.3861C186.164 31.7754 165.737 56.9914 142.208 86.5314C135.063 95.5034 127.672 104.779 125.44 107.117C119.688 113.142 119.907 122.691 125.932 128.446Z" fill="url(#paint5_linear_96_583)"/>
</g>
</g>
<defs>
<linearGradient id="paint0_linear_96_583" x1="1.01953" y1="93.1833" x2="74.1231" y2="93.1833" gradientUnits="userSpaceOnUse">
<stop stop-color="#008080"/>
<stop offset="1" stop-color="#004D4D"/>
</linearGradient>
<linearGradient id="paint1_linear_96_583" x1="29.4536" y1="23.9537" x2="171.439" y2="23.9537" gradientUnits="userSpaceOnUse">
<stop stop-color="#008080"/>
<stop offset="1" stop-color="#004D4D"/>
</linearGradient>
<linearGradient id="paint2_linear_96_583" x1="25.4056" y1="125.899" x2="244.058" y2="125.899" gradientUnits="userSpaceOnUse">
<stop stop-color="#008080"/>
<stop offset="1" stop-color="#004D4D"/>
</linearGradient>
<linearGradient id="paint3_linear_96_583" x1="291.195" y1="99.2882" x2="364.299" y2="99.2882" gradientUnits="userSpaceOnUse">
<stop stop-color="#07234A"/>
<stop offset="1" stop-color="#0D0D0D"/>
</linearGradient>
<linearGradient id="paint4_linear_96_583" x1="193.887" y1="168.516" x2="335.873" y2="168.516" gradientUnits="userSpaceOnUse">
<stop stop-color="#07234A"/>
<stop offset="1" stop-color="#0D0D0D"/>
</linearGradient>
<linearGradient id="paint5_linear_96_583" x1="121.265" y1="66.5727" x2="339.917" y2="66.5727" gradientUnits="userSpaceOnUse">
<stop stop-color="#07234A"/>
<stop offset="1" stop-color="#0D0D0D"/>
</linearGradient>
<clipPath id="clip0_96_583">
<rect width="364" height="193" fill="white" transform="translate(0.832031)"/>
</clipPath>
</defs>
</svg>
