<svg width="1574" height="1591" viewBox="0 0 1574 1591" fill="none" xmlns="http://www.w3.org/2000/svg">
<path d="M1180.41 287.073C1393.16 253.246 1548.21 375.966 1569.51 760.646C1585.35 1046.95 1436.07 1329.53 1197.49 1461.62C880.506 1637.11 407.946 1582.57 252.293 1297.39C159.413 1127.23 172.16 861.726 301.36 755.059C430.88 648.139 575.386 830.566 811.44 729.006C1073.89 616.086 1008.83 314.353 1180.41 287.073Z" fill="white"/>
<path d="M400.055 723.219C366.095 723.219 334.082 731.886 303.242 757.339C243.562 806.606 204.655 896.019 196.495 1002.65C188.548 1106.51 209.828 1213.43 254.895 1295.98C314.722 1405.61 423.335 1485.91 569.002 1528.25C772.095 1587.26 1012.38 1560.73 1196.06 1459.03C1433.51 1327.57 1582.39 1046.98 1566.56 760.819C1555.11 554.152 1504.11 412.886 1414.94 340.939C1354.36 292.059 1275.6 274.926 1180.88 289.992C1103.18 302.339 1074.43 373.686 1041.14 456.299C1000.67 556.726 954.802 670.539 812.602 731.726C689.655 784.619 592.842 761.392 507.428 740.899C469.282 731.739 433.722 723.219 400.055 723.219ZM793.482 1565.11C716.188 1565.11 639.455 1554.86 567.348 1533.91C420.148 1491.14 310.308 1409.85 249.708 1298.81C204.108 1215.29 182.575 1107.17 190.602 1002.19C198.882 893.979 238.562 803.072 299.482 752.779C363.162 700.219 430.655 716.406 508.815 735.152C593.335 755.432 689.135 778.419 810.268 726.299C950.228 666.072 995.615 553.459 1035.66 454.086C1069.62 369.819 1098.95 297.032 1179.95 284.152C1276.42 268.819 1356.72 286.379 1418.64 336.339C1509.16 409.379 1560.92 552.086 1572.46 760.486C1588.42 1048.86 1438.31 1331.67 1198.92 1464.21C1079.14 1530.53 935.415 1565.1 793.482 1565.11Z" fill="#051832"/>
<path d="M1176.04 1104.55C1174.87 1104.55 1173.76 1103.85 1173.29 1102.69C1142.55 1025.59 1039.11 1010.53 1038.07 1010.38C1036.45 1010.17 1035.32 1008.67 1035.55 1007.06C1035.76 1005.45 1037.25 1004.31 1038.87 1004.53C1039.95 1004.67 1146.75 1020.18 1178.77 1100.5C1179.39 1102.02 1178.64 1103.74 1177.13 1104.34C1176.77 1104.49 1176.4 1104.55 1176.04 1104.55Z" fill="black"/>
<path d="M1030.67 1153.9C1030.56 1153.9 1030.45 1153.89 1030.36 1153.87C1028.73 1153.71 1027.56 1152.26 1027.72 1150.63C1035.39 1075.75 993.106 1026.57 992.679 1026.07C991.599 1024.85 991.733 1022.98 992.959 1021.9C994.173 1020.83 996.053 1020.95 997.119 1022.18C997.573 1022.69 1041.52 1073.83 1033.6 1151.25C1033.44 1152.77 1032.16 1153.9 1030.67 1153.9Z" fill="black"/>
<path d="M596.348 1436.81C589.668 1430.05 551.054 1309.91 551.054 1309.91L474.734 1364.37L558.401 1476.81L596.348 1436.81Z" fill="white"/>
<path d="M478.908 1365.02L558.682 1472.23L592.628 1436.45C583.855 1420.31 557.522 1339.58 549.482 1314.67L478.908 1365.02ZM558.402 1479.75C558.348 1479.75 558.282 1479.75 558.228 1479.75C557.362 1479.7 556.548 1479.27 556.028 1478.57L472.375 1366.13C471.895 1365.49 471.708 1364.69 471.828 1363.91C471.948 1363.13 472.375 1362.42 473.028 1361.97L549.335 1307.51C550.108 1306.97 551.082 1306.82 551.975 1307.11C552.868 1307.41 553.575 1308.11 553.868 1309.01C568.615 1354.91 593.775 1429.63 598.468 1434.74C599.508 1435.89 599.562 1437.73 598.495 1438.85L560.548 1478.83C559.988 1479.43 559.215 1479.75 558.402 1479.75Z" fill="black"/>
<path d="M458.826 1588.71L509.586 1588.41C543.159 1588.21 574.386 1571.15 592.693 1543.01L642.879 1463.57C656.746 1441.61 648.986 1412.51 626.053 1400.33C605.106 1389.19 583.173 1378.35 578.026 1378.85C567.586 1379.83 563.373 1429.23 563.373 1429.23L518.159 1430.97C518.159 1430.97 495.813 1523.85 476.173 1534.41C461.853 1542.1 451.853 1553.39 445.133 1563.7C438.093 1574.5 445.946 1588.79 458.826 1588.71Z" fill="#051832"/>
<path d="M463.933 1571.85C462.507 1571.85 461.24 1570.79 461.013 1569.34C460.773 1567.73 461.88 1566.22 463.493 1565.98L532.907 1555.53C547.667 1553.3 560.52 1544.69 568.187 1531.89L629.52 1429.41C630.36 1428.01 632.173 1427.55 633.573 1428.39C634.973 1429.23 635.427 1431.05 634.587 1432.45L573.253 1534.91C564.68 1549.23 550.293 1558.87 533.787 1561.37L464.387 1571.82C464.227 1571.83 464.08 1571.85 463.933 1571.85Z" fill="white"/>
<path d="M549.625 1494.79C549.358 1494.79 549.105 1494.75 548.838 1494.69L510.172 1484.15C508.598 1483.73 507.665 1482.1 508.092 1480.53C508.518 1478.95 510.145 1478.02 511.718 1478.45L550.398 1488.98C551.972 1489.41 552.892 1491.03 552.465 1492.61C552.105 1493.93 550.918 1494.79 549.625 1494.79Z" fill="white"/>
<path d="M529.479 1514.65C529.239 1514.65 529.013 1514.62 528.773 1514.57L502.839 1508.22C501.253 1507.83 500.293 1506.23 500.679 1504.65C501.066 1503.06 502.679 1502.1 504.239 1502.49L530.173 1508.83C531.759 1509.22 532.733 1510.82 532.346 1512.39C532.013 1513.75 530.813 1514.65 529.479 1514.65Z" fill="white"/>
<path d="M335.958 1413.89L247.372 1502.91L200.398 1485.66L282.065 1371.77L335.958 1413.89Z" fill="white"/>
<path d="M205.065 1484.23L246.612 1499.49L331.519 1414.17L282.679 1375.99L205.065 1484.23ZM247.372 1505.86C247.025 1505.86 246.679 1505.81 246.345 1505.69L199.385 1488.43C198.519 1488.11 197.852 1487.41 197.572 1486.53C197.305 1485.65 197.465 1484.69 197.999 1483.94L279.665 1370.05C280.132 1369.39 280.852 1368.97 281.652 1368.85C282.465 1368.74 283.252 1368.95 283.892 1369.45L337.785 1411.57C338.452 1412.09 338.865 1412.86 338.919 1413.71C338.959 1414.55 338.652 1415.38 338.052 1415.98L249.465 1504.99C248.892 1505.57 248.145 1505.86 247.372 1505.86Z" fill="black"/>
<path d="M275.358 1488.98C275.358 1488.98 279.638 1526.85 272.372 1560.31C268.505 1578.15 252.438 1590.7 234.185 1590.7H16.7436C1.19957 1590.7 -5.84437 1571.3 6.06896 1561.31C44.7316 1528.93 115.852 1479.46 203.305 1464.94L227.692 1499.07L275.358 1488.98Z" fill="#051832"/>
<path d="M252.427 1563.75H27.0848C25.4528 1563.75 24.1328 1562.43 24.1328 1560.79C24.1328 1559.17 25.4528 1557.85 27.0848 1557.85H252.427C254.067 1557.85 255.387 1559.17 255.387 1560.79C255.387 1562.43 254.067 1563.75 252.427 1563.75Z" fill="white"/>
<path d="M152.827 1523.73C151.667 1523.73 150.56 1523.03 150.094 1521.9L138.16 1492.95C137.547 1491.45 138.267 1489.73 139.773 1489.1C141.267 1488.49 143 1489.19 143.627 1490.71L155.56 1519.65C156.174 1521.15 155.453 1522.87 153.947 1523.5C153.587 1523.65 153.2 1523.73 152.827 1523.73Z" fill="white"/>
<path d="M113.6 1531.33C112.36 1531.33 111.213 1530.54 110.8 1529.3L102.173 1503.21C101.653 1501.65 102.494 1499.98 104.054 1499.47C105.587 1498.95 107.267 1499.79 107.773 1501.34L116.413 1527.45C116.92 1528.99 116.08 1530.67 114.533 1531.18C114.227 1531.29 113.907 1531.33 113.6 1531.33Z" fill="white"/>
<path d="M804.947 790.967C804.947 790.967 400.027 743.833 279.614 848.06C159.214 952.287 469.694 1400.5 469.694 1400.5L567.88 1327.69L474.734 1010.9L849.04 904.593L804.947 790.967Z" fill="#051832"/>
<path d="M1027.79 997.26C968.972 1015.93 863.732 1040.06 716.639 1038.06C674.839 1037.49 636.252 1060.58 617.266 1097.81C573.706 1183.26 479.399 1337.1 325.799 1436.81L252.426 1397.29L439.679 975.78C456.772 937.3 488.746 907.393 528.279 892.9L899.372 756.82C899.372 756.82 1014.44 724.66 1070.87 827.38C1080.93 845.713 1099.64 812.927 1104.11 827.727C1119.37 878.473 1078.31 981.233 1027.79 997.26Z" fill="#051832"/>
<path d="M355.053 1169.21C354.667 1169.21 354.253 1169.13 353.867 1168.95C352.373 1168.3 351.707 1166.55 352.36 1165.06L436.973 974.594C454.293 935.594 487.213 904.807 527.267 890.127L704.973 824.954C706.52 824.394 708.2 825.18 708.773 826.714C709.333 828.247 708.547 829.94 707.013 830.5L529.293 895.674C490.733 909.807 459.053 939.447 442.373 976.98L357.76 1167.46C357.267 1168.55 356.187 1169.21 355.053 1169.21Z" fill="white"/>
<path d="M453.854 1332.95C453.12 1332.95 452.387 1332.67 451.814 1332.13C450.64 1330.99 450.6 1329.13 451.72 1327.95C468.627 1310.37 485.267 1291.49 501.174 1271.83C502.187 1270.57 504.054 1270.37 505.32 1271.39C506.587 1272.42 506.787 1274.27 505.76 1275.54C489.747 1295.34 473 1314.34 455.987 1332.05C455.4 1332.65 454.627 1332.95 453.854 1332.95Z" fill="white"/>
<path d="M503.466 1276.65C502.813 1276.65 502.159 1276.42 501.613 1275.98C500.333 1274.95 500.146 1273.1 501.173 1271.83C509.013 1262.13 516.813 1252.09 524.319 1242.01C525.293 1240.7 527.133 1240.42 528.453 1241.41C529.759 1242.38 530.026 1244.22 529.053 1245.53C521.493 1255.69 513.666 1265.78 505.759 1275.54C505.173 1276.27 504.319 1276.65 503.466 1276.65Z" fill="white"/>
<path d="M712.932 463.907C712.932 463.907 677.319 787.294 438.172 808.454L712.932 812.36C712.932 812.36 814.665 606.2 818.799 525.934C822.932 445.667 712.932 463.907 712.932 463.907Z" fill="white"/>
<path d="M472.855 805.987L711.108 809.373C720.775 789.573 812.002 600.733 815.855 525.787C816.802 507.427 811.562 493.013 800.268 482.92C774.975 460.32 726.415 465.12 715.588 466.52C713.788 480.32 702.868 554.293 667.922 629.493C622.775 726.64 555.788 787.027 472.855 805.987ZM712.935 815.307C712.922 815.307 712.908 815.307 712.895 815.307L438.135 811.4C436.562 811.387 435.282 810.133 435.228 808.56C435.175 806.987 436.348 805.653 437.922 805.507C560.055 794.707 627.495 702.467 662.562 627C700.708 544.893 709.922 464.387 710.002 463.587C710.148 462.267 711.148 461.213 712.455 461C714.935 460.587 773.628 451.227 804.188 478.507C816.895 489.84 822.802 505.853 821.762 526.08C817.642 606.04 719.748 805.227 715.588 813.667C715.095 814.667 714.068 815.307 712.935 815.307Z" fill="black"/>
<path d="M1053.31 258.387C1006.91 247.48 987.56 247.333 818.92 253.44C777.694 254.933 731.84 319.467 727 360.413C740.094 399.707 797.387 580.893 691.84 732.44C676.854 753.947 656.507 777.533 628.547 800.133C644.254 812.84 668.654 829.373 701.427 839.093C755.84 855.253 783.2 837.787 827.04 839.093C943.027 842.56 985.56 971.733 1060.47 955.507C1080.47 951.173 1106.99 935.573 1131.84 883.24C1145.93 839.84 1158.47 788.88 1165.45 731.293C1184.37 575.173 1153.41 445.173 1125.75 363.6C1117.53 337.84 1108 271.24 1053.31 258.387Z" fill="#008080"/>
<path d="M822.306 836.08C823.893 836.08 825.506 836.093 827.133 836.147C888.893 837.987 929.799 874.52 965.892 906.747C997.932 935.347 1025.59 960.04 1059.84 952.627C1086.27 946.907 1109.56 923.187 1129.09 882.147C1145.09 832.84 1156.33 781.96 1162.52 730.934C1177.31 608.867 1164 485.6 1122.95 364.547C1121.77 360.854 1120.61 356.534 1119.28 351.52C1111.32 321.76 1098 271.934 1052.63 261.267C1007.17 250.574 989.706 250.214 819.026 256.4C778.199 257.88 734.946 321.774 730.012 360.12C751.999 426.347 791.893 593.947 694.253 734.134C677.319 758.454 656.799 780.64 633.253 800.107C654.626 816.854 677.826 829.014 702.266 836.267C736.453 846.414 759.346 843.12 783.586 839.627C795.733 837.88 808.239 836.08 822.306 836.08ZM1047.36 959.894C1016.57 959.894 990.999 937.067 961.973 911.147C926.626 879.587 886.559 843.827 826.946 842.054C811.399 841.587 797.693 843.56 784.439 845.467C760.613 848.894 735.999 852.44 700.586 841.934C674.319 834.134 649.453 820.84 626.693 802.44C625.999 801.88 625.586 801.027 625.586 800.134C625.586 799.254 625.999 798.4 626.693 797.84C650.999 778.174 672.106 755.6 689.412 730.76C785.826 592.32 745.853 426.307 724.186 361.36C724.053 360.947 724.013 360.507 724.053 360.067C728.813 319.907 775.066 252.08 818.812 250.494C990.226 244.28 1007.81 244.654 1053.97 255.507C1102.8 266.987 1116.68 318.947 1124.99 350C1126.31 354.934 1127.44 359.2 1128.56 362.707C1169.88 484.547 1183.28 608.694 1168.39 731.64C1162.15 783.107 1150.8 834.427 1134.65 884.147C1134.61 884.28 1134.56 884.387 1134.51 884.507C1114.13 927.4 1089.44 952.254 1061.09 958.4C1056.39 959.414 1051.81 959.894 1047.36 959.894Z" fill="black"/>
<path d="M681.506 500.147C681.506 500.147 727.039 274.947 805.626 256.281L769.333 550.454L681.506 500.147Z" fill="#008080"/>
<path d="M769.334 553.4C768.814 553.4 768.307 553.28 767.854 553.014L680.041 502.707C678.934 502.08 678.361 500.814 678.614 499.56C680.494 490.294 725.441 272.294 804.947 253.4C806.547 253.027 808.134 254.014 808.507 255.587C808.881 257.174 807.907 258.774 806.321 259.147C734.414 276.227 689.694 475.947 684.841 498.654L766.934 545.68L772.921 497.267C773.121 495.654 774.614 494.507 776.201 494.707C777.827 494.907 778.974 496.374 778.774 498L772.254 550.814C772.134 551.8 771.534 552.654 770.654 553.094C770.227 553.307 769.774 553.4 769.334 553.4Z" fill="black"/>
<path d="M914.948 150.613L909.348 228.493C908.108 238.627 900.814 246.973 890.934 249.546L863.574 256.68L881.321 270.2C920.681 300.16 975.188 306.293 1014.59 276.4L1042.68 255.987L1008.69 247.506C998.934 245.32 991.428 231.413 989.654 221.56L974.641 118.507L914.948 150.613Z" fill="white"/>
<path d="M870.2 258.014L883.107 267.84C924.267 299.187 976.387 301.68 1012.81 274.054L1035.83 257.32L1007.97 250.374C996.4 247.787 988.573 232.267 986.747 222.094L972.32 123.107L917.773 152.454L912.293 228.707C910.88 240.267 902.8 249.507 891.68 252.414L870.2 258.014ZM954.773 299.094C929.213 299.094 902.707 290.187 879.533 272.547L861.787 259.027C860.893 258.347 860.453 257.2 860.68 256.094C860.907 254.987 861.733 254.107 862.827 253.814L890.187 246.694C898.947 244.414 905.32 237.12 906.413 228.147L912 150.4C912.067 149.4 912.653 148.494 913.547 148.014L973.24 115.907C974.08 115.454 975.107 115.44 975.96 115.88C976.827 116.307 977.413 117.134 977.56 118.08L992.573 221.134C994.12 229.707 1000.81 242.72 1009.33 244.627L1043.39 253.12C1044.51 253.4 1045.36 254.307 1045.57 255.427C1045.8 256.56 1045.35 257.707 1044.41 258.387L1016.33 278.787C998.427 292.374 976.96 299.094 954.773 299.094Z" fill="black"/>
<path d="M826.44 42.2133C845.174 32.3066 830.094 63.16 891.68 9.86666C916.2 -11.36 917.08 28.2668 923.467 22.7734C947.014 2.50677 946.187 3.17338 961.054 0.586715C970.894 -1.11995 984.04 12.4534 987.96 25.3068C993.12 42.2534 981.84 52.4133 985.693 91.4667C988.4 118.893 997.027 132.373 989.12 140.16C981.134 148.04 968.12 138.413 958.747 146.36C946.6 156.64 960.453 179.52 951.493 195.733C945.84 205.96 927.28 217.987 888.24 217.053C881.907 216.893 876.547 212.24 875.52 205.973C874.2 197.947 872.574 187.787 871.84 177.96C868.347 131.133 878.44 115.573 868.507 107.573C853.294 95.3068 827.44 118.16 816.467 107.387C805.067 96.2 800.814 55.7866 826.44 42.2133Z" fill="black"/>
<path d="M919.599 68.4802L918.812 81.2669C918.452 87.2936 918.506 93.3335 918.972 99.3602C919.839 110.653 921.199 130.094 921.132 141.027C921.039 157.094 871.372 160.24 871.372 160.24L865.066 153.227L859.226 153.467C858.106 153.52 856.959 153.334 855.959 152.814C853.439 151.494 852.199 148.814 852.626 146.214C854.986 132.027 859.092 100.68 854.546 76.3203C854.546 76.3203 882.159 53.8935 919.599 68.4802Z" fill="white"/>
<path d="M865.067 150.266C865.894 150.266 866.694 150.627 867.267 151.253L872.6 157.187C891.974 155.773 918.12 149.96 918.187 141.013C918.254 130.12 916.867 110.373 916.027 99.5865C915.547 93.4532 915.494 87.2264 915.867 81.093L916.52 70.4798C886.334 59.6931 863.507 73.5598 857.774 77.5998C861.8 101.586 858.133 131.04 855.547 146.693C855.307 148.106 856.027 149.507 857.32 150.187C857.787 150.427 858.4 150.547 859.107 150.52L864.947 150.28C864.987 150.266 865.027 150.266 865.067 150.266ZM871.36 163.187C870.534 163.187 869.734 162.84 869.174 162.213L863.8 156.226L859.36 156.413C857.627 156.493 855.974 156.146 854.587 155.426C851.027 153.56 849.067 149.666 849.72 145.733C851.8 133.12 856.174 101.146 851.64 76.8665C851.44 75.7998 851.84 74.7064 852.68 74.0264C853.867 73.0664 882.08 50.6932 920.667 65.7199C921.867 66.1865 922.627 67.3732 922.547 68.6532L921.76 81.4532C921.414 87.3199 921.454 93.2665 921.907 99.1331C922.76 110.013 924.16 129.947 924.094 141.053C923.974 158.96 880.307 162.627 871.56 163.187C871.494 163.187 871.427 163.187 871.36 163.187Z" fill="black"/>
<path d="M928.32 107.894C928.32 107.894 930.147 77.1335 943.947 81.0268C957.734 84.9068 954.867 118.72 928.32 107.894Z" fill="white"/>
<path d="M250.241 839.294H793.134C806.121 839.294 816.641 828.774 816.641 815.787V807.614H226.734V815.787C226.734 828.774 237.268 839.294 250.241 839.294Z" fill="white"/>
<path d="M229.692 810.574V815.787C229.692 827.12 238.905 836.334 250.238 836.334H793.132C804.465 836.334 813.678 827.12 813.678 815.787V810.574H229.692ZM793.132 842.24H250.238C235.652 842.24 223.785 830.374 223.785 815.787V807.614C223.785 805.987 225.105 804.667 226.732 804.667H816.638C818.265 804.667 819.585 805.987 819.585 807.614V815.787C819.585 830.374 807.718 842.24 793.132 842.24Z" fill="black"/>
<path d="M226.72 808.188H564.267L457.027 492.507C450.613 482.627 439.427 476.641 427.413 476.641H142.067C129.133 476.641 120.787 489.201 125.013 500.294C126.693 504.707 128.507 509.054 129.973 513.547L226.72 808.188Z" fill="white"/>
<path d="M228.867 805.24H560.147L454.347 493.813C448.414 484.907 438.374 479.587 427.414 479.587H142.067C136.907 479.587 132.307 481.96 129.454 486.107C126.761 490.013 126.134 494.92 127.774 499.24C128.241 500.48 128.734 501.72 129.214 502.973C130.441 506.093 131.707 509.333 132.787 512.627L228.867 805.24ZM564.267 811.146H226.721C225.454 811.146 224.321 810.32 223.921 809.107L127.174 514.467C126.147 511.333 124.907 508.173 123.721 505.12C123.227 503.867 122.734 502.6 122.254 501.347C119.921 495.213 120.787 488.267 124.587 482.747C128.561 476.987 134.934 473.68 142.067 473.68H427.414C440.507 473.68 452.507 480.12 459.507 490.893C459.641 491.107 459.747 491.32 459.827 491.56L567.067 807.24C567.374 808.147 567.227 809.133 566.667 809.907C566.121 810.68 565.227 811.146 564.267 811.146Z" fill="black"/>
<path d="M351.986 638.16C356.013 651.507 349.866 665.16 338.266 668.667C326.653 672.16 313.986 664.187 309.973 650.84C305.946 637.494 312.093 623.827 323.693 620.334C335.306 616.827 347.973 624.8 351.986 638.16Z" fill="#051832"/>
<path d="M1161.64 558.08C1161.64 558.08 1145.09 767.814 1098.23 847.214C1042.27 942.054 759.973 814.334 759.973 814.334L727.146 795.734C704.933 783.16 678.467 780.467 654.187 788.307L601.146 805.414C601.146 805.414 644.947 752.907 682.2 732.827C699.653 723.414 722.293 732.307 741.427 744.427C774.32 765.267 813.027 775.04 851.96 773.88L964.253 770.534C983.107 769.974 998.56 755.387 1000.2 736.6L1017.12 500.707L1161.64 558.08Z" fill="white"/>
<path d="M682.147 780.96C698.281 780.96 714.334 785.093 728.601 793.173L761.441 811.76C764.001 812.907 1041.71 937.2 1095.68 845.72C1139.13 772.107 1156.59 582.48 1158.52 560.027L1019.77 504.933L1003.13 736.813C1001.37 757.133 984.694 772.893 964.334 773.493L852.041 776.827C811.387 778.04 772.641 767.693 739.841 746.92C723.574 736.613 700.601 726.253 683.601 735.427C655.934 750.333 624.134 783.947 610.374 799.347L653.281 785.493C662.681 782.467 672.427 780.96 682.147 780.96ZM1012.67 885.347C911.401 885.347 767.134 820.813 758.761 817.013L725.694 798.307C704.268 786.173 678.534 783.56 655.094 791.12L602.054 808.227C600.814 808.627 599.441 808.16 598.707 807.067C597.961 805.987 598.041 804.533 598.881 803.533C600.681 801.36 643.467 750.347 680.801 730.227C696.481 721.773 717.401 725.72 743.001 741.933C774.814 762.067 812.414 772.08 851.867 770.92L964.174 767.587C981.521 767.067 995.748 753.64 997.254 736.347L1014.17 500.493C1014.24 499.547 1014.75 498.707 1015.55 498.2C1016.35 497.693 1017.33 497.613 1018.21 497.96L1162.73 555.347C1163.93 555.813 1164.69 557.027 1164.59 558.32C1163.91 566.907 1147.44 769.64 1100.77 848.72C1084.92 875.587 1052.04 885.347 1012.67 885.347Z" fill="black"/>
<path d="M1187.89 572.907C1187.89 572.907 1205.57 437.774 1186.08 390.174C1140.6 279.161 1071.08 263.601 1059.95 260.294L995.867 534.707L1187.89 572.907Z" fill="#008080"/>
<path d="M1187.89 575.867C1187.69 575.867 1187.51 575.84 1187.31 575.814L995.279 537.601C994.505 537.454 993.812 536.987 993.386 536.307C992.946 535.64 992.799 534.814 992.986 534.04L1006.07 478.014C1006.44 476.427 1008.04 475.441 1009.61 475.801C1011.21 476.174 1012.2 477.761 1011.83 479.361L999.439 532.414L1185.35 569.401C1187.83 548.894 1200.69 433.641 1183.35 391.294C1163.67 343.267 1126.43 282.134 1060.75 263.587L1059.11 263.121C1057.55 262.654 1056.65 261.014 1057.12 259.441C1057.59 257.881 1059.21 256.987 1060.8 257.454L1062.36 257.907C1116.16 273.094 1159.88 318.441 1188.81 389.054C1208.37 436.827 1191.55 567.747 1190.81 573.294C1190.72 574.107 1190.28 574.84 1189.61 575.307C1189.11 575.68 1188.51 575.867 1187.89 575.867Z" fill="black"/>
</svg>
