<svg width="1640" height="1863" viewBox="0 0 1640 1863" fill="none" xmlns="http://www.w3.org/2000/svg">
<path d="M1180.41 287.069C1393.16 253.242 1548.21 375.962 1569.51 760.642C1585.35 1046.95 1436.07 1329.52 1197.49 1461.62C880.506 1637.11 407.946 1582.56 252.293 1297.39C159.413 1127.23 172.16 861.722 301.36 755.055C430.88 648.135 575.386 830.562 811.44 729.002C1073.89 616.082 1008.83 314.349 1180.41 287.069Z" fill="white"/>
<path d="M400.055 723.216C366.095 723.216 334.082 731.883 303.242 757.336C243.562 806.603 204.655 896.016 196.495 1002.64C188.548 1106.51 209.828 1213.43 254.895 1295.98C314.722 1405.6 423.335 1485.91 569.002 1528.24C772.095 1587.26 1012.38 1560.72 1196.06 1459.03C1433.51 1327.56 1582.39 1046.98 1566.56 760.816C1555.11 554.149 1504.11 412.883 1414.94 340.936C1354.36 292.056 1275.6 274.923 1180.88 289.99C1103.18 302.336 1074.43 373.683 1041.14 456.296C1000.67 556.723 954.802 670.536 812.602 731.723C689.655 784.616 592.842 761.389 507.428 740.896C469.282 731.736 433.722 723.216 400.055 723.216ZM793.482 1565.11C716.188 1565.11 639.455 1554.86 567.348 1533.91C420.148 1491.14 310.308 1409.84 249.708 1298.8C204.108 1215.28 182.575 1107.16 190.602 1002.19C198.882 893.976 238.562 803.069 299.482 752.776C363.162 700.216 430.655 716.403 508.815 735.149C593.335 755.429 689.135 778.416 810.268 726.296C950.228 666.069 995.615 553.456 1035.66 454.083C1069.62 369.816 1098.95 297.029 1179.95 284.149C1276.42 268.816 1356.72 286.376 1418.64 336.336C1509.16 409.376 1560.92 552.083 1572.46 760.483C1588.42 1048.86 1438.31 1331.67 1198.92 1464.2C1079.14 1530.52 935.415 1565.1 793.482 1565.11Z" fill="#051832"/>
<path d="M1176.04 1104.55C1174.86 1104.55 1173.76 1103.84 1173.29 1102.68C1142.54 1025.59 1039.1 1010.52 1038.06 1010.38C1036.45 1010.16 1035.32 1008.67 1035.54 1007.06C1035.76 1005.44 1037.25 1004.31 1038.86 1004.52C1039.94 1004.67 1146.74 1020.18 1178.77 1100.5C1179.38 1102.02 1178.64 1103.74 1177.13 1104.34C1176.77 1104.48 1176.4 1104.55 1176.04 1104.55Z" fill="black"/>
<path d="M1030.67 1153.9C1030.56 1153.9 1030.45 1153.88 1030.36 1153.87C1028.73 1153.71 1027.56 1152.26 1027.72 1150.63C1035.39 1075.75 993.108 1026.56 992.681 1026.07C991.601 1024.84 991.734 1022.98 992.961 1021.9C994.174 1020.83 996.055 1020.95 997.121 1022.18C997.575 1022.68 1041.52 1073.83 1033.6 1151.24C1033.44 1152.76 1032.16 1153.9 1030.67 1153.9Z" fill="black"/>
<path d="M596.348 1436.8C589.668 1430.04 551.054 1309.91 551.054 1309.91L474.734 1364.36L558.401 1476.8L596.348 1436.8Z" fill="white"/>
<path d="M478.908 1365.02L558.682 1472.23L592.628 1436.44C583.855 1420.31 557.522 1339.58 549.482 1314.67L478.908 1365.02ZM558.402 1479.75C558.348 1479.75 558.282 1479.75 558.228 1479.75C557.362 1479.7 556.548 1479.27 556.028 1478.56L472.375 1366.12C471.895 1365.48 471.708 1364.68 471.828 1363.91C471.948 1363.12 472.375 1362.42 473.028 1361.96L549.335 1307.51C550.108 1306.96 551.082 1306.82 551.975 1307.11C552.868 1307.4 553.575 1308.11 553.868 1309C568.615 1354.91 593.775 1429.63 598.468 1434.74C599.508 1435.88 599.562 1437.72 598.495 1438.84L560.548 1478.83C559.988 1479.43 559.215 1479.75 558.402 1479.75Z" fill="black"/>
<path d="M458.826 1588.71L509.586 1588.4C543.159 1588.2 574.386 1571.15 592.693 1543L642.879 1463.56C656.746 1441.6 648.986 1412.51 626.053 1400.32C605.106 1389.19 583.173 1378.35 578.026 1378.84C567.586 1379.83 563.373 1429.23 563.373 1429.23L518.159 1430.96C518.159 1430.96 495.813 1523.84 476.173 1534.4C461.853 1542.1 451.853 1553.39 445.133 1563.7C438.093 1574.5 445.946 1588.79 458.826 1588.71Z" fill="#051832"/>
<path d="M463.933 1571.84C462.507 1571.84 461.24 1570.79 461.013 1569.34C460.773 1567.72 461.88 1566.22 463.493 1565.98L532.907 1555.52C547.667 1553.3 560.52 1544.68 568.187 1531.88L629.52 1429.4C630.36 1428 632.173 1427.55 633.573 1428.39C634.973 1429.23 635.427 1431.04 634.587 1432.44L573.253 1534.91C564.68 1549.23 550.293 1558.87 533.787 1561.36L464.387 1571.82C464.227 1571.83 464.08 1571.84 463.933 1571.84Z" fill="white"/>
<path d="M549.625 1494.79C549.358 1494.79 549.105 1494.75 548.838 1494.68L510.172 1484.15C508.598 1483.72 507.665 1482.1 508.092 1480.52C508.518 1478.95 510.145 1478.02 511.718 1478.44L550.398 1488.98C551.972 1489.4 552.892 1491.03 552.465 1492.6C552.105 1493.92 550.918 1494.79 549.625 1494.79Z" fill="white"/>
<path d="M529.479 1514.64C529.239 1514.64 529.013 1514.62 528.773 1514.56L502.839 1508.22C501.253 1507.83 500.293 1506.23 500.679 1504.64C501.066 1503.06 502.679 1502.1 504.239 1502.48L530.173 1508.83C531.759 1509.22 532.733 1510.82 532.346 1512.39C532.013 1513.75 530.813 1514.64 529.479 1514.64Z" fill="white"/>
<path d="M335.958 1413.88L247.372 1502.91L200.398 1485.66L282.065 1371.76L335.958 1413.88Z" fill="white"/>
<path d="M205.065 1484.23L246.612 1499.48L331.519 1414.16L282.679 1375.99L205.065 1484.23ZM247.372 1505.86C247.025 1505.86 246.679 1505.8 246.345 1505.68L199.385 1488.43C198.519 1488.11 197.852 1487.4 197.572 1486.52C197.305 1485.64 197.465 1484.68 197.999 1483.94L279.665 1370.04C280.132 1369.39 280.852 1368.96 281.652 1368.84C282.465 1368.74 283.252 1368.95 283.892 1369.44L337.785 1411.56C338.452 1412.08 338.865 1412.86 338.919 1413.71C338.959 1414.55 338.652 1415.38 338.052 1415.98L249.465 1504.99C248.892 1505.56 248.145 1505.86 247.372 1505.86Z" fill="black"/>
<path d="M275.358 1488.98C275.358 1488.98 279.638 1526.84 272.372 1560.31C268.505 1578.15 252.438 1590.7 234.185 1590.7H16.7436C1.19957 1590.7 -5.84437 1571.3 6.06896 1561.31C44.7316 1528.92 115.852 1479.46 203.305 1464.94L227.692 1499.07L275.358 1488.98Z" fill="#051832"/>
<path d="M252.427 1563.75H27.0848C25.4528 1563.75 24.1328 1562.43 24.1328 1560.79C24.1328 1559.16 25.4528 1557.84 27.0848 1557.84H252.427C254.067 1557.84 255.387 1559.16 255.387 1560.79C255.387 1562.43 254.067 1563.75 252.427 1563.75Z" fill="white"/>
<path d="M152.827 1523.72C151.667 1523.72 150.56 1523.03 150.094 1521.9L138.16 1492.95C137.547 1491.44 138.267 1489.72 139.773 1489.1C141.267 1488.48 143 1489.19 143.627 1490.71L155.56 1519.64C156.174 1521.15 155.453 1522.87 153.947 1523.5C153.587 1523.64 153.2 1523.72 152.827 1523.72Z" fill="white"/>
<path d="M113.6 1531.32C112.36 1531.32 111.213 1530.54 110.8 1529.3L102.173 1503.2C101.653 1501.64 102.494 1499.98 104.054 1499.47C105.587 1498.95 107.267 1499.79 107.773 1501.34L116.413 1527.44C116.92 1528.99 116.08 1530.67 114.533 1531.18C114.227 1531.28 113.907 1531.32 113.6 1531.32Z" fill="white"/>
<path d="M804.947 790.963C804.947 790.963 400.027 743.829 279.614 848.056C159.214 952.283 469.694 1400.5 469.694 1400.5L567.88 1327.68L474.734 1010.9L849.04 904.589L804.947 790.963Z" fill="#051832"/>
<path d="M1027.79 997.256C968.972 1015.92 863.732 1040.06 716.639 1038.06C674.839 1037.48 636.252 1060.58 617.266 1097.8C573.706 1183.26 479.399 1337.1 325.799 1436.8L252.426 1397.28L439.679 975.776C456.772 937.296 488.746 907.389 528.279 892.896L899.372 756.816C899.372 756.816 1014.44 724.656 1070.87 827.376C1080.93 845.709 1099.64 812.923 1104.11 827.723C1119.37 878.469 1078.31 981.229 1027.79 997.256Z" fill="#051832"/>
<path d="M355.053 1169.2C354.667 1169.2 354.253 1169.12 353.867 1168.95C352.373 1168.3 351.707 1166.55 352.36 1165.06L436.973 974.59C454.293 935.59 487.213 904.803 527.267 890.123L704.973 824.95C706.52 824.39 708.2 825.176 708.773 826.71C709.333 828.243 708.547 829.937 707.013 830.497L529.293 895.67C490.733 909.803 459.053 939.443 442.373 976.976L357.76 1167.46C357.267 1168.55 356.187 1169.2 355.053 1169.2Z" fill="white"/>
<path d="M453.854 1332.95C453.12 1332.95 452.387 1332.67 451.814 1332.12C450.64 1330.99 450.6 1329.12 451.72 1327.95C468.627 1310.36 485.267 1291.48 501.174 1271.83C502.187 1270.56 504.054 1270.36 505.32 1271.39C506.587 1272.42 506.787 1274.27 505.76 1275.54C489.747 1295.34 473 1314.34 455.987 1332.04C455.4 1332.64 454.627 1332.95 453.854 1332.95Z" fill="white"/>
<path d="M503.466 1276.64C502.813 1276.64 502.159 1276.42 501.613 1275.98C500.333 1274.95 500.146 1273.1 501.173 1271.83C509.013 1262.12 516.813 1252.08 524.319 1242C525.293 1240.7 527.133 1240.42 528.453 1241.4C529.759 1242.38 530.026 1244.22 529.053 1245.52C521.493 1255.68 513.666 1265.78 505.759 1275.54C505.173 1276.27 504.319 1276.64 503.466 1276.64Z" fill="white"/>
<path d="M712.932 463.906C712.932 463.906 677.319 787.293 438.172 808.453L712.932 812.359C712.932 812.359 814.665 606.199 818.799 525.933C822.932 445.666 712.932 463.906 712.932 463.906Z" fill="white"/>
<path d="M472.855 805.987L711.108 809.373C720.775 789.573 812.002 600.733 815.855 525.787C816.802 507.427 811.562 493.013 800.268 482.92C774.975 460.32 726.415 465.12 715.588 466.52C713.788 480.32 702.868 554.293 667.922 629.493C622.775 726.64 555.788 787.027 472.855 805.987ZM712.935 815.307C712.922 815.307 712.908 815.307 712.895 815.307L438.135 811.4C436.562 811.387 435.282 810.133 435.228 808.56C435.175 806.987 436.348 805.653 437.922 805.507C560.055 794.707 627.495 702.467 662.562 627C700.708 544.893 709.922 464.387 710.002 463.587C710.148 462.267 711.148 461.213 712.455 461C714.935 460.587 773.628 451.227 804.188 478.507C816.895 489.84 822.802 505.853 821.762 526.08C817.642 606.04 719.748 805.227 715.588 813.667C715.095 814.667 714.068 815.307 712.935 815.307Z" fill="black"/>
<path d="M1053.31 258.387C1006.91 247.48 987.56 247.333 818.92 253.44C777.694 254.933 731.84 319.467 727 360.413C740.094 399.707 797.387 580.893 691.84 732.44C676.854 753.947 656.507 777.533 628.547 800.133C644.254 812.84 668.654 829.373 701.427 839.093C755.84 855.253 783.2 837.787 827.04 839.093C943.027 842.56 985.56 971.733 1060.47 955.507C1080.47 951.173 1106.99 935.573 1131.84 883.24C1145.93 839.84 1158.47 788.88 1165.45 731.293C1184.37 575.173 1153.41 445.173 1125.75 363.6C1117.53 337.84 1108 271.24 1053.31 258.387Z" fill="#008080"/>
<path d="M822.306 836.08C823.893 836.08 825.506 836.093 827.133 836.147C888.893 837.987 929.799 874.52 965.892 906.747C997.932 935.347 1025.59 960.04 1059.84 952.627C1086.27 946.907 1109.56 923.187 1129.09 882.147C1145.09 832.84 1156.33 781.96 1162.52 730.934C1177.31 608.867 1164 485.6 1122.95 364.547C1121.77 360.854 1120.61 356.534 1119.28 351.52C1111.32 321.76 1098 271.934 1052.63 261.267C1007.17 250.574 989.706 250.214 819.026 256.4C778.199 257.88 734.946 321.774 730.012 360.12C751.999 426.347 791.893 593.947 694.253 734.134C677.319 758.454 656.799 780.64 633.253 800.107C654.626 816.854 677.826 829.014 702.266 836.267C736.453 846.414 759.346 843.12 783.586 839.627C795.733 837.88 808.239 836.08 822.306 836.08ZM1047.36 959.894C1016.57 959.894 990.999 937.067 961.973 911.147C926.626 879.587 886.559 843.827 826.946 842.054C811.399 841.587 797.693 843.56 784.439 845.467C760.613 848.894 735.999 852.44 700.586 841.934C674.319 834.134 649.453 820.84 626.693 802.44C625.999 801.88 625.586 801.027 625.586 800.134C625.586 799.254 625.999 798.4 626.693 797.84C650.999 778.174 672.106 755.6 689.412 730.76C785.826 592.32 745.853 426.307 724.186 361.36C724.053 360.947 724.013 360.507 724.053 360.067C728.813 319.907 775.066 252.08 818.812 250.494C990.226 244.28 1007.81 244.654 1053.97 255.507C1102.8 266.987 1116.68 318.947 1124.99 350C1126.31 354.934 1127.44 359.2 1128.56 362.707C1169.88 484.547 1183.28 608.694 1168.39 731.64C1162.15 783.107 1150.8 834.427 1134.65 884.147C1134.61 884.28 1134.56 884.387 1134.51 884.507C1114.13 927.4 1089.44 952.254 1061.09 958.4C1056.39 959.414 1051.81 959.894 1047.36 959.894Z" fill="black"/>
<path d="M681.508 500.146C681.508 500.146 727.041 274.946 805.628 256.28L769.334 550.453L681.508 500.146Z" fill="#008080"/>
<path d="M769.334 553.4C768.814 553.4 768.307 553.28 767.854 553.014L680.041 502.707C678.934 502.08 678.361 500.814 678.614 499.56C680.494 490.294 725.441 272.294 804.947 253.4C806.547 253.027 808.134 254.014 808.507 255.587C808.881 257.174 807.907 258.774 806.321 259.147C734.414 276.227 689.694 475.947 684.841 498.654L766.934 545.68L772.921 497.267C773.121 495.654 774.614 494.507 776.201 494.707C777.827 494.907 778.974 496.374 778.774 498L772.254 550.814C772.134 551.8 771.534 552.654 770.654 553.094C770.227 553.307 769.774 553.4 769.334 553.4Z" fill="black"/>
<path d="M914.948 150.613L909.348 228.493C908.108 238.627 900.814 246.973 890.934 249.546L863.574 256.68L881.321 270.2C920.681 300.16 975.188 306.293 1014.59 276.4L1042.68 255.987L1008.69 247.506C998.934 245.32 991.428 231.413 989.654 221.56L974.641 118.507L914.948 150.613Z" fill="white"/>
<path d="M870.2 258.014L883.107 267.84C924.267 299.187 976.387 301.68 1012.81 274.054L1035.83 257.32L1007.97 250.374C996.4 247.787 988.573 232.267 986.747 222.094L972.32 123.107L917.773 152.454L912.293 228.707C910.88 240.267 902.8 249.507 891.68 252.414L870.2 258.014ZM954.773 299.094C929.213 299.094 902.707 290.187 879.533 272.547L861.787 259.027C860.893 258.347 860.453 257.2 860.68 256.094C860.907 254.987 861.733 254.107 862.827 253.814L890.187 246.694C898.947 244.414 905.32 237.12 906.413 228.147L912 150.4C912.067 149.4 912.653 148.494 913.547 148.014L973.24 115.907C974.08 115.454 975.107 115.44 975.96 115.88C976.827 116.307 977.413 117.134 977.56 118.08L992.573 221.134C994.12 229.707 1000.81 242.72 1009.33 244.627L1043.39 253.12C1044.51 253.4 1045.36 254.307 1045.57 255.427C1045.8 256.56 1045.35 257.707 1044.41 258.387L1016.33 278.787C998.427 292.374 976.96 299.094 954.773 299.094Z" fill="black"/>
<path d="M826.44 42.2133C845.174 32.3066 830.094 63.16 891.68 9.86666C916.2 -11.36 917.08 28.2668 923.467 22.7734C947.014 2.50677 946.187 3.17338 961.054 0.586715C970.894 -1.11995 984.04 12.4534 987.96 25.3068C993.12 42.2534 981.84 52.4133 985.693 91.4667C988.4 118.893 997.027 132.373 989.12 140.16C981.134 148.04 968.12 138.413 958.747 146.36C946.6 156.64 960.453 179.52 951.493 195.733C945.84 205.96 927.28 217.987 888.24 217.053C881.907 216.893 876.547 212.24 875.52 205.973C874.2 197.947 872.574 187.787 871.84 177.96C868.347 131.133 878.44 115.573 868.507 107.573C853.294 95.3068 827.44 118.16 816.467 107.387C805.067 96.2 800.814 55.7866 826.44 42.2133Z" fill="black"/>
<path d="M919.599 68.4802L918.812 81.2669C918.452 87.2936 918.506 93.3335 918.972 99.3602C919.839 110.653 921.199 130.094 921.132 141.027C921.039 157.094 871.372 160.24 871.372 160.24L865.066 153.227L859.226 153.467C858.106 153.52 856.959 153.334 855.959 152.814C853.439 151.494 852.199 148.814 852.626 146.214C854.986 132.027 859.092 100.68 854.546 76.3203C854.546 76.3203 882.159 53.8935 919.599 68.4802Z" fill="white"/>
<path d="M865.065 150.266C865.892 150.266 866.692 150.627 867.265 151.253L872.598 157.187C891.972 155.773 918.118 149.96 918.185 141.013C918.252 130.12 916.865 110.373 916.025 99.5865C915.545 93.4532 915.492 87.2264 915.865 81.093L916.518 70.4798C886.332 59.6931 863.505 73.5598 857.772 77.5998C861.798 101.586 858.132 131.04 855.545 146.693C855.305 148.106 856.025 149.507 857.318 150.187C857.785 150.427 858.398 150.547 859.105 150.52L864.945 150.28C864.985 150.266 865.025 150.266 865.065 150.266ZM871.358 163.187C870.532 163.187 869.732 162.84 869.172 162.213L863.798 156.226L859.358 156.413C857.625 156.493 855.972 156.146 854.585 155.426C851.025 153.56 849.065 149.666 849.718 145.733C851.798 133.12 856.172 101.146 851.638 76.8665C851.438 75.7998 851.838 74.7064 852.678 74.0264C853.865 73.0664 882.078 50.6932 920.665 65.7199C921.865 66.1865 922.625 67.3732 922.545 68.6532L921.758 81.4532C921.412 87.3199 921.452 93.2665 921.905 99.1331C922.758 110.013 924.158 129.947 924.092 141.053C923.972 158.96 880.305 162.627 871.558 163.187C871.492 163.187 871.425 163.187 871.358 163.187Z" fill="black"/>
<path d="M928.32 107.894C928.32 107.894 930.147 77.1335 943.947 81.0268C957.734 84.9068 954.867 118.72 928.32 107.894Z" fill="white"/>
<path d="M250.241 839.293H793.134C806.121 839.293 816.641 828.773 816.641 815.786V807.613H226.734V815.786C226.734 828.773 237.268 839.293 250.241 839.293Z" fill="white"/>
<path d="M229.692 810.574V815.787C229.692 827.12 238.905 836.334 250.238 836.334H793.132C804.465 836.334 813.678 827.12 813.678 815.787V810.574H229.692ZM793.132 842.24H250.238C235.652 842.24 223.785 830.374 223.785 815.787V807.614C223.785 805.987 225.105 804.667 226.732 804.667H816.638C818.265 804.667 819.585 805.987 819.585 807.614V815.787C819.585 830.374 807.718 842.24 793.132 842.24Z" fill="black"/>
<path d="M226.72 808.187H564.267L457.027 492.506C450.613 482.626 439.427 476.64 427.413 476.64H142.067C129.133 476.64 120.787 489.2 125.013 500.293C126.693 504.707 128.507 509.053 129.973 513.546L226.72 808.187Z" fill="white"/>
<path d="M228.867 805.24H560.147L454.347 493.813C448.414 484.907 438.374 479.587 427.414 479.587H142.067C136.907 479.587 132.307 481.96 129.454 486.107C126.761 490.013 126.134 494.92 127.774 499.24C128.241 500.48 128.734 501.72 129.214 502.973C130.441 506.093 131.707 509.333 132.787 512.627L228.867 805.24ZM564.267 811.146H226.721C225.454 811.146 224.321 810.32 223.921 809.107L127.174 514.467C126.147 511.333 124.907 508.173 123.721 505.12C123.227 503.867 122.734 502.6 122.254 501.347C119.921 495.213 120.787 488.267 124.587 482.747C128.561 476.987 134.934 473.68 142.067 473.68H427.414C440.507 473.68 452.507 480.12 459.507 490.893C459.641 491.107 459.747 491.32 459.827 491.56L567.067 807.24C567.374 808.147 567.227 809.133 566.667 809.907C566.121 810.68 565.227 811.146 564.267 811.146Z" fill="black"/>
<path d="M351.986 638.16C356.013 651.507 349.866 665.16 338.266 668.667C326.653 672.16 313.986 664.187 309.973 650.84C305.946 637.494 312.093 623.827 323.693 620.334C335.306 616.827 347.973 624.8 351.986 638.16Z" fill="black"/>
<path d="M1161.64 558.079C1161.64 558.079 1145.1 767.813 1098.23 847.213C1042.27 942.053 759.975 814.333 759.975 814.333L727.148 795.733C704.935 783.159 678.469 780.466 654.189 788.306L601.148 805.413C601.148 805.413 644.948 752.906 682.202 732.826C699.655 723.413 722.295 732.306 741.429 744.426C774.322 765.266 813.029 775.039 851.962 773.879L964.255 770.533C983.109 769.973 998.562 755.386 1000.2 736.599L1017.12 500.706L1161.64 558.079Z" fill="white"/>
<path d="M682.147 780.96C698.281 780.96 714.334 785.093 728.601 793.173L761.441 811.76C764.001 812.907 1041.71 937.2 1095.68 845.72C1139.13 772.107 1156.59 582.48 1158.52 560.027L1019.77 504.933L1003.13 736.813C1001.37 757.133 984.694 772.893 964.334 773.493L852.041 776.827C811.387 778.04 772.641 767.693 739.841 746.92C723.574 736.613 700.601 726.253 683.601 735.427C655.934 750.333 624.134 783.947 610.374 799.347L653.281 785.493C662.681 782.467 672.427 780.96 682.147 780.96ZM1012.67 885.347C911.401 885.347 767.134 820.813 758.761 817.013L725.694 798.307C704.268 786.173 678.534 783.56 655.094 791.12L602.054 808.227C600.814 808.627 599.441 808.16 598.707 807.067C597.961 805.987 598.041 804.533 598.881 803.533C600.681 801.36 643.467 750.347 680.801 730.227C696.481 721.773 717.401 725.72 743.001 741.933C774.814 762.067 812.414 772.08 851.867 770.92L964.174 767.587C981.521 767.067 995.748 753.64 997.254 736.347L1014.17 500.493C1014.24 499.547 1014.75 498.707 1015.55 498.2C1016.35 497.693 1017.33 497.613 1018.21 497.96L1162.73 555.347C1163.93 555.813 1164.69 557.027 1164.59 558.32C1163.91 566.907 1147.44 769.64 1100.77 848.72C1084.92 875.587 1052.04 885.347 1012.67 885.347Z" fill="black"/>
<path d="M1187.89 572.906C1187.89 572.906 1205.57 437.773 1186.08 390.173C1140.6 279.16 1071.08 263.6 1059.95 260.293L995.867 534.706L1187.89 572.906Z" fill="#008080"/>
<path d="M1187.89 575.867C1187.69 575.867 1187.51 575.84 1187.31 575.814L995.279 537.601C994.505 537.454 993.812 536.987 993.386 536.307C992.946 535.64 992.799 534.814 992.986 534.04L1006.07 478.014C1006.44 476.427 1008.04 475.441 1009.61 475.801C1011.21 476.174 1012.2 477.761 1011.83 479.361L999.439 532.414L1185.35 569.401C1187.83 548.894 1200.69 433.641 1183.35 391.294C1163.67 343.267 1126.43 282.134 1060.75 263.587L1059.11 263.121C1057.55 262.654 1056.65 261.014 1057.12 259.441C1057.59 257.881 1059.21 256.987 1060.8 257.454L1062.36 257.907C1116.16 273.094 1159.88 318.441 1188.81 389.054C1208.37 436.827 1191.55 567.747 1190.81 573.294C1190.72 574.107 1190.28 574.84 1189.61 575.307C1189.11 575.68 1188.51 575.867 1187.89 575.867Z" fill="black"/>
<path d="M1519.78 1859.72H948.775C914.509 1859.72 888.855 1828.26 895.762 1794.68L982.389 1373.58C989.682 1338.16 1020.86 1312.75 1057 1312.75H1546.79L1519.78 1859.72Z" fill="white"/>
<path d="M1057 1315.7C1022.41 1315.7 992.254 1340.28 985.281 1374.16L898.654 1795.28C895.548 1810.4 899.348 1825.95 909.108 1837.92C918.881 1849.9 933.334 1856.76 948.774 1856.76H1516.96L1543.68 1315.7H1057ZM1519.77 1862.67H948.774C931.548 1862.67 915.428 1855.02 904.534 1841.66C893.654 1828.31 889.401 1810.96 892.868 1794.08L979.494 1372.98C987.028 1336.36 1019.63 1309.79 1057 1309.79H1546.79C1547.59 1309.79 1548.36 1310.12 1548.92 1310.71C1549.48 1311.3 1549.77 1312.08 1549.73 1312.9L1522.72 1859.86C1522.65 1861.43 1521.35 1862.67 1519.77 1862.67Z" fill="#051832"/>
<path d="M1592.88 1859.72H1482.08C1447.8 1859.72 1422.15 1828.26 1429.05 1794.68L1524.48 1330.86C1526.64 1320.31 1535.93 1312.75 1546.69 1312.75H1575.19C1587 1312.75 1596.84 1321.82 1597.8 1333.59L1636.83 1812.04C1638.92 1837.72 1618.65 1859.72 1592.88 1859.72Z" fill="white"/>
<path d="M1546.69 1315.7C1537.37 1315.7 1529.24 1322.32 1527.36 1331.46L1431.94 1795.28C1428.84 1810.4 1432.65 1825.95 1442.41 1837.92C1452.17 1849.9 1466.62 1856.76 1482.06 1856.76H1592.88C1604.5 1856.76 1615.25 1852.06 1623.13 1843.51C1631.01 1834.95 1634.82 1823.87 1633.88 1812.28L1594.85 1333.83C1594.02 1323.66 1585.38 1315.7 1575.18 1315.7H1546.69ZM1592.88 1862.67H1482.06C1464.84 1862.67 1448.72 1855.02 1437.84 1841.66C1426.94 1828.3 1422.69 1810.96 1426.17 1794.08L1521.58 1330.27C1524.02 1318.4 1534.58 1309.79 1546.69 1309.79H1575.18C1588.44 1309.79 1599.66 1320.14 1600.74 1333.35L1639.77 1811.8C1640.84 1824.86 1636.36 1837.87 1627.48 1847.51C1618.6 1857.15 1605.98 1862.67 1592.88 1862.67Z" fill="#051832"/>
<path d="M1441.97 1536.75H994.905C993.265 1536.75 991.945 1535.43 991.945 1533.8C991.945 1532.16 993.265 1530.84 994.905 1530.84H1441.97C1453.92 1530.84 1464.17 1522.74 1466.92 1511.11L1506.33 1344.75C1506.71 1343.16 1508.31 1342.18 1509.89 1342.56C1511.48 1342.94 1512.45 1344.52 1512.08 1346.11L1472.67 1512.48C1469.29 1526.78 1456.67 1536.75 1441.97 1536.75Z" fill="#051832"/>
<path d="M1269.43 1533.8L1256.91 1584.31C1254.88 1592.86 1247.24 1598.9 1238.47 1598.9H1149.92C1140.28 1598.9 1133.29 1589.71 1135.88 1580.42L1148.84 1533.8H1269.43Z" fill="white"/>
<path d="M1151.09 1536.75L1138.72 1581.2C1137.73 1584.74 1138.44 1588.43 1140.67 1591.35C1142.88 1594.27 1146.25 1595.95 1149.92 1595.95H1238.47C1245.91 1595.95 1252.31 1590.88 1254.03 1583.63L1265.65 1536.75H1151.09ZM1238.47 1601.84H1149.92C1144.39 1601.84 1139.31 1599.32 1135.96 1594.92C1132.61 1590.52 1131.55 1584.95 1133.03 1579.63L1146 1533C1146.36 1531.72 1147.52 1530.84 1148.84 1530.84H1269.43C1270.33 1530.84 1271.19 1531.26 1271.75 1531.98C1272.31 1532.7 1272.51 1533.63 1272.29 1534.51L1259.77 1585.03C1257.43 1594.92 1248.67 1601.84 1238.47 1601.84Z" fill="#051832"/>
<path d="M1401.17 1820.36H926.228C924.601 1820.36 923.281 1819.04 923.281 1817.4C923.281 1815.78 924.601 1814.46 926.228 1814.46H1401.17C1402.81 1814.46 1404.13 1815.78 1404.13 1817.4C1404.13 1819.04 1402.81 1820.36 1401.17 1820.36Z" fill="black"/>
<path d="M1169.83 1293.63H1132.75C1122.73 1293.63 1114.61 1301.75 1114.61 1311.76H1187.96C1187.96 1301.75 1179.84 1293.63 1169.83 1293.63Z" fill="black"/>
<path d="M1117.85 1308.82H1184.72C1183.33 1301.86 1177.19 1296.59 1169.83 1296.59H1132.75C1125.39 1296.59 1119.24 1301.86 1117.85 1308.82ZM1187.96 1314.72H1114.61C1112.99 1314.72 1111.67 1313.4 1111.67 1311.76C1111.67 1300.14 1121.12 1290.68 1132.75 1290.68H1169.83C1181.45 1290.68 1190.91 1300.14 1190.91 1311.76C1190.91 1313.4 1189.59 1314.72 1187.96 1314.72Z" fill="black"/>
<path d="M1466.95 1293.63H1429.88C1419.87 1293.63 1411.75 1301.75 1411.75 1311.76H1485.09C1485.09 1301.75 1476.97 1293.63 1466.95 1293.63Z" fill="#051832"/>
<path d="M1414.99 1308.82H1481.84C1480.47 1301.86 1474.31 1296.59 1466.95 1296.59H1429.88C1422.52 1296.59 1416.36 1301.86 1414.99 1308.82ZM1485.09 1314.72H1411.75C1410.11 1314.72 1408.79 1313.4 1408.79 1311.76C1408.79 1300.14 1418.25 1290.68 1429.88 1290.68H1466.95C1478.59 1290.68 1488.04 1300.14 1488.04 1311.76C1488.04 1313.4 1486.72 1314.72 1485.09 1314.72Z" fill="#051832"/>
<path d="M1457.28 1292.66L1463.25 1257.16C1467.48 1232 1450.52 1211.6 1425.35 1211.6H1203.04C1177.87 1211.6 1154.04 1232 1149.8 1257.16L1143.83 1292.66H1160.84L1165.49 1265.03C1168.79 1245.44 1187.33 1229.58 1206.92 1229.58H1415.41C1435 1229.58 1448.2 1245.44 1444.91 1265.03L1440.25 1292.66H1457.28Z" fill="white"/>
<path d="M1443.75 1289.7H1454.77L1460.33 1256.68C1462.25 1245.26 1459.61 1234.59 1452.88 1226.63C1446.29 1218.84 1436.52 1214.55 1425.35 1214.55H1203.04C1179.29 1214.55 1156.71 1233.9 1152.71 1257.66L1147.32 1289.7H1158.35L1162.57 1264.55C1166.09 1243.63 1185.99 1226.62 1206.92 1226.62H1415.41C1425.68 1226.62 1434.71 1230.62 1440.85 1237.87C1447.11 1245.27 1449.57 1255.08 1447.83 1265.52L1443.75 1289.7ZM1457.27 1295.6H1440.25C1439.39 1295.6 1438.56 1295.23 1438 1294.56C1437.44 1293.9 1437.2 1293.02 1437.35 1292.16L1442 1264.55C1443.47 1255.84 1441.45 1247.74 1436.33 1241.68C1431.35 1235.78 1423.91 1232.52 1415.41 1232.52H1206.92C1188.75 1232.52 1171.47 1247.32 1168.4 1265.52L1163.75 1293.15C1163.51 1294.56 1162.28 1295.6 1160.84 1295.6H1143.83C1142.96 1295.6 1142.13 1295.23 1141.57 1294.56C1141.01 1293.9 1140.76 1293.02 1140.91 1292.16L1146.88 1256.68C1151.35 1230.19 1176.53 1208.64 1203.04 1208.64H1425.35C1438.28 1208.64 1449.67 1213.68 1457.39 1222.82C1465.25 1232.12 1468.37 1244.5 1466.16 1257.66L1460.19 1293.15C1459.95 1294.56 1458.72 1295.6 1457.27 1295.6Z" fill="#051832"/>
<path d="M1414.31 1196.91H1219.03C1211.16 1196.91 1203.71 1203.28 1202.37 1211.16L1199.51 1228.22C1198.17 1236.08 1203.49 1242.47 1211.36 1242.47H1406.64C1414.51 1242.47 1421.96 1236.08 1423.29 1228.22L1426.16 1211.16C1427.48 1203.28 1422.17 1196.91 1414.31 1196.91Z" fill="#051832"/>
<path d="M1219.03 1199.86C1212.55 1199.86 1206.39 1205.15 1205.29 1211.64L1202.41 1228.71C1201.92 1231.68 1202.59 1234.43 1204.29 1236.46C1205.96 1238.43 1208.47 1239.51 1211.36 1239.51H1406.64C1413.12 1239.51 1419.28 1234.23 1420.37 1227.72L1423.24 1210.67C1423.75 1207.7 1423.08 1204.95 1421.37 1202.92C1419.71 1200.95 1417.2 1199.86 1414.31 1199.86H1219.03ZM1406.64 1245.42H1211.36C1206.71 1245.42 1202.6 1243.59 1199.79 1240.27C1196.93 1236.9 1195.8 1232.44 1196.59 1227.72L1199.47 1210.67C1201.01 1201.46 1209.79 1193.95 1219.03 1193.95H1414.31C1418.96 1193.95 1423.07 1195.78 1425.88 1199.11C1428.73 1202.48 1429.87 1206.94 1429.07 1211.64L1426.2 1228.71C1424.65 1237.92 1415.87 1245.42 1406.64 1245.42Z" fill="#051832"/>
<path d="M1481.03 1820.36C1480 1820.36 1479 1819.83 1478.45 1818.87C1477.65 1817.46 1478.15 1815.66 1479.56 1814.84L1554.61 1772.08V1345.43C1554.61 1343.8 1555.93 1342.48 1557.57 1342.48C1559.2 1342.48 1560.52 1343.8 1560.52 1345.43V1773.8C1560.52 1774.86 1559.96 1775.84 1559.03 1776.36L1482.49 1819.98C1482.03 1820.24 1481.52 1820.36 1481.03 1820.36Z" fill="#051832"/>
</svg>
