<svg width="2429" height="2319" viewBox="0 0 2429 2319" fill="none" xmlns="http://www.w3.org/2000/svg">
<path d="M1537.03 1684.99L1039.59 1688.09C1036.36 1688.09 1035.31 1691.07 1035.31 1693.93V2115.12C1035.31 2155.45 748.29 2260.23 745.535 2254.89L745.191 2299.47C745.17 2307.76 752.502 2315.13 761.849 2315.13H1189.64C1209 2315.13 1228.11 2310.81 1245.64 2303.52L1474.95 2207.43C1516.23 2190.13 1542.27 2152.97 1542.27 2112.45V1690.83C1542.27 1687.96 1540.25 1684.99 1537.03 1684.99Z" fill="#051832"/>
<path d="M748.128 2253.53C748.128 2253.53 748.128 2253.53 748.131 2253.53H748.128ZM748.44 2257.81L748.119 2299.49C748.111 2302.63 749.427 2305.69 751.823 2308.09C754.468 2310.75 758.03 2312.2 761.85 2312.2H1189.64C1207.65 2312.2 1226.63 2308.27 1244.51 2300.83L1473.81 2204.73C1513.63 2188.05 1539.35 2151.83 1539.35 2112.44V1690.83C1539.35 1689.65 1538.61 1687.92 1537.04 1687.91L1039.6 1691.01C1038.4 1691.01 1038.23 1692.84 1038.23 1693.93V2115.12C1038.23 2156.19 784.763 2249.04 751.498 2257.13C750.428 2257.39 749.399 2257.64 748.44 2257.81ZM1189.64 2318.05H761.85C756.463 2318.05 751.43 2315.99 747.68 2312.23C744.178 2308.72 742.254 2304.17 742.266 2299.47L742.61 2254.87C742.619 2253.52 743.547 2252.36 744.856 2252.04C745.45 2251.91 746.044 2251.95 746.582 2252.16C763.155 2251.43 978.827 2171.64 1024.49 2127.6C1031.01 2121.31 1032.37 2117.35 1032.37 2115.12V1693.93C1032.37 1688.6 1035.2 1685.16 1039.59 1685.16L1537.01 1682.05C1537.01 1682.05 1537.01 1682.05 1537.03 1682.05C1542.07 1682.05 1545.2 1686.61 1545.2 1690.83V2112.44C1545.2 2154.19 1518.07 2192.53 1476.08 2210.12L1246.76 2306.23C1228.17 2313.96 1208.43 2318.05 1189.64 2318.05Z" fill="#051832"/>
<path d="M979.252 1664.81V2086.09C979.252 2127.63 952.399 2165.47 910.199 2183.39L755.507 2249.09C745.403 2253.39 748.846 2266.87 760.048 2266.87H1185.08C1204.19 2266.87 1223.07 2263.11 1240.35 2255.87L1411.75 2184.05C1454.25 2166.24 1481.37 2128.24 1481.37 2086.51V1664.81C1481.37 1663.08 1479.8 1661.69 1477.85 1661.69H982.772C980.826 1661.69 979.252 1663.08 979.252 1664.81Z" fill="white"/>
<path d="M982.172 1664.84V2086.09C982.172 2128.55 954.372 2167.8 911.345 2186.08L756.652 2251.79C752.935 2253.36 752.099 2256.33 752.556 2258.57C753.1 2261.24 755.627 2263.93 760.048 2263.93H1185.08C1203.68 2263.93 1222.4 2260.21 1239.21 2253.16L1410.61 2181.35C1451.83 2164.08 1478.45 2126.85 1478.45 2086.51V1664.81C1478.43 1664.79 1478.23 1664.61 1477.85 1664.61H982.772C982.425 1664.61 982.225 1664.77 982.172 1664.84ZM1185.08 2269.79H760.048C752.323 2269.79 747.839 2264.75 746.821 2259.75C745.665 2254.07 748.628 2248.84 754.363 2246.4L909.052 2180.69C949.919 2163.33 976.319 2126.2 976.319 2086.09V1664.81C976.319 1661.48 979.212 1658.76 982.772 1658.76H1477.85C1481.41 1658.76 1484.31 1661.48 1484.31 1664.81V2086.51C1484.31 2129.23 1456.27 2168.56 1412.88 2186.75L1241.48 2258.56C1223.95 2265.91 1204.45 2269.79 1185.08 2269.79Z" fill="#051832"/>
<path d="M70.0625 1903.08L2217.27 1905C2236.04 1905 2251.84 1892.32 2254.23 1873.76L2425.61 539.72C2429.77 507.36 2406.07 476.8 2373.35 476.8L2282.92 477.107L1255.39 552.974L253.591 484.174L70.0625 1903.08Z" fill="#051832"/>
<path d="M73.3934 1900.16L2217.27 1902.07C2234.87 1902.07 2249.19 1890.01 2251.33 1873.39L2422.71 539.347C2424.71 523.72 2419.97 508.08 2409.72 496.4C2400.25 485.64 2387.33 479.72 2373.35 479.72L2282.93 480.04L1255.6 555.893C1255.47 555.907 1255.32 555.907 1255.19 555.893L256.141 487.28L73.3934 1900.16ZM2217.27 1907.92L70.0601 1906.01C69.2201 1906.01 68.4201 1905.65 67.8641 1905.01C67.3094 1904.39 67.0521 1903.55 67.1614 1902.71L250.689 483.8C250.888 482.253 252.248 481.16 253.792 481.253L1255.39 550.04L2282.71 474.187L2373.33 473.867C2389.04 473.867 2403.52 480.493 2414.11 492.547C2425.48 505.467 2430.73 522.8 2428.51 540.093L2257.13 1874.13C2254.61 1893.71 2237.85 1907.92 2217.27 1907.92Z" fill="#051832"/>
<path d="M52.2577 1901.15H2156.32C2175.08 1901.15 2190.92 1887.21 2193.32 1868.59L2366.01 547.08C2370.73 510.467 2342.24 478.04 2305.36 478.04L225.668 481.413C206.912 481.413 191.074 495.347 188.672 513.96L15.2617 1859.04C12.383 1881.37 29.7617 1901.15 52.2577 1901.15Z" fill="white"/>
<path d="M2305.36 480.96L225.674 484.334C208.439 484.334 193.782 497.24 191.578 514.347L18.1659 1859.41C16.9019 1869.23 19.9219 1879.12 26.4539 1886.55C32.9779 1893.96 42.3846 1898.23 52.2592 1898.23H2156.32C2173.56 1898.23 2188.21 1885.32 2190.41 1868.21L2363.11 546.707C2365.25 530.08 2360.13 513.32 2349.07 500.734C2338.01 488.174 2322.08 480.96 2305.36 480.96ZM2156.32 1904.08H52.2592C40.7006 1904.08 29.6939 1899.09 22.0579 1890.41C14.4152 1881.72 10.8819 1870.15 12.3619 1858.67L185.773 513.587C188.351 493.574 205.503 478.48 225.67 478.48L2305.35 475.107C2323.76 475.107 2341.29 483.04 2353.47 496.88C2365.64 510.72 2371.28 529.16 2368.92 547.454L2196.21 1868.97C2193.64 1888.99 2176.48 1904.08 2156.32 1904.08Z" fill="#051832"/>
<path d="M271.612 533.333C255.181 533.333 241.213 544.8 239.121 560.013L73.2387 1766.51C72.0854 1774.89 74.5974 1783.12 80.3107 1789.67C86.564 1796.84 95.8294 1800.95 105.728 1800.95H2118.47C2134.91 1800.95 2148.87 1789.48 2150.96 1774.28L2313.52 591.946C2315.49 577.653 2311.21 563.64 2301.48 552.48C2290.87 540.32 2275.17 533.333 2258.39 533.333H271.612ZM2118.47 1806.81H105.728C94.1374 1806.81 83.264 1801.96 75.9 1793.52C69.0574 1785.67 66.0534 1775.8 67.44 1765.71L233.323 559.213C235.811 541.12 252.272 527.48 271.612 527.48H2258.39C2276.87 527.48 2294.17 535.187 2305.89 548.64C2316.75 561.08 2321.52 576.746 2319.32 592.746L2156.76 1775.08C2154.28 1793.16 2137.81 1806.81 2118.47 1806.81Z" fill="#051832"/>
<path d="M699.064 583.92C699.576 574.68 696.449 565.627 690.353 558.68C674.479 540.56 638.04 510.453 577.317 521.32C492.284 536.56 445.219 603.027 426.324 667.147C365.473 873.64 138.189 792.067 44.7332 916.067C-31.7961 1017.61 19.0118 1270.52 195.883 1253.6C372.752 1236.67 606.596 924.4 606.596 924.4L691.629 717.92L699.064 583.92Z" fill="black"/>
<path d="M202.56 1162.51L182.559 1128.91C182.559 1128.91 338.192 946.026 476.636 916.173L647.364 955.546C647.364 955.546 725.084 977.133 761.335 1025.65C797.587 1074.17 845.823 1183.6 845.823 1183.6L808.212 1200.44L851.339 1577.39C851.339 1577.39 757.585 1648.31 671.332 1657.64C585.077 1666.96 416.32 1676.29 335.692 1730.41C335.692 1730.41 240.061 1653.91 234.437 1618.44C234.437 1618.44 322.565 1305.57 202.56 1162.51Z" fill="#008080"/>
<path d="M237.43 1618.6C243.344 1650.28 323.282 1716.53 335.863 1726.79C407.159 1680.25 543.318 1667.15 633.676 1658.45C647.131 1657.16 659.839 1655.93 671.015 1654.72C749.939 1646.19 836.506 1584.63 848.238 1576.04L805.303 1200.77C805.158 1199.51 805.85 1198.29 807.015 1197.77L841.958 1182.12C834.324 1165.11 791.498 1070.92 758.987 1027.41C723.743 980.24 647.347 958.573 646.579 958.373L476.614 919.173C347.679 947.413 201.795 1111.29 186.152 1129.23L204.952 1160.8C267.435 1235.47 272.868 1356.19 266.418 1444.33C259.78 1535.05 239.55 1610.84 237.43 1618.6ZM335.69 1733.33C335.04 1733.33 334.392 1733.12 333.86 1732.69C329.919 1729.55 237.28 1655.07 231.544 1618.91C231.478 1618.49 231.502 1618.07 231.618 1617.65C232.494 1614.53 317.944 1304.61 200.316 1164.39C200.215 1164.27 200.124 1164.13 200.043 1164L180.042 1130.41C179.4 1129.33 179.515 1127.97 180.327 1127.01C181.89 1125.17 338.196 943.026 476.015 913.32C476.438 913.226 476.871 913.226 477.29 913.32L648.019 952.693C651.358 953.613 727.247 975.146 763.678 1023.91C799.711 1072.13 848.016 1181.32 848.499 1182.43C849.147 1183.89 848.486 1185.61 847.016 1186.28L811.361 1202.24L854.245 1577.07C854.361 1578.09 853.928 1579.11 853.101 1579.73C852.159 1580.44 757.707 1651.23 671.644 1660.55C660.434 1661.76 647.71 1662.99 634.238 1664.28C543.696 1672.99 406.872 1686.16 337.32 1732.84C336.826 1733.17 336.256 1733.33 335.69 1733.33Z" fill="black"/>
<path d="M275.482 1651.05C275.482 1651.05 216.814 1686.32 180.25 1803.88H681.835L671.33 1657.64L275.482 1651.05Z" fill="#051832"/>
<path d="M335.692 1733.33C335.043 1733.33 334.395 1733.12 333.863 1732.69C333.577 1732.47 305.105 1709.63 278.575 1683.45C277.423 1682.32 277.412 1680.47 278.547 1679.31C279.684 1678.16 281.535 1678.15 282.687 1679.28C305.341 1701.64 329.433 1721.55 335.865 1726.79C407.16 1680.25 543.32 1667.15 633.679 1658.45C647.135 1657.16 659.841 1655.93 671.017 1654.72C699.241 1651.67 731.311 1641.61 766.332 1624.84C767.791 1624.15 769.539 1624.75 770.236 1626.21C770.935 1627.67 770.319 1629.41 768.861 1630.12C733.24 1647.19 700.532 1657.41 671.647 1660.55C660.436 1661.76 647.712 1662.99 634.24 1664.28C543.7 1672.99 406.875 1686.16 337.323 1732.84C336.828 1733.17 336.259 1733.33 335.692 1733.33Z" fill="#051832"/>
<path d="M697.067 1325.87C696.986 1325.87 696.903 1325.85 696.819 1325.85C695.208 1325.72 694.012 1324.31 694.147 1322.69L704.147 1203.27C704.282 1201.65 705.699 1200.44 707.307 1200.59C708.918 1200.72 710.115 1202.13 709.98 1203.75L699.98 1323.17C699.852 1324.71 698.574 1325.87 697.067 1325.87Z" fill="#051832"/>
<path d="M694.339 1466.55C672.823 1471.91 587.953 1452.2 582.574 1446.85C582.574 1446.85 630.983 1436.48 642.413 1428.45C653.843 1420.43 657.205 1412.4 655.187 1405.04C653.17 1397.68 570.305 1408.92 550.807 1415.61C531.307 1422.31 508.617 1438.83 491.137 1444.17C487.237 1445.37 475.29 1447.09 458.418 1448.85C458.793 1445.76 248.009 1453.56 191.207 1436.36C191.207 1436.36 287.189 1338.17 344.769 1283.93C355.69 1273.64 358.487 1257.39 351.559 1244.09C308.927 1162.35 241.497 1149.05 209.382 1147.65C150.546 1228.33 92.442 1322.88 64.5354 1364.61C10.3514 1445.64 -20.3873 1543.96 25.83 1559.17C137.663 1596 476.662 1535.61 493.154 1537.17C535.51 1541.2 586.61 1559.27 613.501 1553.91C640.394 1548.56 742.691 1518.25 755.191 1488.39C764.949 1465.08 715.855 1461.2 694.339 1466.55Z" fill="white"/>
<path d="M455.515 1448.49C455.514 1448.51 455.514 1448.51 455.514 1448.51L455.515 1448.49ZM455.514 1448.51C455.513 1448.52 455.513 1448.52 455.513 1448.52L455.514 1448.51ZM455.51 1448.53C455.51 1448.53 455.51 1448.53 455.51 1448.55V1448.53ZM210.818 1150.65C168.887 1208.27 127.393 1272.77 97.0339 1319.96C85.1179 1338.49 74.8272 1354.48 66.9685 1366.24C21.4392 1434.32 -2.3888 1505.01 9.0232 1538.16C12.2192 1547.44 18.1832 1553.57 26.7472 1556.4C114.125 1585.17 345.056 1553.64 443.668 1540.17C475.51 1535.83 489.73 1533.91 493.431 1534.27C510.53 1535.89 528.891 1539.75 546.646 1543.48C572.738 1548.96 597.379 1554.13 612.93 1551.04C642.611 1545.13 740.999 1514.72 752.493 1487.27C754.189 1483.21 753.839 1480 751.396 1477.15C742.606 1466.91 711.151 1465.39 695.047 1469.39C695.047 1469.39 695.047 1469.39 695.046 1469.39C672.452 1475.01 586.636 1455.03 580.512 1448.93C579.751 1448.17 579.464 1447.07 579.768 1446.03C580.071 1445 580.913 1444.21 581.963 1444C595.267 1441.15 631.758 1432.36 640.731 1426.05C649.998 1419.55 653.96 1412.95 652.518 1406.44C643.903 1402.43 570.633 1411.91 551.758 1418.39C542.386 1421.6 532.055 1427.25 522.066 1432.72C511.307 1438.61 501.146 1444.17 491.995 1446.97C487.826 1448.25 475.699 1450 458.723 1451.76C458.11 1451.81 457.521 1451.69 457.001 1451.41C453.475 1450.87 434.414 1450.92 412.466 1450.96C344.497 1451.13 230.714 1451.37 190.361 1439.16C189.381 1438.85 188.627 1438.07 188.373 1437.08C188.118 1436.09 188.401 1435.04 189.117 1434.31C190.075 1433.33 285.799 1335.47 342.763 1281.8C352.695 1272.44 355.246 1257.49 348.966 1245.45C308.359 1167.59 245.643 1152.52 210.818 1150.65ZM134.673 1573.93C90.2632 1573.93 51.2712 1570.64 24.9152 1561.96C14.5219 1558.53 7.3112 1551.17 3.48853 1540.07C-10.4768 1499.51 24.0819 1419.84 62.1032 1362.99C69.9325 1351.28 80.2099 1335.29 92.1112 1316.8C122.733 1269.2 164.67 1204 207.018 1145.93C207.595 1145.13 208.529 1144.65 209.51 1144.73C245.255 1146.29 311.577 1161.09 354.157 1242.75C361.641 1257.11 358.607 1274.91 346.778 1286.05C296.073 1333.84 214.563 1416.72 196.789 1434.84C240.263 1445.51 351.586 1445.25 412.453 1445.11C447.273 1445.04 456.103 1445.11 458.965 1445.85C477.687 1443.89 487.414 1442.25 490.279 1441.37C498.861 1438.75 508.769 1433.33 519.257 1427.59C529.462 1422 540.013 1416.23 549.858 1412.84C567.87 1406.67 644.38 1395.52 655.556 1401.43C657.175 1402.28 657.785 1403.44 658.01 1404.27C659.773 1410.69 658.79 1420.52 644.095 1430.84C635.274 1437.04 606.629 1444.31 591.958 1447.73C613.658 1454.67 675.548 1468.2 693.634 1463.71C711.328 1459.31 745.164 1460.89 755.839 1473.33C758.546 1476.49 761.098 1481.87 757.891 1489.52C744.662 1521.12 640.791 1551.47 614.074 1556.77C597.351 1560.11 572.136 1554.81 545.443 1549.2C527.844 1545.51 509.649 1541.68 492.879 1540.09C489.715 1539.84 469.745 1542.52 444.461 1545.97C374.878 1555.47 239.669 1573.93 134.673 1573.93Z" fill="#051832"/>
<path d="M820.821 1173.65C820.821 1173.65 857.601 1243.96 897.801 1303.52C913.201 1326.33 943.787 1333.04 967.414 1318.93C995.521 1302.15 1029.53 1280.53 1048.23 1263.89C1083.85 1232.17 1153.28 1158.23 1171.97 1131.4C1205.84 1082.83 1181.8 1082.25 1196.87 1031.53C1204.11 1007.2 1209.99 941.253 1220.85 938.333C1238.63 933.56 1261.07 959.786 1256.47 1011.29C1252.68 1053.6 1273.64 1065.55 1279.19 1086.45C1288.44 1121.28 1288.05 1139.12 1288.05 1139.12C1288.05 1139.12 1068.61 1408.92 965.507 1490.79C933.934 1515.85 890.787 1520.93 853.933 1504.48L826.338 1492.17L790.086 1169.96L820.821 1173.65Z" fill="white"/>
<path d="M829.058 1490.19L855.127 1501.81C891.375 1517.99 932.974 1512.88 963.681 1488.49C1062.57 1409.99 1271.69 1154.55 1285.12 1138.09C1285.04 1133.95 1284.19 1116.67 1276.36 1087.2C1274.65 1080.77 1271.27 1075.03 1267.69 1068.96C1259.83 1055.6 1250.92 1040.47 1253.55 1011.04C1256.69 975.84 1246.87 954.093 1236.61 945.48C1231.76 941.4 1226.44 939.867 1221.61 941.16C1216.36 942.573 1210.59 975.813 1207.13 995.667C1204.63 1010.08 1202.25 1023.69 1199.68 1032.37C1193.69 1052.52 1194 1064.47 1194.28 1075C1194.71 1090.89 1195.04 1103.44 1174.37 1133.08C1155.91 1159.57 1087.41 1232.92 1050.17 1266.08C1030.88 1283.25 995.334 1305.67 968.908 1321.44C943.921 1336.37 911.614 1329.23 895.374 1305.16C858.612 1250.69 824.305 1186.49 818.948 1176.37L793.408 1173.31L829.058 1490.19ZM898.681 1517C883.188 1517 867.542 1513.76 852.742 1507.16L825.146 1494.85C824.198 1494.43 823.545 1493.53 823.429 1492.51L787.179 1170.29C787.079 1169.4 787.39 1168.52 788.025 1167.89C788.66 1167.25 789.538 1166.95 790.436 1167.05L821.169 1170.75C822.126 1170.85 822.966 1171.44 823.414 1172.29C823.781 1173 860.583 1243.15 900.228 1301.88C914.721 1323.37 943.574 1329.76 965.908 1316.43C992.121 1300.77 1027.33 1278.57 1046.28 1261.71C1082.52 1229.44 1151.65 1155.43 1169.57 1129.72C1189.13 1101.67 1188.84 1090.55 1188.44 1075.16C1188.15 1064.19 1187.81 1051.73 1194.07 1030.71C1196.55 1022.35 1198.88 1008.91 1201.36 994.667C1208.07 956.08 1212.11 937.653 1220.09 935.507C1226.81 933.693 1234.01 935.653 1240.37 941C1255.12 953.387 1262.23 979.76 1259.37 1011.56C1256.92 1039.11 1265.32 1053.39 1272.73 1065.99C1276.52 1072.41 1280.11 1078.49 1282.01 1085.71C1291.28 1120.53 1291 1138.44 1290.99 1139.19C1290.97 1139.84 1290.73 1140.47 1290.33 1140.97C1288.13 1143.67 1069.49 1411.96 967.321 1493.08C947.441 1508.87 923.241 1517 898.681 1517Z" fill="#051832"/>
<path d="M1344.6 1174.56C1323.08 1181.93 1298.6 1167.4 1290.03 1142.19L1157.27 753.28L1234.87 726.72L1367.83 1116.2C1376.31 1141.19 1365.93 1167.27 1344.6 1174.56Z" fill="#051832"/>
<path d="M1160.99 755.107L1292.8 1141.24C1297.09 1153.89 1305.87 1164.24 1316.85 1169.65C1325.61 1173.95 1335.12 1174.72 1343.65 1171.8C1363.4 1165.04 1373 1140.52 1365.05 1117.13L1233.05 730.44L1160.99 755.107ZM1333.07 1179.4C1326.76 1179.4 1320.35 1177.89 1314.27 1174.91C1301.89 1168.81 1292.05 1157.24 1287.27 1143.13L1154.51 754.227C1153.97 752.693 1154.8 751.027 1156.32 750.507L1233.92 723.96C1234.67 723.707 1235.47 723.76 1236.16 724.093C1236.85 724.44 1237.39 725.04 1237.64 725.787L1370.59 1115.25C1379.57 1141.69 1368.33 1169.53 1345.55 1177.33C1341.52 1178.72 1337.32 1179.4 1333.07 1179.4Z" fill="#051832"/>
<path d="M1221.13 391L970.135 570.107L872.361 671.546L834.008 739.427L833.751 739.96C826.208 751.707 830.512 778.787 844.784 806.333C858.899 833.56 878.577 852.44 892.535 853.52L892.108 853.733L965.908 861.667L1103.93 839.613L1396.93 734.827L1761.08 797.213L1763.65 797.293C1671.89 780.533 1548.44 658.28 1458.77 485.267C1369.21 312.453 1340.65 141.653 1379.93 57.44L1379.85 57.3999L1223.15 386.773L1221.13 391Z" fill="white"/>
<path d="M1785.4 317.613C1896.68 532.346 1913.77 743.946 1823.59 790.24C1733.39 836.533 1570.05 699.986 1458.77 485.266C1347.48 270.533 1330.39 58.9197 1420.59 12.6264C1510.77 -33.667 1674.11 102.88 1785.4 317.613Z" fill="white"/>
<path d="M1459.93 6.47987C1446.2 6.47987 1433.45 9.31981 1421.92 15.2265C1400.77 26.0931 1385.28 46.5334 1375.86 75.9734C1346.69 167.293 1380.25 327.413 1461.37 483.92C1571.73 696.88 1733.65 833.133 1822.24 787.64C1843.4 776.787 1858.89 756.347 1868.29 726.893C1897.46 635.587 1863.9 475.453 1782.8 318.96C1686.78 133.693 1551.77 6.47987 1459.93 6.47987ZM1784.34 802.227C1745.17 802.227 1697.97 780.32 1647.21 737.88C1578.01 680.04 1510.17 590.8 1456.17 486.613C1374.38 328.8 1340.66 166.92 1370.29 74.1999C1380.2 43.2132 1396.66 21.6131 1419.25 10.0265C1463.98 -12.9335 1527.09 6.58664 1596.96 64.9866C1666.16 122.84 1734 212.067 1788 316.267C1869.78 474.08 1903.49 635.96 1873.88 728.68C1863.97 759.666 1847.5 781.253 1824.92 792.84C1812.69 799.12 1799.08 802.227 1784.34 802.227Z" fill="black"/>
<path d="M1784.34 802.227C1745.17 802.227 1697.97 780.32 1647.21 737.88C1578.01 680.04 1510.17 590.8 1456.17 486.613C1374.38 328.8 1340.66 166.92 1370.29 74.1999C1380.2 43.2132 1396.66 21.6131 1419.25 10.0265C1449.3 -5.40019 1488.48 -1.56013 1532.52 21.1465C1574.77 42.9065 1620.57 81.4131 1665 132.493C1666.06 133.72 1665.93 135.573 1664.72 136.626C1663.49 137.68 1661.65 137.56 1660.58 136.347C1570.24 32.4532 1478.77 -13.9469 1421.92 15.2265C1400.77 26.0931 1385.28 46.5334 1375.86 75.9734C1346.69 167.293 1380.25 327.413 1461.37 483.92C1557.38 669.173 1692.4 796.387 1784.22 796.4C1797.96 796.4 1810.72 793.56 1822.24 787.64C1843.4 776.787 1858.89 756.347 1868.29 726.893C1897.46 635.587 1863.9 475.453 1782.8 318.96C1758.61 272.28 1731.5 228.413 1702.25 188.56C1701.29 187.266 1701.57 185.427 1702.88 184.48C1704.17 183.52 1706.01 183.8 1706.96 185.107C1736.4 225.187 1763.66 269.32 1788 316.267C1869.78 474.08 1903.49 635.96 1873.88 728.68C1863.97 759.666 1847.5 781.253 1824.92 792.84C1812.69 799.12 1799.08 802.227 1784.34 802.227Z" fill="#051832"/>
<path d="M1610.81 407.52C1636.59 457.227 1640.55 506.226 1619.65 516.946C1598.77 527.666 1560.95 496.053 1535.19 446.333C1509.41 396.613 1505.45 347.613 1526.35 336.893C1547.23 326.173 1585.05 357.8 1610.81 407.52Z" fill="white"/>
<path d="M1535.44 337.72C1532.62 337.72 1530.02 338.307 1527.68 339.507C1523.33 341.733 1520.12 346.027 1518.13 352.253C1511.55 372.853 1519.27 409.253 1537.79 444.987C1562.35 492.373 1599.23 524.133 1618.32 514.346C1622.67 512.106 1625.88 507.826 1627.87 501.6C1634.45 480.986 1626.73 444.586 1608.21 408.866C1586.66 367.28 1555.62 337.72 1535.44 337.72ZM1610.63 521.96C1587.71 521.96 1555.75 492.36 1532.59 447.68C1513.39 410.626 1505.52 372.48 1512.56 350.466C1515.04 342.706 1519.23 337.266 1525 334.293C1547.68 322.653 1586.49 354.24 1613.41 406.173C1632.61 443.213 1640.46 481.36 1633.44 503.373C1630.96 511.147 1626.77 516.586 1621 519.56C1617.83 521.173 1614.35 521.96 1610.63 521.96Z" fill="#051832"/>
<path d="M1764.04 752.427C1729.68 752.427 1688.31 733.24 1643.83 696.053C1583.25 645.413 1523.87 567.307 1476.61 476.12C1405.01 337.973 1375.52 196.24 1401.45 115.04C1410.15 87.84 1424.61 68.8798 1444.47 58.6931C1490.03 35.3064 1557.16 62.2399 1628.64 132.587C1629.8 133.72 1629.81 135.573 1628.68 136.72C1627.55 137.867 1625.69 137.88 1624.55 136.746C1554.96 68.2931 1490.29 41.7464 1447.15 63.8931C1428.73 73.3464 1415.24 91.1598 1407.04 116.826C1381.55 196.613 1410.89 336.586 1481.81 473.426C1565.75 635.373 1683.71 746.6 1763.89 746.613C1775.85 746.613 1786.97 744.133 1797.03 738.973C1815.44 729.52 1828.93 711.72 1837.13 686.053C1862.63 606.253 1833.27 466.28 1762.36 329.44C1740.95 288.147 1716.95 249.36 1691.03 214.213C1690.07 212.906 1690.35 211.067 1691.64 210.107C1692.95 209.16 1694.77 209.427 1695.73 210.733C1721.84 246.133 1746 285.173 1767.56 326.76C1839.15 464.906 1868.65 606.627 1842.71 687.827C1834.01 715.04 1819.55 734 1799.69 744.187C1788.95 749.707 1776.99 752.427 1764.04 752.427Z" fill="#051832"/>
<path d="M894.014 851L965.828 858.72L1103.2 836.76L1395.95 732.066C1396.41 731.893 1396.93 731.853 1397.43 731.933L1724.61 788C1636.2 749.213 1532.87 634.613 1456.17 486.613C1380.04 339.693 1346.03 190.466 1364.65 96.1596L1223.77 392.253C1223.56 392.706 1223.24 393.093 1222.84 393.386L972.055 572.333L874.727 673.306L836.388 741.226C836.336 741.333 836.278 741.44 836.213 741.546C829.252 752.373 833.949 779.053 847.383 804.986C860.556 830.4 879.641 849.586 892.761 850.6C893.215 850.64 893.641 850.773 894.014 851ZM965.908 864.6C965.801 864.6 965.694 864.586 965.601 864.573L891.801 856.64C891.361 856.6 890.948 856.453 890.588 856.226C875.355 853.786 856.148 834.613 842.185 807.68C827.446 779.24 823.044 751.493 831.189 738.533L831.372 738.16L869.813 670.106C869.934 669.893 870.084 669.693 870.253 669.52L968.028 568.066C968.148 567.946 968.281 567.826 968.428 567.72L1218.81 389.053L1377.21 56.1463C1377.55 55.4263 1378.16 54.8796 1378.91 54.6262C1379.64 54.3729 1380.45 54.4264 1381.16 54.7731C1382.59 55.4931 1383.25 57.2397 1382.59 58.6663C1342.47 144.693 1374.13 315.586 1461.37 483.92C1548.75 652.52 1670.44 777.293 1764.17 794.413C1765.68 794.68 1766.72 796.066 1766.56 797.586C1766.4 799.106 1765.09 800.146 1763.57 800.213L1761 800.146C1760.85 800.133 1760.72 800.12 1760.59 800.106L1397.2 737.84L1104.92 842.373C1104.75 842.426 1104.57 842.48 1104.4 842.506L966.374 864.56C966.214 864.586 966.068 864.6 965.908 864.6Z" fill="#051832"/>
<path d="M1221.61 390L1379.85 57.3997L1379.93 57.4398C1340.65 141.653 1369.21 312.453 1458.77 485.266C1548.44 658.28 1671.89 780.533 1763.65 797.293L1761.08 797.213L1397.53 734.92L1389.11 733.52C1346.85 726.053 1290.39 671.066 1250.01 592.733C1208.57 512.32 1201.25 432.146 1219.6 394.053L1221.61 390Z" fill="white"/>
<path d="M1364.65 96.1595L1224.25 391.266C1224.24 391.28 1224.24 391.293 1224.23 391.306L1222.23 395.346C1205.28 430.56 1210.27 509.213 1252.61 591.386C1291.64 667.106 1346.69 723.066 1389.61 730.64L1398.01 732.04L1724.61 788C1636.2 749.213 1532.87 634.613 1456.17 486.613C1380.04 339.693 1346.03 190.466 1364.65 96.1595ZM1763.65 800.213C1763.63 800.213 1763.6 800.213 1763.57 800.213L1761 800.146C1760.85 800.133 1760.72 800.12 1760.59 800.106L1397.04 737.813L1388.63 736.4C1343.97 728.52 1287.23 671.333 1247.41 594.066C1202.17 506.293 1199.91 428.2 1216.96 392.786L1218.97 388.72L1377.21 56.1463C1377.55 55.4263 1378.16 54.8795 1378.91 54.6262C1379.64 54.3729 1380.45 54.4264 1381.16 54.7731C1382.59 55.4931 1383.25 57.2397 1382.59 58.6663C1342.47 144.693 1374.13 315.586 1461.37 483.92C1548.75 652.52 1670.44 777.293 1764.17 794.413C1765.68 794.68 1766.72 796.066 1766.56 797.586C1766.4 799.08 1765.15 800.213 1763.65 800.213Z" fill="#051832"/>
<path d="M961.934 864.173C961.828 864.173 961.721 864.16 961.614 864.146L891.801 856.64C891.361 856.6 890.948 856.453 890.588 856.226C875.355 853.786 856.148 834.613 842.185 807.68C827.446 779.24 823.044 751.493 831.189 738.533L831.372 738.16L869.813 670.106C870.609 668.706 872.396 668.213 873.801 669C875.208 669.8 875.704 671.587 874.909 672.987L836.388 741.226C836.336 741.333 836.278 741.44 836.213 741.546C829.252 752.373 833.949 779.053 847.383 804.987C860.556 830.4 879.641 849.586 892.761 850.6C893.215 850.64 893.641 850.773 894.014 851L962.241 858.333C963.854 858.506 965.014 859.946 964.841 861.56C964.681 863.053 963.401 864.173 961.934 864.173Z" fill="black"/>
<path d="M966.548 861.267C943.841 859.653 912.148 827.507 889.121 783.093C864.743 736.04 859.021 687.36 873.935 670.027L834.008 739.427L833.751 739.96C826.208 751.707 830.512 778.787 844.784 806.333C858.899 833.56 878.577 852.44 892.535 853.52L892.108 853.733L966.548 861.267Z" fill="white"/>
<path d="M894.001 850.987L944.948 856.133C925.308 843.666 903.761 817.706 886.534 784.44C869.862 752.28 861.56 718.986 862.948 695L836.388 741.227C836.336 741.333 836.278 741.44 836.213 741.546C829.252 752.373 833.949 779.053 847.383 804.987C860.556 830.4 879.641 849.586 892.761 850.6C893.215 850.64 893.628 850.773 894.001 850.987ZM966.548 864.187C966.481 864.187 966.414 864.187 966.348 864.187C965.774 864.147 965.201 864.08 964.614 864.013L891.814 856.64C891.374 856.6 890.961 856.453 890.588 856.226C875.355 853.786 856.148 834.613 842.185 807.68C827.446 779.24 823.044 751.493 831.189 738.533L831.372 738.16L866.47 677.133C867.832 673.64 869.577 670.613 871.717 668.12C872.701 666.973 874.395 666.773 875.627 667.64C876.859 668.52 877.224 670.187 876.472 671.493L871.6 679.96C863.727 701.16 871.524 742.773 891.721 781.746C913.775 824.306 943.721 855.347 965.241 858.187L966.841 858.346C968.441 858.52 969.601 859.92 969.468 861.52C969.334 863.04 968.054 864.187 966.548 864.187Z" fill="black"/>
<path d="M1098.89 840.413L1104.75 839.253C1072.97 845.867 1022.87 797.973 987.493 729.72C951.427 660.12 944.547 590.613 970.133 570.107L966.867 573.493L874.191 669.733C858.956 686.8 864.601 735.773 889.12 783.093C912.787 828.76 946.227 861.227 969 861.107L1098.89 840.413Z" fill="#051832"/>
<path d="M955.122 589.92L876.3 671.773C861.584 688.253 868.326 736.6 891.722 781.746C914.655 826 947.015 858.08 968.775 858.173L1083.41 839.92C1052.48 829.026 1014.32 787.84 984.895 731.066C956.948 677.146 946.215 622.16 955.122 589.92ZM968.882 864.026C944.668 864.026 910.828 831.346 886.535 784.44C861.68 736.493 855.439 686.346 872.008 667.786L962.895 573.4C964.522 571.28 966.322 569.413 968.308 567.826C969.508 566.853 971.255 566.986 972.295 568.133C973.335 569.28 973.308 571.026 972.242 572.133L966.975 577.6C948.455 602.453 957.682 665.826 990.095 728.373C1025.08 795.866 1073.81 842.173 1103.75 836.466L1104.17 836.386C1105.75 836.053 1107.29 837.08 1107.61 838.666C1107.93 840.24 1106.92 841.786 1105.33 842.12C1105.19 842.146 1105.04 842.173 1104.88 842.2L1099.47 843.293C1099.44 843.293 1099.4 843.306 1099.36 843.306L969.468 863.986C969.268 864.013 969.068 864.026 968.882 864.026Z" fill="black"/>
<path d="M1526.35 336.893C1505.45 347.613 1508.53 397.08 1535.19 446.333C1579.88 528.92 1615.41 519.146 1619.59 517.64C1619.67 517.613 1619.71 517.72 1619.64 517.773L1542.91 579.52C1520.41 547.906 1498.88 512.733 1479.21 474.773C1460.35 438.387 1444.59 402.093 1432 366.946L1526.35 336.893Z" fill="#051832"/>
<path d="M1435.77 368.813C1448.41 403.666 1463.89 438.84 1481.81 473.426C1500.51 509.493 1521.24 543.746 1543.49 575.293L1610.04 521.733C1594.79 521 1566.15 509.68 1532.61 447.72C1513.19 411.826 1505.17 373.946 1512.23 351.2C1513.13 348.266 1514.25 345.666 1515.61 343.386L1435.77 368.813ZM1542.91 582.453C1542.77 582.453 1542.64 582.44 1542.51 582.413C1541.71 582.306 1540.99 581.88 1540.52 581.226C1517.43 548.746 1495.93 513.386 1476.61 476.12C1458.08 440.36 1442.15 403.96 1429.24 367.933C1428.97 367.186 1429.01 366.36 1429.37 365.64C1429.72 364.933 1430.35 364.4 1431.11 364.146L1525.45 334.106C1526.91 333.653 1528.47 334.373 1529.05 335.786C1529.63 337.186 1529.03 338.813 1527.68 339.506C1523.17 341.813 1519.85 346.333 1517.81 352.933C1511.32 373.92 1519.33 410.893 1537.76 444.946C1581.36 525.493 1614.91 516.213 1618.6 514.893C1619.92 514.413 1621.48 514.973 1622.19 516.2C1622.92 517.44 1622.61 519.12 1621.49 520.04L1544.75 581.8C1544.23 582.226 1543.57 582.453 1542.91 582.453Z" fill="#051832"/>
<path d="M1321.03 910.773C1310.48 912.853 1280.99 931.053 1282.57 979.507C1283.57 1009.8 1305.76 1023.08 1322.25 1028.77C1333.75 1032.75 1342.84 1041.68 1346.56 1053.24L1355.36 1080.57C1355.36 1080.57 1413.63 892.507 1321.03 910.773Z" fill="white"/>
<path d="M1333.07 912.426C1329.52 912.426 1325.69 912.84 1321.6 913.64C1313.56 915.226 1283.92 931.026 1285.51 979.413C1286.43 1007.48 1306.52 1020.24 1323.21 1026.01C1335.65 1030.31 1345.43 1040.16 1349.35 1052.35L1355.19 1070.49C1363.07 1041.55 1384.31 952.6 1357.15 922.426C1351.13 915.733 1343.2 912.426 1333.07 912.426ZM1355.36 1083.51C1354.09 1083.51 1352.96 1082.68 1352.57 1081.48L1343.77 1054.15C1340.36 1043.53 1332.17 1035.31 1321.31 1031.55C1295.25 1022.55 1280.45 1004.09 1279.65 979.613C1278.08 931.813 1306.47 910.666 1320.47 907.893C1338.21 904.4 1352.03 907.973 1361.51 918.506C1396.16 957.026 1359.72 1076.39 1358.16 1081.44C1357.77 1082.67 1356.65 1083.49 1355.37 1083.51H1355.36Z" fill="#051832"/>
<path d="M481.613 920.013C481.613 920.013 522.215 939.747 546.764 977.333C571.313 1014.92 644.961 1071.29 662.9 1065.67C680.84 1060.03 665.733 1021.49 658.18 996.12C650.627 970.76 629.955 952.693 629.955 952.693C629.955 952.693 647.793 903.573 659.124 873.973C664.769 859.226 669.329 843.68 672.392 832.213C674.972 822.56 684.468 816.453 694.384 818.013C712.121 820.813 738.401 823.547 749.767 817.587C762.7 810.813 759.931 770.947 757.376 749.227C756.365 740.64 758.583 731.933 763.692 724.933C766.309 721.347 769.341 714.306 770.192 711.48C770.192 711.48 769.241 708 752.245 694.613C735.249 681.213 733.148 657.707 731.356 650.56C720.733 608.28 698.78 579.733 685.325 571.626C685.325 571.626 669.747 673.813 633.631 693.546C633.631 693.546 618.759 704.12 592.557 687.92C592.557 687.92 569.189 679.453 560.691 697.787C552.193 716.107 579.103 749.933 567.772 794.333C562.097 816.573 527.88 906.853 481.613 920.013Z" fill="white"/>
<path d="M488.789 920.546C501.101 927.546 529.837 946.066 549.215 975.733C574.607 1014.61 646.867 1067.64 662.023 1062.87C663.999 1062.25 670.015 1060.36 667.991 1043.8C666.667 1032.97 662.405 1019.45 658.644 1007.52C657.485 1003.84 656.365 1000.29 655.375 996.96C648.147 972.68 628.228 955.066 628.028 954.893C627.119 954.106 626.789 952.826 627.203 951.693C627.381 951.2 645.181 902.213 656.389 872.92C662.125 857.946 666.72 842.106 669.563 831.466C672.536 820.333 683.397 813.306 694.841 815.133C721.261 819.293 740.287 819.24 748.409 815C756.52 810.746 758.787 786.293 754.471 749.573C753.361 740.146 755.797 730.786 761.328 723.213C763.413 720.346 765.867 714.906 766.981 711.84C765.78 710.266 761.937 705.973 750.436 696.906C735.047 684.786 731.183 664.786 729.327 655.173C729.02 653.6 728.767 652.28 728.517 651.28C718.737 612.346 699.571 586.48 687.451 576.72C683.88 597.293 667.959 677.96 635.157 696.053C633.268 697.293 617.493 706.64 591.297 690.573C588.733 689.72 570.237 684.146 563.347 699.013C560.128 705.946 562.885 716.12 566.377 729C571.217 746.853 577.24 769.066 570.608 795.053C566.164 812.48 534.839 900.586 488.789 920.546ZM660.313 1068.93C635.992 1068.93 566.835 1013.41 544.312 978.933C520.515 942.493 480.732 922.84 480.333 922.64C479.244 922.106 478.593 920.96 478.699 919.76C478.805 918.546 479.647 917.533 480.813 917.2C523.555 905.04 557.908 821.16 564.937 793.613C571.187 769.12 565.388 747.72 560.727 730.533C556.924 716.506 553.92 705.426 558.036 696.546C565.648 680.12 584.597 681.92 593.555 685.16C593.744 685.226 593.925 685.32 594.097 685.426C618.105 700.28 631.399 691.533 631.956 691.146C632.036 691.093 632.141 691.026 632.227 690.986C666.672 672.16 682.277 572.2 682.431 571.186C682.579 570.226 683.199 569.4 684.081 568.986C684.971 568.56 685.999 568.626 686.835 569.12C699.661 576.853 722.857 604.72 734.193 649.853C734.464 650.92 734.744 652.36 735.072 654.066C736.928 663.666 740.381 681.533 754.056 692.306C765.505 701.333 772.237 707.866 773.016 710.706C773.16 711.24 773.152 711.8 772.995 712.333C772.128 715.2 768.983 722.653 766.055 726.666C761.397 733.04 759.349 740.933 760.283 748.893C763.643 777.466 764.78 813.026 751.124 820.186C739.299 826.373 713.493 824 693.928 820.906C685.456 819.56 677.413 824.76 675.22 832.973C672.339 843.746 667.683 859.8 661.857 875.013C651.896 901.04 636.716 942.666 633.371 951.866C638.375 956.613 654.383 973.12 660.985 995.293C661.968 998.586 663.077 1002.11 664.227 1005.76C668.064 1017.93 672.413 1031.72 673.803 1043.09C675.535 1057.28 672.164 1065.81 663.777 1068.45C662.757 1068.77 661.597 1068.93 660.313 1068.93Z" fill="#051832"/>
<path d="M629.561 991.84C628.354 991.84 627.223 991.08 626.801 989.88C626.517 989.066 619.975 969.933 628.714 947.72C629.306 946.213 631.003 945.467 632.507 946.067C634.013 946.653 634.753 948.347 634.162 949.853C626.213 970.067 632.261 987.76 632.322 987.933C632.858 989.467 632.057 991.133 630.531 991.667C630.211 991.787 629.884 991.84 629.561 991.84Z" fill="black"/>
<path d="M604.665 766.36C585.315 766.36 569.059 746.68 562.137 733.867C561.37 732.44 561.898 730.666 563.321 729.906C564.735 729.133 566.514 729.653 567.286 731.08C567.508 731.493 589.687 771.707 616.299 757.427C617.721 756.653 619.499 757.186 620.262 758.613C621.026 760.04 620.494 761.813 619.069 762.573C614.149 765.226 609.315 766.36 604.665 766.36Z" fill="black"/>
<path d="M1628.65 873.827C1618.93 873.827 1610.89 881.56 1610.64 891.28C1610.52 896.066 1612.28 900.613 1615.59 904.093C1618.91 907.56 1623.39 909.547 1628.2 909.667C1628.36 909.68 1628.52 909.68 1628.67 909.68C1638.4 909.68 1646.44 901.933 1646.69 892.213C1646.81 887.426 1645.05 882.88 1641.74 879.413C1638.42 875.933 1633.95 873.947 1629.13 873.827C1628.97 873.827 1628.81 873.827 1628.65 873.827ZM1628.68 915.533C1628.46 915.533 1628.25 915.533 1628.05 915.52C1621.68 915.36 1615.74 912.733 1611.34 908.133C1606.96 903.52 1604.63 897.48 1604.79 891.133C1605.12 878.24 1615.77 867.973 1628.65 867.973C1628.87 867.973 1629.06 867.973 1629.28 867.973C1635.65 868.133 1641.58 870.76 1645.97 875.36C1650.37 879.973 1652.7 886.013 1652.54 892.36C1652.2 905.267 1641.56 915.533 1628.68 915.533Z" fill="#051832"/>
<path d="M1124.51 1522.88C1123.47 1522.88 1122.44 1522.31 1121.92 1521.32C1121.16 1519.89 1121.71 1518.12 1123.13 1517.36C1348.08 1397.75 1504.67 1314.45 1504.67 1314.45C1506.09 1313.69 1507.87 1314.24 1508.63 1315.67C1509.39 1317.09 1508.84 1318.87 1507.41 1319.63C1507.41 1319.63 1350.83 1402.91 1125.88 1522.53C1125.44 1522.77 1124.97 1522.88 1124.51 1522.88Z" fill="#051832"/>
<path d="M1343.32 1287.77C1342.28 1287.77 1341.27 1287.21 1340.73 1286.23C1339.97 1284.8 1340.52 1283.03 1341.95 1282.27C1617.75 1135.61 1820.76 1027.63 1820.76 1027.63C1822.19 1026.87 1823.96 1027.41 1824.72 1028.84C1825.48 1030.27 1824.93 1032.04 1823.51 1032.8C1823.51 1032.8 1620.49 1140.77 1344.69 1287.43C1344.27 1287.67 1343.79 1287.77 1343.32 1287.77Z" fill="#051832"/>
<path d="M1137.12 1839.92C1137.12 1828.68 1146.28 1819.57 1157.57 1819.57C1168.85 1819.57 1178.01 1828.68 1178.01 1839.92C1178.01 1851.15 1168.85 1860.25 1157.57 1860.25C1146.28 1860.25 1137.12 1851.15 1137.12 1839.92Z" fill="#051832"/>
<path d="M2084.23 1474.53C2084.23 1508.77 2056.47 1536.52 2022.24 1536.52C1988 1536.52 1960.25 1508.77 1960.25 1474.53C1960.25 1440.31 1988 1412.55 2022.24 1412.55C2056.47 1412.55 2084.23 1440.31 2084.23 1474.53Z" fill="white"/>
<path d="M2082.91 1644.65C2082.91 1678.88 2055.15 1706.63 2020.92 1706.63C1986.68 1706.63 1958.93 1678.88 1958.93 1644.65C1958.93 1610.41 1986.68 1582.67 2020.92 1582.67C2055.15 1582.67 2082.91 1610.41 2082.91 1644.65Z" fill="white"/>
<path d="M1956.8 1515.96H1956.35C1953.85 1515.96 1951.8 1513.92 1951.8 1511.41V1448.49C1951.8 1445.99 1953.85 1443.93 1956.35 1443.93H1956.8C1959.31 1443.93 1961.35 1445.99 1961.35 1448.49V1511.41C1961.35 1513.92 1959.31 1515.96 1956.8 1515.96Z" fill="white"/>
<path d="M1983.51 1521.84H1983.05C1980.55 1521.84 1978.51 1519.8 1978.51 1517.29V1454.37C1978.51 1451.87 1980.55 1449.81 1983.05 1449.81H1983.51C1986.01 1449.81 1988.05 1451.87 1988.05 1454.37V1517.29C1988.05 1519.8 1986.01 1521.84 1983.51 1521.84Z" fill="white"/>
<path d="M2009.96 1524.79H2009.52C2007.01 1524.79 2004.96 1522.73 2004.96 1520.23V1457.31C2004.96 1454.8 2007.01 1452.76 2009.52 1452.76H2009.96C2012.47 1452.76 2014.52 1454.8 2014.52 1457.31V1520.23C2014.52 1522.73 2012.47 1524.79 2009.96 1524.79Z" fill="white"/>
<path d="M2037.4 1526.75H2036.96C2034.45 1526.75 2032.4 1524.69 2032.4 1522.19V1459.27C2032.4 1456.76 2034.45 1454.72 2036.96 1454.72H2037.4C2039.91 1454.72 2041.96 1456.76 2041.96 1459.27V1522.19C2041.96 1524.69 2039.91 1526.75 2037.4 1526.75Z" fill="white"/>
<path d="M2065.33 1528.21H2064.88C2062.39 1528.21 2060.33 1526.16 2060.33 1523.67V1460.73C2060.33 1458.24 2062.39 1456.19 2064.88 1456.19H2065.33C2067.84 1456.19 2069.89 1458.24 2069.89 1460.73V1523.67C2069.89 1526.16 2067.84 1528.21 2065.33 1528.21Z" fill="white"/>
<path d="M2091.79 1529.68H2091.35C2088.84 1529.68 2086.79 1527.64 2086.79 1525.13V1462.21C2086.79 1459.71 2088.84 1457.65 2091.35 1457.65H2091.79C2094.29 1457.65 2096.35 1459.71 2096.35 1462.21V1525.13C2096.35 1527.64 2094.29 1529.68 2091.79 1529.68Z" fill="white"/>
<path d="M2118.25 1530.67H2117.8C2115.29 1530.67 2113.25 1528.61 2113.25 1526.11V1463.19C2113.25 1460.68 2115.29 1458.64 2117.8 1458.64H2118.25C2120.76 1458.64 2122.8 1460.68 2122.8 1463.19V1526.11C2122.8 1528.61 2120.76 1530.67 2118.25 1530.67Z" fill="white"/>
<path d="M2147.16 1530.17H2146.72C2144.21 1530.17 2142.16 1528.12 2142.16 1525.61V1462.69C2142.16 1460.2 2144.21 1458.15 2146.72 1458.15H2147.16C2149.67 1458.15 2151.72 1460.2 2151.72 1462.69V1525.61C2151.72 1528.12 2149.67 1530.17 2147.16 1530.17Z" fill="white"/>
<path d="M2179.01 1530.67H2178.56C2176.05 1530.67 2174.01 1528.61 2174.01 1526.11V1463.19C2174.01 1460.68 2176.05 1458.64 2178.56 1458.64H2179.01C2181.52 1458.64 2183.56 1460.68 2183.56 1463.19V1526.11C2183.56 1528.61 2181.52 1530.67 2179.01 1530.67Z" fill="white"/>
<path d="M2208.21 1529.68H2208.65C2211.16 1529.68 2213.21 1527.63 2213.21 1525.13V1462.21C2213.21 1459.71 2211.16 1457.65 2208.65 1457.65H2208.21C2205.71 1457.65 2203.65 1459.71 2203.65 1462.21V1525.13C2203.65 1527.63 2205.71 1529.68 2208.21 1529.68Z" fill="white"/>
<path d="M1972.03 731.626C1994.97 663.773 2068.69 627.053 2136.68 649.613C2204.67 672.173 2241.19 745.466 2218.24 813.32C2195.29 881.173 2121.57 917.893 2053.59 895.333C1985.59 872.773 1949.08 799.48 1972.03 731.626Z" fill="white"/>
<path d="M2095.8 645.92C2042.59 645.92 1992.72 679.533 1974.8 732.56C1963.95 764.627 1966.27 798.933 1981.32 829.147C1996.37 859.373 2022.36 881.88 2054.51 892.547C2120.87 914.573 2193.07 878.6 2215.47 812.387C2226.31 780.307 2223.99 746.013 2208.95 715.8C2193.89 685.573 2167.89 663.053 2135.76 652.387C2122.53 648 2109.05 645.92 2095.8 645.92ZM2094.44 904.88C2080.57 904.88 2066.49 902.693 2052.67 898.107C2019.03 886.947 1991.83 863.387 1976.08 831.76C1960.32 800.133 1957.91 764.24 1969.25 730.68C1992.68 661.427 2068.2 623.8 2137.6 646.84C2171.23 658 2198.43 681.56 2214.17 713.187C2229.93 744.8 2232.36 780.693 2221.01 814.253C2202.25 869.707 2150.11 904.88 2094.44 904.88Z" fill="black"/>
<path d="M2161.4 751.466C2160.08 783.866 2105.31 859.626 2092.2 877.306C2090.85 879.133 2088.11 879.013 2086.92 877.093C2078.59 863.706 2051.37 818.933 2037.07 782.693C2031.4 768.306 2027.75 755.28 2028.12 746.08C2029.61 709.266 2060.65 680.64 2097.45 682.133C2134.27 683.626 2162.89 714.666 2161.4 751.466Z" fill="black"/>
<path d="M2125.23 750.013C2124.55 766.84 2110.36 779.92 2093.52 779.24C2076.7 778.56 2063.61 764.373 2064.29 747.533C2064.97 730.706 2079.16 717.626 2096 718.306C2112.83 718.986 2125.91 733.173 2125.23 750.013Z" fill="white"/>
</svg>
