<svg width="2433" height="2450" viewBox="0 0 2433 2450" fill="none" xmlns="http://www.w3.org/2000/svg">
<path d="M342.138 1417.48C320.053 1392.75 174.43 1227.21 166.784 1100.76C165.721 1083.17 164.068 1055.85 178.842 1027.97C208.354 972.306 265.017 986.866 289.476 945.133C321.733 890.093 240.514 835.186 250.28 707.866C252.622 677.333 256.269 629.786 290.293 593.693C328.281 553.4 365.037 568.853 404.376 534C453.425 490.547 427.006 439.293 460.661 365.36C496.113 287.48 590.36 201.733 689.016 215.36C775.041 227.226 831.801 310.147 852.046 373.92C881.957 468.147 847.084 567.6 793.874 627.52C717.388 713.667 606.998 713.666 607.944 754.773C608.826 793.053 704.57 794.68 724.158 859.573C737.834 904.893 709.51 964.933 668.117 993.333C610.748 1032.68 554.03 993.586 523.933 1028.01C492.374 1064.12 540.109 1123.85 535.144 1196.25C531.05 1255.97 490.517 1332.88 342.138 1417.48Z" fill="white"/>
<path d="M668.26 216.867C582.185 216.867 498.341 289.653 463.325 366.573C449.096 397.827 445.716 425.226 442.734 449.413C438.682 482.253 435.185 510.613 406.317 536.187C387.252 553.08 368.721 558.48 350.8 563.693C330.81 569.506 311.929 575.013 292.424 595.693C259.11 631.04 255.553 677.413 253.2 708.093C248.218 773.053 267.185 818.987 282.426 855.893C296.917 890.987 308.36 918.693 292.002 946.613C280.236 966.693 261.71 974.146 242.096 982.04C219.853 991 196.852 1000.27 181.429 1029.35C167.041 1056.49 168.644 1083.03 169.706 1100.57C176.944 1220.29 311.584 1378.63 342.749 1413.76C463.324 1344.6 527.064 1271.36 532.225 1196.05C534.35 1165.07 526.6 1136.17 519.762 1110.68C510.694 1076.88 502.862 1047.68 521.732 1026.09C537.129 1008.47 558.44 1008.97 583.121 1009.53C608.606 1010.13 637.505 1010.79 666.464 990.92C708.801 961.88 733.94 902.12 721.357 860.427C711.006 826.133 678.773 810.187 650.333 796.133C626.254 784.227 605.461 773.946 605.021 754.84C604.53 733.6 629.396 722.987 663.812 708.293C700.8 692.507 751.457 670.88 791.688 625.573C838.301 573.08 881.349 475.906 849.257 374.813C827.049 304.853 768.765 229.32 688.617 218.253C681.834 217.32 675.038 216.867 668.26 216.867ZM342.141 1420.41C341.329 1420.41 340.528 1420.08 339.957 1419.44C300.492 1375.23 171.16 1221.61 163.864 1100.93C162.762 1082.72 161.098 1055.2 176.258 1026.61C192.682 995.626 217.772 985.52 239.909 976.613C258.57 969.093 276.194 962 286.952 943.653C301.84 918.24 291.426 893.027 277.016 858.133C261.538 820.653 242.274 774 247.362 707.653C249.78 676.147 253.43 628.533 288.166 591.693C308.764 569.84 329.301 563.853 349.164 558.08C366.464 553.04 384.354 547.826 402.437 531.813C429.646 507.706 432.858 481.666 436.924 448.693C439.957 424.106 443.396 396.226 457.998 364.146C496.66 279.213 593.78 199.227 689.417 212.453C772.094 223.867 832.073 301.333 854.837 373.04C887.666 476.48 843.697 575.813 796.064 629.467C754.964 675.747 703.609 697.68 666.11 713.68C633.81 727.466 610.474 737.426 610.872 754.706C611.23 770.266 630.553 779.826 652.928 790.88C680.973 804.746 715.877 822.013 726.961 858.733C740.442 903.4 714.788 964.866 669.776 995.746C639.261 1016.68 609.364 1015.99 582.985 1015.39C559.78 1014.85 539.734 1014.39 526.138 1029.95C509.326 1049.17 516.426 1075.65 525.416 1109.17C532.372 1135.11 540.257 1164.49 538.065 1196.45C532.732 1274.27 467.301 1349.49 343.589 1420.03C343.137 1420.28 342.637 1420.41 342.141 1420.41Z" fill="#051832"/>
<path d="M330.544 1396.67C329.124 1396.67 327.877 1395.63 327.654 1394.17C308.714 1270.95 314.205 1143.87 343.972 1016.45C367.776 914.573 407.069 812.267 460.761 712.373C552.168 542.307 655.102 436.747 656.132 435.707C657.264 434.547 659.113 434.533 660.27 435.667C661.422 436.8 661.438 438.653 660.305 439.813C659.281 440.84 556.84 545.92 465.832 715.293C381.905 871.493 290.81 1115.91 333.44 1393.28C333.686 1394.88 332.589 1396.39 330.992 1396.63C330.841 1396.65 330.692 1396.67 330.544 1396.67Z" fill="#051832"/>
<path d="M342.143 1417.48C82.0587 1151.97 47.8734 1005.92 72.8867 919.48C80.3507 893.68 101.671 842.88 98.7228 769.946C94.8934 675.346 53.9614 635.467 30.4227 564.64C-15.6186 426.12 34.4121 258.026 120.861 153.493C181.252 80.4798 311.06 -23.9868 429.236 13.5465C479.207 29.4132 540.549 74.9598 539.943 124.746C539.075 195.986 404.924 207.746 378.529 313.08C364.125 370.56 399.673 383.493 383.864 444.387C358.953 540.347 259.091 552.893 261.197 613.52C263.239 672.227 358.384 675.453 371.936 746.68C387.396 827.946 279.12 880.653 302.067 955.92C315.732 1000.72 356.933 991.266 378.308 1041.24C404.315 1102.04 357.516 1149.25 339.788 1260.93C329.847 1323.56 336.029 1376.97 342.143 1417.48Z" fill="white"/>
<path d="M376.943 8.49312C274.001 8.49312 172.315 95.8798 123.119 155.36C45.596 249.093 -15.6093 416.867 33.2014 563.72C41.084 587.427 51.0693 607.933 60.728 627.76C80.4533 668.28 99.0867 706.533 101.648 769.827C104.161 832 89.032 878.706 79.9933 906.613C78.3027 911.84 76.8427 916.347 75.6987 920.293C61.2693 970.16 70.54 1030.64 103.252 1100.08C144.272 1187.15 223.219 1291.05 337.94 1408.99C331.999 1367.11 327.88 1317.31 336.899 1260.48C343.977 1215.88 355.417 1182.24 365.509 1152.56C380.225 1109.29 390.856 1078.01 375.617 1042.39C365.268 1018.19 350.213 1008.47 335.652 999.066C320.612 989.346 306.404 980.173 299.268 956.773C287.252 917.36 310.285 883.493 332.561 850.746C354.151 819.013 376.475 786.187 369.063 747.227C362.379 712.093 335.271 694.147 309.057 676.8C283.481 659.867 259.325 643.88 258.273 613.613C257.221 583.32 280.073 564.733 306.531 543.213C335.444 519.693 368.213 493.027 381.032 443.653C388.884 413.4 383.901 395.84 378.623 377.24C373.613 359.587 368.435 341.333 375.692 312.373C389.868 255.787 434.073 226 473.073 199.72C507.175 176.747 536.624 156.893 537.017 124.707C537.571 79.2667 481.043 33.0666 428.351 16.3332C411.341 10.9332 394.12 8.49312 376.943 8.49312ZM342.145 1420.41C341.375 1420.41 340.616 1420.11 340.053 1419.53C221.457 1298.45 140.003 1191.83 97.9573 1102.57C64.6187 1031.81 55.2387 969.946 70.0774 918.667C71.2454 914.64 72.7187 910.08 74.424 904.813C83.344 877.28 98.2707 831.187 95.8 770.067C93.2867 707.987 74.916 670.267 55.4653 630.333C45.724 610.333 35.6494 589.64 27.648 565.56C-21.8653 416.6 40.0893 246.573 118.608 151.626C176.948 81.0798 308.211 -27.9602 430.123 10.7598C477.333 25.7465 543.525 71.04 542.871 124.773C542.441 160.027 511.811 180.68 476.344 204.573C438.217 230.267 395.001 259.4 381.371 313.787C374.493 341.24 379.235 357.947 384.255 375.64C389.513 394.173 394.949 413.333 386.697 445.12C373.396 496.36 339.835 523.666 310.225 547.746C283.937 569.133 263.172 586.026 264.124 613.413C265.069 640.666 286.951 655.147 312.288 671.92C338.247 689.107 367.668 708.573 374.813 746.133C382.679 787.48 359.661 821.32 337.401 854.04C314.912 887.093 293.669 918.333 304.868 955.053C311.379 976.413 324.1 984.626 338.829 994.146C353.415 1003.57 369.947 1014.24 381 1040.08C397.12 1077.77 386.187 1109.93 371.052 1154.44C361.033 1183.91 349.68 1217.29 342.681 1261.4C333.135 1321.53 338.515 1373.83 345.037 1417.04C345.227 1418.29 344.585 1419.53 343.449 1420.11C343.033 1420.31 342.588 1420.41 342.145 1420.41Z" fill="#051832"/>
<path d="M326.246 1389.17C325.141 1389.17 324.082 1388.55 323.588 1387.48C258.225 1246.2 209.81 1096.76 179.685 943.306C153.534 810.106 142.833 680.787 148.737 569.333C157.807 398.133 203.823 276.813 240.828 205.173C280.999 127.427 319.649 89.6399 320.034 89.2665C321.201 88.1465 323.05 88.1732 324.172 89.3332C325.296 90.4932 325.264 92.3465 324.102 93.4665C323.722 93.8399 285.62 131.146 245.881 208.146C209.201 279.24 163.588 399.653 154.582 569.64C141.529 816.067 206.695 1120.88 328.901 1385.03C329.58 1386.49 328.94 1388.23 327.473 1388.91C327.076 1389.09 326.657 1389.17 326.246 1389.17Z" fill="#051832"/>
<path d="M1538.03 1796.99L1040.59 1800.09C1037.36 1800.09 1036.31 1803.07 1036.31 1805.93V2227.12C1036.31 2267.45 749.29 2372.23 746.535 2366.89L746.191 2411.47C746.17 2419.76 753.502 2427.13 762.849 2427.13H1190.64C1210 2427.13 1229.11 2422.81 1246.64 2415.52L1475.95 2319.43C1517.23 2302.13 1543.27 2264.97 1543.27 2224.45V1802.83C1543.27 1799.96 1541.25 1796.99 1538.03 1796.99Z" fill="#051832"/>
<path d="M749.128 2365.53C749.128 2365.53 749.128 2365.53 749.131 2365.53H749.128ZM749.44 2369.81L749.119 2411.49C749.111 2414.63 750.427 2417.69 752.823 2420.09C755.468 2422.75 759.03 2424.2 762.85 2424.2H1190.64C1208.65 2424.2 1227.63 2420.27 1245.51 2412.83L1474.81 2316.73C1514.63 2300.05 1540.35 2263.83 1540.35 2224.44V1802.83C1540.35 1801.65 1539.61 1799.92 1538.04 1799.91L1040.6 1803.01C1039.4 1803.01 1039.23 1804.84 1039.23 1805.93V2227.12C1039.23 2268.19 785.763 2361.04 752.498 2369.13C751.428 2369.39 750.399 2369.64 749.44 2369.81ZM1190.64 2430.05H762.85C757.463 2430.05 752.43 2427.99 748.68 2424.23C745.178 2420.72 743.254 2416.17 743.266 2411.47L743.61 2366.87C743.619 2365.52 744.547 2364.36 745.856 2364.04C746.45 2363.91 747.044 2363.95 747.582 2364.16C764.155 2363.43 979.827 2283.64 1025.49 2239.6C1032.01 2233.31 1033.37 2229.35 1033.37 2227.12V1805.93C1033.37 1800.6 1036.2 1797.16 1040.59 1797.16L1538.01 1794.05C1538.01 1794.05 1538.01 1794.05 1538.03 1794.05C1543.07 1794.05 1546.2 1798.61 1546.2 1802.83V2224.44C1546.2 2266.19 1519.07 2304.53 1477.08 2322.12L1247.76 2418.23C1229.17 2425.96 1209.43 2430.05 1190.64 2430.05Z" fill="#051832"/>
<path d="M980.252 1776.81V2198.09C980.252 2239.63 953.399 2277.47 911.199 2295.39L756.507 2361.09C746.403 2365.39 749.846 2378.87 761.048 2378.87H1186.08C1205.19 2378.87 1224.07 2375.11 1241.35 2367.87L1412.75 2296.05C1455.25 2278.24 1482.37 2240.24 1482.37 2198.51V1776.81C1482.37 1775.08 1480.8 1773.69 1478.85 1773.69H983.772C981.826 1773.69 980.252 1775.08 980.252 1776.81Z" fill="white"/>
<path d="M983.172 1776.84V2198.09C983.172 2240.55 955.372 2279.8 912.345 2298.08L757.652 2363.79C753.935 2365.36 753.099 2368.33 753.556 2370.57C754.1 2373.24 756.627 2375.93 761.048 2375.93H1186.08C1204.68 2375.93 1223.4 2372.21 1240.21 2365.16L1411.61 2293.35C1452.83 2276.08 1479.45 2238.85 1479.45 2198.51V1776.81C1479.43 1776.79 1479.23 1776.61 1478.85 1776.61H983.772C983.425 1776.61 983.225 1776.77 983.172 1776.84ZM1186.08 2381.79H761.048C753.323 2381.79 748.839 2376.75 747.821 2371.75C746.665 2366.07 749.628 2360.84 755.363 2358.4L910.052 2292.69C950.919 2275.33 977.319 2238.2 977.319 2198.09V1776.81C977.319 1773.48 980.212 1770.76 983.772 1770.76H1478.85C1482.41 1770.76 1485.31 1773.48 1485.31 1776.81V2198.51C1485.31 2241.23 1457.27 2280.56 1413.88 2298.75L1242.48 2370.56C1224.95 2377.91 1205.45 2381.79 1186.08 2381.79Z" fill="#051832"/>
<path d="M71.0625 2015.08L2218.27 2017C2237.04 2017 2252.84 2004.32 2255.23 1985.76L2426.61 651.72C2430.77 619.36 2407.07 588.8 2374.35 588.8L2283.92 589.107L1256.39 664.974L254.591 596.174L71.0625 2015.08Z" fill="#051832"/>
<path d="M74.3934 2012.16L2218.27 2014.07C2235.87 2014.07 2250.19 2002.01 2252.33 1985.39L2423.71 651.347C2425.71 635.72 2420.97 620.08 2410.72 608.4C2401.25 597.64 2388.33 591.72 2374.35 591.72L2283.93 592.04L1256.6 667.893C1256.47 667.907 1256.32 667.907 1256.19 667.893L257.141 599.28L74.3934 2012.16ZM2218.27 2019.92L71.0601 2018.01C70.2201 2018.01 69.4201 2017.65 68.8641 2017.01C68.3094 2016.39 68.0521 2015.55 68.1614 2014.71L251.689 595.8C251.888 594.253 253.248 593.16 254.792 593.253L1256.39 662.04L2283.71 586.187L2374.33 585.867C2390.04 585.867 2404.52 592.493 2415.11 604.547C2426.48 617.467 2431.73 634.8 2429.51 652.093L2258.13 1986.13C2255.61 2005.71 2238.85 2019.92 2218.27 2019.92Z" fill="#051832"/>
<path d="M53.2577 2013.15H2157.32C2176.08 2013.15 2191.92 1999.21 2194.32 1980.59L2367.01 659.08C2371.73 622.467 2343.24 590.04 2306.36 590.04L226.668 593.413C207.912 593.413 192.074 607.347 189.672 625.96L16.2617 1971.04C13.383 1993.37 30.7617 2013.15 53.2577 2013.15Z" fill="white"/>
<path d="M2306.36 592.96L226.674 596.334C209.439 596.334 194.782 609.24 192.578 626.347L19.1659 1971.41C17.9019 1981.23 20.9219 1991.12 27.4539 1998.55C33.9779 2005.96 43.3846 2010.23 53.2592 2010.23H2157.32C2174.56 2010.23 2189.21 1997.32 2191.41 1980.21L2364.11 658.707C2366.25 642.08 2361.13 625.32 2350.07 612.734C2339.01 600.174 2323.08 592.96 2306.36 592.96ZM2157.32 2016.08H53.2592C41.7006 2016.08 30.6939 2011.09 23.0579 2002.41C15.4152 1993.72 11.8819 1982.15 13.3619 1970.67L186.773 625.587C189.351 605.574 206.503 590.48 226.67 590.48L2306.35 587.107C2324.76 587.107 2342.29 595.04 2354.47 608.88C2366.64 622.72 2372.28 641.16 2369.92 659.454L2197.21 1980.97C2194.64 2000.99 2177.48 2016.08 2157.32 2016.08Z" fill="#051832"/>
<path d="M272.612 645.333C256.181 645.333 242.213 656.8 240.121 672.013L74.2387 1878.51C73.0854 1886.89 75.5974 1895.12 81.3107 1901.67C87.564 1908.84 96.8294 1912.95 106.728 1912.95H2119.47C2135.91 1912.95 2149.87 1901.48 2151.96 1886.28L2314.52 703.946C2316.49 689.653 2312.21 675.64 2302.48 664.48C2291.87 652.32 2276.17 645.333 2259.39 645.333H272.612ZM2119.47 1918.81H106.728C95.1374 1918.81 84.264 1913.96 76.9 1905.52C70.0574 1897.67 67.0534 1887.8 68.44 1877.71L234.323 671.213C236.811 653.12 253.272 639.48 272.612 639.48H2259.39C2277.87 639.48 2295.17 647.187 2306.89 660.64C2317.75 673.08 2322.52 688.746 2320.32 704.746L2157.76 1887.08C2155.28 1905.16 2138.81 1918.81 2119.47 1918.81Z" fill="#051832"/>
<path d="M700.064 695.92C700.576 686.68 697.449 677.627 691.353 670.68C675.479 652.56 639.04 622.453 578.317 633.32C493.284 648.56 446.219 715.027 427.324 779.147C366.473 985.64 139.189 904.067 45.7332 1028.07C-30.7961 1129.61 20.0118 1382.52 196.883 1365.6C373.752 1348.67 607.596 1036.4 607.596 1036.4L692.629 829.92L700.064 695.92Z" fill="black"/>
<path d="M203.56 1274.51L183.559 1240.91C183.559 1240.91 339.192 1058.03 477.636 1028.17L648.364 1067.55C648.364 1067.55 726.084 1089.13 762.335 1137.65C798.587 1186.17 846.823 1295.6 846.823 1295.6L809.212 1312.44L852.339 1689.39C852.339 1689.39 758.585 1760.31 672.332 1769.64C586.077 1778.96 417.32 1788.29 336.692 1842.41C336.692 1842.41 241.061 1765.91 235.437 1730.44C235.437 1730.44 323.565 1417.57 203.56 1274.51Z" fill="#008080"/>
<path d="M238.43 1730.6C244.344 1762.28 324.282 1828.53 336.863 1838.79C408.159 1792.25 544.318 1779.15 634.676 1770.45C648.131 1769.16 660.839 1767.93 672.015 1766.72C750.939 1758.19 837.506 1696.63 849.238 1688.04L806.303 1312.77C806.158 1311.51 806.85 1310.29 808.015 1309.77L842.958 1294.12C835.324 1277.11 792.498 1182.92 759.987 1139.41C724.743 1092.24 648.347 1070.57 647.579 1070.37L477.614 1031.17C348.679 1059.41 202.795 1223.29 187.152 1241.23L205.952 1272.8C268.435 1347.47 273.868 1468.19 267.418 1556.33C260.78 1647.05 240.55 1722.84 238.43 1730.6ZM336.69 1845.33C336.04 1845.33 335.392 1845.12 334.86 1844.69C330.919 1841.55 238.28 1767.07 232.544 1730.91C232.478 1730.49 232.502 1730.07 232.618 1729.65C233.494 1726.53 318.944 1416.61 201.316 1276.39C201.215 1276.27 201.124 1276.13 201.043 1276L181.042 1242.41C180.4 1241.33 180.515 1239.97 181.327 1239.01C182.89 1237.17 339.196 1055.03 477.015 1025.32C477.438 1025.23 477.871 1025.23 478.29 1025.32L649.019 1064.69C652.358 1065.61 728.247 1087.15 764.678 1135.91C800.711 1184.13 849.016 1293.32 849.499 1294.43C850.147 1295.89 849.486 1297.61 848.016 1298.28L812.361 1314.24L855.245 1689.07C855.361 1690.09 854.928 1691.11 854.101 1691.73C853.159 1692.44 758.707 1763.23 672.644 1772.55C661.434 1773.76 648.71 1774.99 635.238 1776.28C544.696 1784.99 407.872 1798.16 338.32 1844.84C337.826 1845.17 337.256 1845.33 336.69 1845.33Z" fill="black"/>
<path d="M276.482 1763.05C276.482 1763.05 217.814 1798.32 181.25 1915.88H682.835L672.33 1769.64L276.482 1763.05Z" fill="#051832"/>
<path d="M336.692 1845.33C336.043 1845.33 335.395 1845.12 334.863 1844.69C334.577 1844.47 306.105 1821.63 279.575 1795.45C278.423 1794.32 278.412 1792.47 279.547 1791.31C280.684 1790.16 282.535 1790.15 283.687 1791.28C306.341 1813.64 330.433 1833.55 336.865 1838.79C408.16 1792.25 544.32 1779.15 634.679 1770.45C648.135 1769.16 660.841 1767.93 672.017 1766.72C700.241 1763.67 732.311 1753.61 767.332 1736.84C768.791 1736.15 770.539 1736.75 771.236 1738.21C771.935 1739.67 771.319 1741.41 769.861 1742.12C734.24 1759.19 701.532 1769.41 672.647 1772.55C661.436 1773.76 648.712 1774.99 635.24 1776.28C544.7 1784.99 407.875 1798.16 338.323 1844.84C337.828 1845.17 337.259 1845.33 336.692 1845.33Z" fill="#051832"/>
<path d="M698.067 1437.87C697.986 1437.87 697.903 1437.85 697.819 1437.85C696.208 1437.72 695.012 1436.31 695.147 1434.69L705.147 1315.27C705.282 1313.65 706.699 1312.44 708.307 1312.59C709.918 1312.72 711.115 1314.13 710.98 1315.75L700.98 1435.17C700.852 1436.71 699.574 1437.87 698.067 1437.87Z" fill="#051832"/>
<path d="M695.339 1578.55C673.823 1583.91 588.953 1564.2 583.574 1558.85C583.574 1558.85 631.983 1548.48 643.413 1540.45C654.843 1532.43 658.205 1524.4 656.187 1517.04C654.17 1509.68 571.305 1520.92 551.807 1527.61C532.307 1534.31 509.617 1550.83 492.137 1556.17C488.237 1557.37 476.29 1559.09 459.418 1560.85C459.793 1557.76 249.009 1565.56 192.207 1548.36C192.207 1548.36 288.189 1450.17 345.769 1395.93C356.69 1385.64 359.487 1369.39 352.559 1356.09C309.927 1274.35 242.497 1261.05 210.382 1259.65C151.546 1340.33 93.442 1434.88 65.5354 1476.61C11.3514 1557.64 -19.3873 1655.96 26.83 1671.17C138.663 1708 477.662 1647.61 494.154 1649.17C536.51 1653.2 587.61 1671.27 614.501 1665.91C641.394 1660.56 743.691 1630.25 756.191 1600.39C765.949 1577.08 716.855 1573.2 695.339 1578.55Z" fill="white"/>
<path d="M456.515 1560.49C456.514 1560.51 456.514 1560.51 456.514 1560.51L456.515 1560.49ZM456.514 1560.51C456.513 1560.52 456.513 1560.52 456.513 1560.52L456.514 1560.51ZM456.51 1560.53C456.51 1560.53 456.51 1560.53 456.51 1560.55V1560.53ZM211.818 1262.65C169.887 1320.27 128.393 1384.77 98.0339 1431.96C86.1179 1450.49 75.8272 1466.48 67.9685 1478.24C22.4392 1546.32 -1.3888 1617.01 10.0232 1650.16C13.2192 1659.44 19.1832 1665.57 27.7472 1668.4C115.125 1697.17 346.056 1665.64 444.668 1652.17C476.51 1647.83 490.73 1645.91 494.431 1646.27C511.53 1647.89 529.891 1651.75 547.646 1655.48C573.738 1660.96 598.379 1666.13 613.93 1663.04C643.611 1657.13 741.999 1626.72 753.493 1599.27C755.189 1595.21 754.839 1592 752.396 1589.15C743.606 1578.91 712.151 1577.39 696.047 1581.39C696.047 1581.39 696.047 1581.39 696.046 1581.39C673.452 1587.01 587.636 1567.03 581.512 1560.93C580.751 1560.17 580.464 1559.07 580.768 1558.03C581.071 1557 581.913 1556.21 582.963 1556C596.267 1553.15 632.758 1544.36 641.731 1538.05C650.998 1531.55 654.96 1524.95 653.518 1518.44C644.903 1514.43 571.633 1523.91 552.758 1530.39C543.386 1533.6 533.055 1539.25 523.066 1544.72C512.307 1550.61 502.146 1556.17 492.995 1558.97C488.826 1560.25 476.699 1562 459.723 1563.76C459.11 1563.81 458.521 1563.69 458.001 1563.41C454.475 1562.87 435.414 1562.92 413.466 1562.96C345.497 1563.13 231.714 1563.37 191.361 1551.16C190.381 1550.85 189.627 1550.07 189.373 1549.08C189.118 1548.09 189.401 1547.04 190.117 1546.31C191.075 1545.33 286.799 1447.47 343.763 1393.8C353.695 1384.44 356.246 1369.49 349.966 1357.45C309.359 1279.59 246.643 1264.52 211.818 1262.65ZM135.673 1685.93C91.2632 1685.93 52.2712 1682.64 25.9152 1673.96C15.5219 1670.53 8.3112 1663.17 4.48853 1652.07C-9.4768 1611.51 25.0819 1531.84 63.1032 1474.99C70.9325 1463.28 81.2099 1447.29 93.1112 1428.8C123.733 1381.2 165.67 1316 208.018 1257.93C208.595 1257.13 209.529 1256.65 210.51 1256.73C246.255 1258.29 312.577 1273.09 355.157 1354.75C362.641 1369.11 359.607 1386.91 347.778 1398.05C297.073 1445.84 215.563 1528.72 197.789 1546.84C241.263 1557.51 352.586 1557.25 413.453 1557.11C448.273 1557.04 457.103 1557.11 459.965 1557.85C478.687 1555.89 488.414 1554.25 491.279 1553.37C499.861 1550.75 509.769 1545.33 520.257 1539.59C530.462 1534 541.013 1528.23 550.858 1524.84C568.87 1518.67 645.38 1507.52 656.556 1513.43C658.175 1514.28 658.785 1515.44 659.01 1516.27C660.773 1522.69 659.79 1532.52 645.095 1542.84C636.274 1549.04 607.629 1556.31 592.958 1559.73C614.658 1566.67 676.548 1580.2 694.634 1575.71C712.328 1571.31 746.164 1572.89 756.839 1585.33C759.546 1588.49 762.098 1593.87 758.891 1601.52C745.662 1633.12 641.791 1663.47 615.074 1668.77C598.351 1672.11 573.136 1666.81 546.443 1661.2C528.844 1657.51 510.649 1653.68 493.879 1652.09C490.715 1651.84 470.745 1654.52 445.461 1657.97C375.878 1667.47 240.669 1685.93 135.673 1685.93Z" fill="#051832"/>
<path d="M821.821 1285.65C821.821 1285.65 858.601 1355.96 898.801 1415.52C914.201 1438.33 944.787 1445.04 968.414 1430.93C996.521 1414.15 1030.53 1392.53 1049.23 1375.89C1084.85 1344.17 1154.28 1270.23 1172.97 1243.4C1206.84 1194.83 1182.8 1194.25 1197.87 1143.53C1205.11 1119.2 1210.99 1053.25 1221.85 1050.33C1239.63 1045.56 1262.07 1071.79 1257.47 1123.29C1253.68 1165.6 1274.64 1177.55 1280.19 1198.45C1289.44 1233.28 1289.05 1251.12 1289.05 1251.12C1289.05 1251.12 1069.61 1520.92 966.507 1602.79C934.934 1627.85 891.787 1632.93 854.933 1616.48L827.338 1604.17L791.086 1281.96L821.821 1285.65Z" fill="white"/>
<path d="M830.058 1602.19L856.127 1613.81C892.375 1629.99 933.974 1624.88 964.681 1600.49C1063.57 1521.99 1272.69 1266.55 1286.12 1250.09C1286.04 1245.95 1285.19 1228.67 1277.36 1199.2C1275.65 1192.77 1272.27 1187.03 1268.69 1180.96C1260.83 1167.6 1251.92 1152.47 1254.55 1123.04C1257.69 1087.84 1247.87 1066.09 1237.61 1057.48C1232.76 1053.4 1227.44 1051.87 1222.61 1053.16C1217.36 1054.57 1211.59 1087.81 1208.13 1107.67C1205.63 1122.08 1203.25 1135.69 1200.68 1144.37C1194.69 1164.52 1195 1176.47 1195.28 1187C1195.71 1202.89 1196.04 1215.44 1175.37 1245.08C1156.91 1271.57 1088.41 1344.92 1051.17 1378.08C1031.88 1395.25 996.334 1417.67 969.908 1433.44C944.921 1448.37 912.614 1441.23 896.374 1417.16C859.612 1362.69 825.305 1298.49 819.948 1288.37L794.408 1285.31L830.058 1602.19ZM899.681 1629C884.188 1629 868.542 1625.76 853.742 1619.16L826.146 1606.85C825.198 1606.43 824.545 1605.53 824.429 1604.51L788.179 1282.29C788.079 1281.4 788.39 1280.52 789.025 1279.89C789.66 1279.25 790.538 1278.95 791.436 1279.05L822.169 1282.75C823.126 1282.85 823.966 1283.44 824.414 1284.29C824.781 1285 861.583 1355.15 901.228 1413.88C915.721 1435.37 944.574 1441.76 966.908 1428.43C993.121 1412.77 1028.33 1390.57 1047.28 1373.71C1083.52 1341.44 1152.65 1267.43 1170.57 1241.72C1190.13 1213.67 1189.84 1202.55 1189.44 1187.16C1189.15 1176.19 1188.81 1163.73 1195.07 1142.71C1197.55 1134.35 1199.88 1120.91 1202.36 1106.67C1209.07 1068.08 1213.11 1049.65 1221.09 1047.51C1227.81 1045.69 1235.01 1047.65 1241.37 1053C1256.12 1065.39 1263.23 1091.76 1260.37 1123.56C1257.92 1151.11 1266.32 1165.39 1273.73 1177.99C1277.52 1184.41 1281.11 1190.49 1283.01 1197.71C1292.28 1232.53 1292 1250.44 1291.99 1251.19C1291.97 1251.84 1291.73 1252.47 1291.33 1252.97C1289.13 1255.67 1070.49 1523.96 968.321 1605.08C948.441 1620.87 924.241 1629 899.681 1629Z" fill="#051832"/>
<path d="M1345.6 1286.56C1324.08 1293.93 1299.6 1279.4 1291.03 1254.19L1158.27 865.28L1235.87 838.72L1368.83 1228.2C1377.31 1253.19 1366.93 1279.27 1345.6 1286.56Z" fill="#051832"/>
<path d="M1161.99 867.107L1293.8 1253.24C1298.09 1265.89 1306.87 1276.24 1317.85 1281.65C1326.61 1285.95 1336.12 1286.72 1344.65 1283.8C1364.4 1277.04 1374 1252.52 1366.05 1229.13L1234.05 842.44L1161.99 867.107ZM1334.07 1291.4C1327.76 1291.4 1321.35 1289.89 1315.27 1286.91C1302.89 1280.81 1293.05 1269.24 1288.27 1255.13L1155.51 866.227C1154.97 864.693 1155.8 863.027 1157.32 862.507L1234.92 835.96C1235.67 835.707 1236.47 835.76 1237.16 836.093C1237.85 836.44 1238.39 837.04 1238.64 837.787L1371.59 1227.25C1380.57 1253.69 1369.33 1281.53 1346.55 1289.33C1342.52 1290.72 1338.32 1291.4 1334.07 1291.4Z" fill="#051832"/>
<path d="M1222.13 503L971.135 682.107L873.361 783.546L835.008 851.427L834.751 851.96C827.208 863.707 831.512 890.787 845.784 918.333C859.899 945.56 879.577 964.44 893.535 965.52L893.108 965.733L966.908 973.667L1104.93 951.613L1397.93 846.827L1762.08 909.213L1764.65 909.293C1672.89 892.533 1549.44 770.28 1459.77 597.267C1370.21 424.453 1341.65 253.653 1380.93 169.44L1380.85 169.4L1224.15 498.773L1222.13 503Z" fill="white"/>
<path d="M1786.4 429.613C1897.68 644.346 1914.77 855.946 1824.59 902.24C1734.39 948.533 1571.05 811.986 1459.77 597.266C1348.48 382.533 1331.39 170.92 1421.59 124.626C1511.77 78.333 1675.11 214.88 1786.4 429.613Z" fill="white"/>
<path d="M1460.93 118.48C1447.2 118.48 1434.45 121.32 1422.92 127.226C1401.77 138.093 1386.28 158.533 1376.86 187.973C1347.69 279.293 1381.25 439.413 1462.37 595.92C1572.73 808.88 1734.65 945.133 1823.24 899.64C1844.4 888.787 1859.89 868.347 1869.29 838.893C1898.46 747.587 1864.9 587.453 1783.8 430.96C1687.78 245.693 1552.77 118.48 1460.93 118.48ZM1785.34 914.227C1746.17 914.227 1698.97 892.32 1648.21 849.88C1579.01 792.04 1511.17 702.8 1457.17 598.613C1375.38 440.8 1341.66 278.92 1371.29 186.2C1381.2 155.213 1397.66 133.613 1420.25 122.026C1464.98 99.0665 1528.09 118.587 1597.96 176.987C1667.16 234.84 1735 324.067 1789 428.267C1870.78 586.08 1904.49 747.96 1874.88 840.68C1864.97 871.666 1848.5 893.253 1825.92 904.84C1813.69 911.12 1800.08 914.227 1785.34 914.227Z" fill="black"/>
<path d="M1785.34 914.227C1746.17 914.227 1698.97 892.32 1648.21 849.88C1579.01 792.04 1511.17 702.8 1457.17 598.613C1375.38 440.8 1341.66 278.92 1371.29 186.2C1381.2 155.213 1397.66 133.613 1420.25 122.026C1450.3 106.6 1489.48 110.44 1533.52 133.147C1575.77 154.907 1621.57 193.413 1666 244.493C1667.06 245.72 1666.93 247.573 1665.72 248.626C1664.49 249.68 1662.65 249.56 1661.58 248.347C1571.24 144.453 1479.77 98.0531 1422.92 127.226C1401.77 138.093 1386.28 158.533 1376.86 187.973C1347.69 279.293 1381.25 439.413 1462.37 595.92C1558.38 781.173 1693.4 908.387 1785.22 908.4C1798.96 908.4 1811.72 905.56 1823.24 899.64C1844.4 888.787 1859.89 868.347 1869.29 838.893C1898.46 747.587 1864.9 587.453 1783.8 430.96C1759.61 384.28 1732.5 340.413 1703.25 300.56C1702.29 299.266 1702.57 297.427 1703.88 296.48C1705.17 295.52 1707.01 295.8 1707.96 297.107C1737.4 337.187 1764.66 381.32 1789 428.267C1870.78 586.08 1904.49 747.96 1874.88 840.68C1864.97 871.666 1848.5 893.253 1825.92 904.84C1813.69 911.12 1800.08 914.227 1785.34 914.227Z" fill="#051832"/>
<path d="M1611.81 519.52C1637.59 569.227 1641.55 618.226 1620.65 628.946C1599.77 639.666 1561.95 608.053 1536.19 558.333C1510.41 508.613 1506.45 459.613 1527.35 448.893C1548.23 438.173 1586.05 469.8 1611.81 519.52Z" fill="white"/>
<path d="M1536.44 449.72C1533.62 449.72 1531.02 450.307 1528.68 451.507C1524.33 453.733 1521.12 458.027 1519.13 464.253C1512.55 484.853 1520.27 521.253 1538.79 556.987C1563.35 604.373 1600.23 636.133 1619.32 626.346C1623.67 624.106 1626.88 619.826 1628.87 613.6C1635.45 592.986 1627.73 556.586 1609.21 520.866C1587.66 479.28 1556.62 449.72 1536.44 449.72ZM1611.63 633.96C1588.71 633.96 1556.75 604.36 1533.59 559.68C1514.39 522.626 1506.52 484.48 1513.56 462.466C1516.04 454.706 1520.23 449.266 1526 446.293C1548.68 434.653 1587.49 466.24 1614.41 518.173C1633.61 555.213 1641.46 593.36 1634.44 615.373C1631.96 623.147 1627.77 628.586 1622 631.56C1618.83 633.173 1615.35 633.96 1611.63 633.96Z" fill="#051832"/>
<path d="M1765.04 864.427C1730.68 864.427 1689.31 845.24 1644.83 808.053C1584.25 757.413 1524.87 679.307 1477.61 588.12C1406.01 449.973 1376.52 308.24 1402.45 227.04C1411.15 199.84 1425.61 180.88 1445.47 170.693C1491.03 147.306 1558.16 174.24 1629.64 244.587C1630.8 245.72 1630.81 247.573 1629.68 248.72C1628.55 249.867 1626.69 249.88 1625.55 248.746C1555.96 180.293 1491.29 153.746 1448.15 175.893C1429.73 185.346 1416.24 203.16 1408.04 228.826C1382.55 308.613 1411.89 448.586 1482.81 585.426C1566.75 747.373 1684.71 858.6 1764.89 858.613C1776.85 858.613 1787.97 856.133 1798.03 850.973C1816.44 841.52 1829.93 823.72 1838.13 798.053C1863.63 718.253 1834.27 578.28 1763.36 441.44C1741.95 400.147 1717.95 361.36 1692.03 326.213C1691.07 324.906 1691.35 323.067 1692.64 322.107C1693.95 321.16 1695.77 321.427 1696.73 322.733C1722.84 358.133 1747 397.173 1768.56 438.76C1840.15 576.906 1869.65 718.627 1843.71 799.827C1835.01 827.04 1820.55 846 1800.69 856.187C1789.95 861.707 1777.99 864.427 1765.04 864.427Z" fill="#051832"/>
<path d="M895.014 963L966.828 970.72L1104.2 948.76L1396.95 844.066C1397.41 843.893 1397.93 843.853 1398.43 843.933L1725.61 900C1637.2 861.213 1533.87 746.613 1457.17 598.613C1381.04 451.693 1347.03 302.466 1365.65 208.16L1224.77 504.253C1224.56 504.706 1224.24 505.093 1223.84 505.386L973.055 684.333L875.727 785.306L837.388 853.226C837.336 853.333 837.278 853.44 837.213 853.546C830.252 864.373 834.949 891.053 848.383 916.986C861.556 942.4 880.641 961.586 893.761 962.6C894.215 962.64 894.641 962.773 895.014 963ZM966.908 976.6C966.801 976.6 966.694 976.586 966.601 976.573L892.801 968.64C892.361 968.6 891.948 968.453 891.588 968.226C876.355 965.786 857.148 946.613 843.185 919.68C828.446 891.24 824.044 863.493 832.189 850.533L832.372 850.16L870.813 782.106C870.934 781.893 871.084 781.693 871.253 781.52L969.028 680.066C969.148 679.946 969.281 679.826 969.428 679.72L1219.81 501.053L1378.21 168.146C1378.55 167.426 1379.16 166.88 1379.91 166.626C1380.64 166.373 1381.45 166.426 1382.16 166.773C1383.59 167.493 1384.25 169.24 1383.59 170.666C1343.47 256.693 1375.13 427.586 1462.37 595.92C1549.75 764.52 1671.44 889.293 1765.17 906.413C1766.68 906.68 1767.72 908.066 1767.56 909.586C1767.4 911.106 1766.09 912.146 1764.57 912.213L1762 912.146C1761.85 912.133 1761.72 912.12 1761.59 912.106L1398.2 849.84L1105.92 954.373C1105.75 954.426 1105.57 954.48 1105.4 954.506L967.374 976.56C967.214 976.586 967.068 976.6 966.908 976.6Z" fill="#051832"/>
<path d="M1222.61 502L1380.85 169.4L1380.93 169.44C1341.65 253.653 1370.21 424.453 1459.77 597.266C1549.44 770.28 1672.89 892.533 1764.65 909.293L1762.08 909.213L1398.53 846.92L1390.11 845.52C1347.85 838.053 1291.39 783.066 1251.01 704.733C1209.57 624.32 1202.25 544.146 1220.6 506.053L1222.61 502Z" fill="white"/>
<path d="M1365.65 208.16L1225.25 503.266C1225.24 503.28 1225.24 503.293 1225.23 503.306L1223.23 507.346C1206.28 542.56 1211.27 621.213 1253.61 703.386C1292.64 779.106 1347.69 835.066 1390.61 842.64L1399.01 844.04L1725.61 900C1637.2 861.213 1533.87 746.613 1457.17 598.613C1381.04 451.693 1347.03 302.466 1365.65 208.16ZM1764.65 912.213C1764.63 912.213 1764.6 912.213 1764.57 912.213L1762 912.146C1761.85 912.133 1761.72 912.12 1761.59 912.106L1398.04 849.813L1389.63 848.4C1344.97 840.52 1288.23 783.333 1248.41 706.066C1203.17 618.293 1200.91 540.2 1217.96 504.786L1219.97 500.72L1378.21 168.146C1378.55 167.426 1379.16 166.88 1379.91 166.626C1380.64 166.373 1381.45 166.426 1382.16 166.773C1383.59 167.493 1384.25 169.24 1383.59 170.666C1343.47 256.693 1375.13 427.586 1462.37 595.92C1549.75 764.52 1671.44 889.293 1765.17 906.413C1766.68 906.68 1767.72 908.066 1767.56 909.586C1767.4 911.08 1766.15 912.213 1764.65 912.213Z" fill="#051832"/>
<path d="M962.934 976.173C962.828 976.173 962.721 976.16 962.614 976.146L892.801 968.64C892.361 968.6 891.948 968.453 891.588 968.226C876.355 965.786 857.148 946.613 843.185 919.68C828.446 891.24 824.044 863.493 832.189 850.533L832.372 850.16L870.813 782.106C871.609 780.706 873.396 780.213 874.801 781C876.208 781.8 876.704 783.587 875.909 784.987L837.388 853.226C837.336 853.333 837.278 853.44 837.213 853.546C830.252 864.373 834.949 891.053 848.383 916.987C861.556 942.4 880.641 961.586 893.761 962.6C894.215 962.64 894.641 962.773 895.014 963L963.241 970.333C964.854 970.506 966.014 971.946 965.841 973.56C965.681 975.053 964.401 976.173 962.934 976.173Z" fill="black"/>
<path d="M967.548 973.267C944.841 971.653 913.148 939.507 890.121 895.093C865.743 848.04 860.021 799.36 874.935 782.027L835.008 851.427L834.751 851.96C827.208 863.707 831.512 890.787 845.784 918.333C859.899 945.56 879.577 964.44 893.535 965.52L893.108 965.733L967.548 973.267Z" fill="white"/>
<path d="M895.001 962.987L945.948 968.133C926.308 955.666 904.761 929.706 887.534 896.44C870.862 864.28 862.56 830.986 863.948 807L837.388 853.227C837.336 853.333 837.278 853.44 837.213 853.546C830.252 864.373 834.949 891.053 848.383 916.987C861.556 942.4 880.641 961.586 893.761 962.6C894.215 962.64 894.628 962.773 895.001 962.987ZM967.548 976.187C967.481 976.187 967.414 976.187 967.348 976.187C966.774 976.147 966.201 976.08 965.614 976.013L892.814 968.64C892.374 968.6 891.961 968.453 891.588 968.226C876.355 965.786 857.148 946.613 843.185 919.68C828.446 891.24 824.044 863.493 832.189 850.533L832.372 850.16L867.47 789.133C868.832 785.64 870.577 782.613 872.717 780.12C873.701 778.973 875.395 778.773 876.627 779.64C877.859 780.52 878.224 782.187 877.472 783.493L872.6 791.96C864.727 813.16 872.524 854.773 892.721 893.746C914.775 936.306 944.721 967.347 966.241 970.187L967.841 970.346C969.441 970.52 970.601 971.92 970.468 973.52C970.334 975.04 969.054 976.187 967.548 976.187Z" fill="black"/>
<path d="M1099.89 952.413L1105.75 951.253C1073.97 957.867 1023.87 909.973 988.493 841.72C952.427 772.12 945.547 702.613 971.133 682.107L967.867 685.493L875.191 781.733C859.956 798.8 865.601 847.773 890.12 895.093C913.787 940.76 947.227 973.227 970 973.107L1099.89 952.413Z" fill="#051832"/>
<path d="M956.122 701.92L877.3 783.773C862.584 800.253 869.326 848.6 892.722 893.746C915.655 938 948.015 970.08 969.775 970.173L1084.41 951.92C1053.48 941.026 1015.32 899.84 985.895 843.066C957.948 789.146 947.215 734.16 956.122 701.92ZM969.882 976.026C945.668 976.026 911.828 943.346 887.535 896.44C862.68 848.493 856.439 798.346 873.008 779.786L963.895 685.4C965.522 683.28 967.322 681.413 969.308 679.826C970.508 678.853 972.255 678.986 973.295 680.133C974.335 681.28 974.308 683.026 973.242 684.133L967.975 689.6C949.455 714.453 958.682 777.826 991.095 840.373C1026.08 907.866 1074.81 954.173 1104.75 948.466L1105.17 948.386C1106.75 948.053 1108.29 949.08 1108.61 950.666C1108.93 952.24 1107.92 953.786 1106.33 954.12C1106.19 954.146 1106.04 954.173 1105.88 954.2L1100.47 955.293C1100.44 955.293 1100.4 955.306 1100.36 955.306L970.468 975.986C970.268 976.013 970.068 976.026 969.882 976.026Z" fill="black"/>
<path d="M1527.35 448.893C1506.45 459.613 1509.53 509.08 1536.19 558.333C1580.88 640.92 1616.41 631.146 1620.59 629.64C1620.67 629.613 1620.71 629.72 1620.64 629.773L1543.91 691.52C1521.41 659.906 1499.88 624.733 1480.21 586.773C1461.35 550.387 1445.59 514.093 1433 478.946L1527.35 448.893Z" fill="#051832"/>
<path d="M1436.77 480.813C1449.41 515.666 1464.89 550.84 1482.81 585.426C1501.51 621.493 1522.24 655.746 1544.49 687.293L1611.04 633.733C1595.79 633 1567.15 621.68 1533.61 559.72C1514.19 523.826 1506.17 485.946 1513.23 463.2C1514.13 460.266 1515.25 457.666 1516.61 455.386L1436.77 480.813ZM1543.91 694.453C1543.77 694.453 1543.64 694.44 1543.51 694.413C1542.71 694.306 1541.99 693.88 1541.52 693.226C1518.43 660.746 1496.93 625.386 1477.61 588.12C1459.08 552.36 1443.15 515.96 1430.24 479.933C1429.97 479.186 1430.01 478.36 1430.37 477.64C1430.72 476.933 1431.35 476.4 1432.11 476.146L1526.45 446.106C1527.91 445.653 1529.47 446.373 1530.05 447.786C1530.63 449.186 1530.03 450.813 1528.68 451.506C1524.17 453.813 1520.85 458.333 1518.81 464.933C1512.32 485.92 1520.33 522.893 1538.76 556.946C1582.36 637.493 1615.91 628.213 1619.6 626.893C1620.92 626.413 1622.48 626.973 1623.19 628.2C1623.92 629.44 1623.61 631.12 1622.49 632.04L1545.75 693.8C1545.23 694.226 1544.57 694.453 1543.91 694.453Z" fill="#051832"/>
<path d="M1322.03 1022.77C1311.48 1024.85 1281.99 1043.05 1283.57 1091.51C1284.57 1121.8 1306.76 1135.08 1323.25 1140.77C1334.75 1144.75 1343.84 1153.68 1347.56 1165.24L1356.36 1192.57C1356.36 1192.57 1414.63 1004.51 1322.03 1022.77Z" fill="white"/>
<path d="M1334.07 1024.43C1330.52 1024.43 1326.69 1024.84 1322.6 1025.64C1314.56 1027.23 1284.92 1043.03 1286.51 1091.41C1287.43 1119.48 1307.52 1132.24 1324.21 1138.01C1336.65 1142.31 1346.43 1152.16 1350.35 1164.35L1356.19 1182.49C1364.07 1153.55 1385.31 1064.6 1358.15 1034.43C1352.13 1027.73 1344.2 1024.43 1334.07 1024.43ZM1356.36 1195.51C1355.09 1195.51 1353.96 1194.68 1353.57 1193.48L1344.77 1166.15C1341.36 1155.53 1333.17 1147.31 1322.31 1143.55C1296.25 1134.55 1281.45 1116.09 1280.65 1091.61C1279.08 1043.81 1307.47 1022.67 1321.47 1019.89C1339.21 1016.4 1353.03 1019.97 1362.51 1030.51C1397.16 1069.03 1360.72 1188.39 1359.16 1193.44C1358.77 1194.67 1357.65 1195.49 1356.37 1195.51H1356.36Z" fill="#051832"/>
<path d="M482.613 1032.01C482.613 1032.01 523.215 1051.75 547.764 1089.33C572.313 1126.92 645.961 1183.29 663.9 1177.67C681.84 1172.03 666.733 1133.49 659.18 1108.12C651.627 1082.76 630.955 1064.69 630.955 1064.69C630.955 1064.69 648.793 1015.57 660.124 985.973C665.769 971.226 670.329 955.68 673.392 944.213C675.972 934.56 685.468 928.453 695.384 930.013C713.121 932.813 739.401 935.547 750.767 929.587C763.7 922.813 760.931 882.947 758.376 861.227C757.365 852.64 759.583 843.933 764.692 836.933C767.309 833.347 770.341 826.306 771.192 823.48C771.192 823.48 770.241 820 753.245 806.613C736.249 793.213 734.148 769.707 732.356 762.56C721.733 720.28 699.78 691.733 686.325 683.626C686.325 683.626 670.747 785.813 634.631 805.546C634.631 805.546 619.759 816.12 593.557 799.92C593.557 799.92 570.189 791.453 561.691 809.787C553.193 828.107 580.103 861.933 568.772 906.333C563.097 928.573 528.88 1018.85 482.613 1032.01Z" fill="white"/>
<path d="M489.789 1032.55C502.101 1039.55 530.837 1058.07 550.215 1087.73C575.607 1126.61 647.867 1179.64 663.023 1174.87C664.999 1174.25 671.015 1172.36 668.991 1155.8C667.667 1144.97 663.405 1131.45 659.644 1119.52C658.485 1115.84 657.365 1112.29 656.375 1108.96C649.147 1084.68 629.228 1067.07 629.028 1066.89C628.119 1066.11 627.789 1064.83 628.203 1063.69C628.381 1063.2 646.181 1014.21 657.389 984.92C663.125 969.946 667.72 954.106 670.563 943.466C673.536 932.333 684.397 925.306 695.841 927.133C722.261 931.293 741.287 931.24 749.409 927C757.52 922.746 759.787 898.293 755.471 861.573C754.361 852.146 756.797 842.786 762.328 835.213C764.413 832.346 766.867 826.906 767.981 823.84C766.78 822.266 762.937 817.973 751.436 808.906C736.047 796.786 732.183 776.786 730.327 767.173C730.02 765.6 729.767 764.28 729.517 763.28C719.737 724.346 700.571 698.48 688.451 688.72C684.88 709.293 668.959 789.96 636.157 808.053C634.268 809.293 618.493 818.64 592.297 802.573C589.733 801.72 571.237 796.146 564.347 811.013C561.128 817.946 563.885 828.12 567.377 841C572.217 858.853 578.24 881.066 571.608 907.053C567.164 924.48 535.839 1012.59 489.789 1032.55ZM661.313 1180.93C636.992 1180.93 567.835 1125.41 545.312 1090.93C521.515 1054.49 481.732 1034.84 481.333 1034.64C480.244 1034.11 479.593 1032.96 479.699 1031.76C479.805 1030.55 480.647 1029.53 481.813 1029.2C524.555 1017.04 558.908 933.16 565.937 905.613C572.187 881.12 566.388 859.72 561.727 842.533C557.924 828.506 554.92 817.426 559.036 808.546C566.648 792.12 585.597 793.92 594.555 797.16C594.744 797.226 594.925 797.32 595.097 797.426C619.105 812.28 632.399 803.533 632.956 803.146C633.036 803.093 633.141 803.026 633.227 802.986C667.672 784.16 683.277 684.2 683.431 683.186C683.579 682.226 684.199 681.4 685.081 680.986C685.971 680.56 686.999 680.626 687.835 681.12C700.661 688.853 723.857 716.72 735.193 761.853C735.464 762.92 735.744 764.36 736.072 766.066C737.928 775.666 741.381 793.533 755.056 804.306C766.505 813.333 773.237 819.866 774.016 822.706C774.16 823.24 774.152 823.8 773.995 824.333C773.128 827.2 769.983 834.653 767.055 838.666C762.397 845.04 760.349 852.933 761.283 860.893C764.643 889.466 765.78 925.026 752.124 932.186C740.299 938.373 714.493 936 694.928 932.906C686.456 931.56 678.413 936.76 676.22 944.973C673.339 955.746 668.683 971.8 662.857 987.013C652.896 1013.04 637.716 1054.67 634.371 1063.87C639.375 1068.61 655.383 1085.12 661.985 1107.29C662.968 1110.59 664.077 1114.11 665.227 1117.76C669.064 1129.93 673.413 1143.72 674.803 1155.09C676.535 1169.28 673.164 1177.81 664.777 1180.45C663.757 1180.77 662.597 1180.93 661.313 1180.93Z" fill="#051832"/>
<path d="M630.561 1103.84C629.354 1103.84 628.223 1103.08 627.801 1101.88C627.517 1101.07 620.975 1081.93 629.714 1059.72C630.306 1058.21 632.003 1057.47 633.507 1058.07C635.013 1058.65 635.753 1060.35 635.162 1061.85C627.213 1082.07 633.261 1099.76 633.322 1099.93C633.858 1101.47 633.057 1103.13 631.531 1103.67C631.211 1103.79 630.884 1103.84 630.561 1103.84Z" fill="black"/>
<path d="M605.665 878.36C586.315 878.36 570.059 858.68 563.137 845.867C562.37 844.44 562.898 842.666 564.321 841.906C565.735 841.133 567.514 841.653 568.286 843.08C568.508 843.493 590.687 883.707 617.299 869.427C618.721 868.653 620.499 869.186 621.262 870.613C622.026 872.04 621.494 873.813 620.069 874.573C615.149 877.226 610.315 878.36 605.665 878.36Z" fill="black"/>
<path d="M1629.65 985.827C1619.93 985.827 1611.89 993.56 1611.64 1003.28C1611.52 1008.07 1613.28 1012.61 1616.59 1016.09C1619.91 1019.56 1624.39 1021.55 1629.2 1021.67C1629.36 1021.68 1629.52 1021.68 1629.67 1021.68C1639.4 1021.68 1647.44 1013.93 1647.69 1004.21C1647.81 999.426 1646.05 994.88 1642.74 991.413C1639.42 987.933 1634.95 985.947 1630.13 985.827C1629.97 985.827 1629.81 985.827 1629.65 985.827ZM1629.68 1027.53C1629.46 1027.53 1629.25 1027.53 1629.05 1027.52C1622.68 1027.36 1616.74 1024.73 1612.34 1020.13C1607.96 1015.52 1605.63 1009.48 1605.79 1003.13C1606.12 990.24 1616.77 979.973 1629.65 979.973C1629.87 979.973 1630.06 979.973 1630.28 979.973C1636.65 980.133 1642.58 982.76 1646.97 987.36C1651.37 991.973 1653.7 998.013 1653.54 1004.36C1653.2 1017.27 1642.56 1027.53 1629.68 1027.53Z" fill="#051832"/>
<path d="M1879.97 434.347C1878.92 434.347 1877.91 433.787 1877.39 432.787C1876.63 431.36 1877.17 429.587 1878.6 428.827L2052.19 336.52C2053.61 335.76 2055.39 336.307 2056.15 337.733C2056.91 339.16 2056.36 340.933 2054.93 341.693L1881.35 434C1880.91 434.24 1880.44 434.347 1879.97 434.347Z" fill="#051832"/>
<path d="M965.175 219.133C964.121 219.133 963.108 218.573 962.588 217.587C961.828 216.16 962.361 214.387 963.788 213.627C1183.68 96.6932 1335.91 15.72 1335.91 15.72C1337.33 14.96 1339.11 15.5066 1339.87 16.9333C1340.63 18.36 1340.08 20.1332 1338.65 20.8932C1338.65 20.8932 1186.44 101.867 966.535 218.8C966.108 219.027 965.628 219.133 965.175 219.133Z" fill="#051832"/>
<path d="M915.667 366.293C914.614 366.293 913.6 365.733 913.08 364.747C912.32 363.32 912.854 361.547 914.28 360.787L1177.85 220.6C1179.29 219.84 1181.05 220.387 1181.81 221.813C1182.57 223.24 1182.04 225.013 1180.61 225.773L917.027 365.947C916.6 366.187 916.12 366.293 915.667 366.293Z" fill="#051832"/>
<path d="M1125.51 1634.88C1124.47 1634.88 1123.44 1634.31 1122.92 1633.32C1122.16 1631.89 1122.71 1630.12 1124.13 1629.36C1349.08 1509.75 1505.67 1426.45 1505.67 1426.45C1507.09 1425.69 1508.87 1426.24 1509.63 1427.67C1510.39 1429.09 1509.84 1430.87 1508.41 1431.63C1508.41 1431.63 1351.83 1514.91 1126.88 1634.53C1126.44 1634.77 1125.97 1634.88 1125.51 1634.88Z" fill="#051832"/>
<path d="M1344.32 1399.77C1343.28 1399.77 1342.27 1399.21 1341.73 1398.23C1340.97 1396.8 1341.52 1395.03 1342.95 1394.27C1618.75 1247.61 1821.76 1139.63 1821.76 1139.63C1823.19 1138.87 1824.96 1139.41 1825.72 1140.84C1826.48 1142.27 1825.93 1144.04 1824.51 1144.8C1824.51 1144.8 1621.49 1252.77 1345.69 1399.43C1345.27 1399.67 1344.79 1399.77 1344.32 1399.77Z" fill="#051832"/>
<path d="M1138.12 1951.92C1138.12 1940.68 1147.28 1931.57 1158.57 1931.57C1169.85 1931.57 1179.01 1940.68 1179.01 1951.92C1179.01 1963.15 1169.85 1972.25 1158.57 1972.25C1147.28 1972.25 1138.12 1963.15 1138.12 1951.92Z" fill="#051832"/>
<path d="M2111.2 2395.55H1727.59C1709.35 2395.55 1694.56 2380.76 1694.56 2362.52V1485.48C1694.56 1467.24 1709.35 1452.45 1727.59 1452.45H2111.2C2129.44 1452.45 2144.23 1467.24 2144.23 1485.48V2362.52C2144.23 2380.76 2129.44 2395.55 2111.2 2395.55Z" fill="white"/>
<path d="M1727.59 1455.39C1710.99 1455.39 1697.49 1468.88 1697.49 1485.48V2362.52C1697.49 2379.11 1710.99 2392.61 1727.59 2392.61H2111.2C2127.8 2392.61 2141.29 2379.11 2141.29 2362.52V1485.48C2141.29 1468.88 2127.8 1455.39 2111.2 1455.39H1727.59ZM2111.2 2398.47H1727.59C1707.76 2398.47 1691.64 2382.35 1691.64 2362.52V1485.48C1691.64 1465.65 1707.76 1449.53 1727.59 1449.53H2111.2C2131.03 1449.53 2147.15 1465.65 2147.15 1485.48V2362.52C2147.15 2382.35 2131.03 2398.47 2111.2 2398.47Z" fill="#051832"/>
<path d="M1924.64 2389.12C1923.04 2389.12 1921.73 2387.83 1921.72 2386.21L1914.69 1487.65C1914.68 1486.03 1915.97 1484.71 1917.58 1484.69C1917.6 1484.69 1917.61 1484.69 1917.61 1484.69C1919.22 1484.69 1920.53 1486 1920.54 1487.6L1927.57 2386.17C1927.59 2387.79 1926.28 2389.11 1924.66 2389.12C1924.66 2389.12 1924.65 2389.12 1924.64 2389.12Z" fill="#051832"/>
<path d="M1814.8 1526.6C1782.24 1526.6 1755.75 1553.09 1755.75 1585.67C1755.75 1618.23 1782.24 1644.72 1814.8 1644.72C1847.37 1644.72 1873.87 1618.23 1873.87 1585.67C1873.87 1553.09 1847.37 1526.6 1814.8 1526.6ZM1814.8 1650.57C1779.01 1650.57 1749.89 1621.45 1749.89 1585.67C1749.89 1549.87 1779.01 1520.75 1814.8 1520.75C1850.6 1520.75 1879.72 1549.87 1879.72 1585.67C1879.72 1621.45 1850.6 1650.57 1814.8 1650.57Z" fill="#051832"/>
<path d="M1813.49 1696.71C1780.92 1696.71 1754.43 1723.2 1754.43 1755.77C1754.43 1788.33 1780.92 1814.83 1813.49 1814.83C1846.05 1814.83 1872.55 1788.33 1872.55 1755.77C1872.55 1723.2 1846.05 1696.71 1813.49 1696.71ZM1813.49 1820.68C1777.69 1820.68 1748.57 1791.56 1748.57 1755.77C1748.57 1719.97 1777.69 1690.85 1813.49 1690.85C1849.28 1690.85 1878.4 1719.97 1878.4 1755.77C1878.4 1791.56 1849.28 1820.68 1813.49 1820.68Z" fill="#051832"/>
<path d="M1813.05 1865.93C1780.48 1865.93 1753.99 1892.43 1753.99 1925C1753.99 1957.56 1780.48 1984.05 1813.05 1984.05C1845.61 1984.05 1872.11 1957.56 1872.11 1925C1872.11 1892.43 1845.61 1865.93 1813.05 1865.93ZM1813.05 1989.91C1777.25 1989.91 1748.13 1960.79 1748.13 1925C1748.13 1889.2 1777.25 1860.08 1813.05 1860.08C1848.84 1860.08 1877.96 1889.2 1877.96 1925C1877.96 1960.79 1848.84 1989.91 1813.05 1989.91Z" fill="#051832"/>
<path d="M1811.73 2041.33C1779.16 2041.33 1752.67 2067.83 1752.67 2100.39C1752.67 2132.95 1779.16 2159.44 1811.73 2159.44C1844.29 2159.44 1870.79 2132.95 1870.79 2100.39C1870.79 2067.83 1844.29 2041.33 1811.73 2041.33ZM1811.73 2165.29C1775.93 2165.29 1746.81 2136.17 1746.81 2100.39C1746.81 2064.6 1775.93 2035.48 1811.73 2035.48C1847.52 2035.48 1876.64 2064.6 1876.64 2100.39C1876.64 2136.17 1847.52 2165.29 1811.73 2165.29Z" fill="#051832"/>
<path d="M1811.73 2222.44C1779.16 2222.44 1752.67 2248.93 1752.67 2281.51C1752.67 2314.07 1779.16 2340.56 1811.73 2340.56C1844.29 2340.56 1870.79 2314.07 1870.79 2281.51C1870.79 2248.93 1844.29 2222.44 1811.73 2222.44ZM1811.73 2346.41C1775.93 2346.41 1746.81 2317.29 1746.81 2281.51C1746.81 2245.71 1775.93 2216.59 1811.73 2216.59C1847.52 2216.59 1876.64 2245.71 1876.64 2281.51C1876.64 2317.29 1847.52 2346.41 1811.73 2346.41Z" fill="#051832"/>
<path d="M2085.23 1586.53C2085.23 1620.77 2057.47 1648.52 2023.24 1648.52C1989 1648.52 1961.25 1620.77 1961.25 1586.53C1961.25 1552.31 1989 1524.55 2023.24 1524.55C2057.47 1524.55 2085.23 1552.31 2085.23 1586.53Z" fill="white"/>
<path d="M2083.91 1756.65C2083.91 1790.88 2056.15 1818.63 2021.92 1818.63C1987.68 1818.63 1959.93 1790.88 1959.93 1756.65C1959.93 1722.41 1987.68 1694.67 2021.92 1694.67C2056.15 1694.67 2083.91 1722.41 2083.91 1756.65Z" fill="white"/>
<path d="M2083.47 1925.88C2083.47 1960.11 2055.71 1987.85 2021.48 1987.85C1987.24 1987.85 1959.49 1960.11 1959.49 1925.88C1959.49 1891.64 1987.24 1863.89 2021.48 1863.89C2055.71 1863.89 2083.47 1891.64 2083.47 1925.88Z" fill="white"/>
<path d="M2082.15 2101.27C2082.15 2135.49 2054.38 2163.25 2020.16 2163.25C1985.92 2163.25 1958.17 2135.49 1958.17 2101.27C1958.17 2067.03 1985.92 2039.28 2020.16 2039.28C2054.38 2039.28 2082.15 2067.03 2082.15 2101.27Z" fill="white"/>
<path d="M2082.15 2282.39C2082.15 2316.61 2054.38 2344.36 2020.16 2344.36C1985.92 2344.36 1958.17 2316.61 1958.17 2282.39C1958.17 2248.15 1985.92 2220.4 2020.16 2220.4C2054.38 2220.4 2082.15 2248.15 2082.15 2282.39Z" fill="white"/>
<path d="M2391.35 1591.21H1967.99C1967.99 1591.21 1966.12 2397.81 1966.24 2403C1966.69 2423.64 2061.95 2440.13 2179.93 2440.13C2297.92 2440.13 2392.65 2423.75 2393.49 2403.12C2393.89 2393.12 2391.35 1591.21 2391.35 1591.21Z" fill="white"/>
<path d="M2389.21 2130.59C2241.76 2168.67 2101.39 2167.8 1968.88 2130.59V1889.6C2123.37 1921.99 2264.55 1926.95 2389.21 1889.6V2130.59Z" fill="#0D0D0D"/>
<path d="M1970.91 1592.6C1970.79 1645.93 1969.05 2396.6 1969.16 2402.16C1969.52 2418.55 2056.17 2436.81 2179.93 2436.81C2303.23 2436.81 2389.89 2418.48 2390.56 2402.04C2390.96 2392.52 2388.59 1645.75 2388.43 1592.6H1970.91ZM2179.93 2442.67C2075.35 2442.67 1963.89 2428.52 1963.31 2402.29C1963.2 2397.13 1964.99 1622.63 1965.07 1589.67C1965.07 1588.05 1966.37 1586.75 1967.99 1586.75H2391.35C2392.95 1586.75 2394.27 1588.04 2394.27 1589.65C2394.37 1622.43 2396.83 2392.32 2396.41 2402.28C2395.35 2428.51 2284.08 2442.67 2179.93 2442.67Z" fill="#051832"/>
<path d="M2415.84 1541.24C2415.84 1552.6 2309.52 1561.81 2178.36 1561.81C2047.2 1561.81 1940.88 1552.6 1940.88 1541.24C1940.88 1529.87 2047.2 1520.65 2178.36 1520.65C2309.52 1520.65 2415.84 1529.87 2415.84 1541.24Z" fill="black"/>
<path d="M2414.04 1539.49H1940.88L1941.16 1624.51C1941.08 1624.71 1941.04 1625.36 1941.04 1625.57C1941.04 1636.93 2045.24 1647.84 2176.4 1647.84C2307.56 1647.84 2413.88 1638.73 2413.88 1627.36C2413.88 1627.07 2413.79 1625.95 2413.64 1625.64L2414.04 1539.49Z" fill="black"/>
<path d="M1957.8 1627.96H1957.35C1954.85 1627.96 1952.8 1625.92 1952.8 1623.41V1560.49C1952.8 1557.99 1954.85 1555.93 1957.35 1555.93H1957.8C1960.31 1555.93 1962.35 1557.99 1962.35 1560.49V1623.41C1962.35 1625.92 1960.31 1627.96 1957.8 1627.96Z" fill="white"/>
<path d="M1984.51 1633.84H1984.05C1981.55 1633.84 1979.51 1631.8 1979.51 1629.29V1566.37C1979.51 1563.87 1981.55 1561.81 1984.05 1561.81H1984.51C1987.01 1561.81 1989.05 1563.87 1989.05 1566.37V1629.29C1989.05 1631.8 1987.01 1633.84 1984.51 1633.84Z" fill="white"/>
<path d="M2010.96 1636.79H2010.52C2008.01 1636.79 2005.96 1634.73 2005.96 1632.23V1569.31C2005.96 1566.8 2008.01 1564.76 2010.52 1564.76H2010.96C2013.47 1564.76 2015.52 1566.8 2015.52 1569.31V1632.23C2015.52 1634.73 2013.47 1636.79 2010.96 1636.79Z" fill="white"/>
<path d="M2038.4 1638.75H2037.96C2035.45 1638.75 2033.4 1636.69 2033.4 1634.19V1571.27C2033.4 1568.76 2035.45 1566.72 2037.96 1566.72H2038.4C2040.91 1566.72 2042.96 1568.76 2042.96 1571.27V1634.19C2042.96 1636.69 2040.91 1638.75 2038.4 1638.75Z" fill="white"/>
<path d="M2066.33 1640.21H2065.88C2063.39 1640.21 2061.33 1638.16 2061.33 1635.67V1572.73C2061.33 1570.24 2063.39 1568.19 2065.88 1568.19H2066.33C2068.84 1568.19 2070.89 1570.24 2070.89 1572.73V1635.67C2070.89 1638.16 2068.84 1640.21 2066.33 1640.21Z" fill="white"/>
<path d="M2092.79 1641.68H2092.35C2089.84 1641.68 2087.79 1639.64 2087.79 1637.13V1574.21C2087.79 1571.71 2089.84 1569.65 2092.35 1569.65H2092.79C2095.29 1569.65 2097.35 1571.71 2097.35 1574.21V1637.13C2097.35 1639.64 2095.29 1641.68 2092.79 1641.68Z" fill="white"/>
<path d="M2119.25 1642.67H2118.8C2116.29 1642.67 2114.25 1640.61 2114.25 1638.11V1575.19C2114.25 1572.68 2116.29 1570.64 2118.8 1570.64H2119.25C2121.76 1570.64 2123.8 1572.68 2123.8 1575.19V1638.11C2123.8 1640.61 2121.76 1642.67 2119.25 1642.67Z" fill="white"/>
<path d="M2148.16 1642.17H2147.72C2145.21 1642.17 2143.16 1640.12 2143.16 1637.61V1574.69C2143.16 1572.2 2145.21 1570.15 2147.72 1570.15H2148.16C2150.67 1570.15 2152.72 1572.2 2152.72 1574.69V1637.61C2152.72 1640.12 2150.67 1642.17 2148.16 1642.17Z" fill="white"/>
<path d="M2180.01 1642.67H2179.56C2177.05 1642.67 2175.01 1640.61 2175.01 1638.11V1575.19C2175.01 1572.68 2177.05 1570.64 2179.56 1570.64H2180.01C2182.52 1570.64 2184.56 1572.68 2184.56 1575.19V1638.11C2184.56 1640.61 2182.52 1642.67 2180.01 1642.67Z" fill="white"/>
<path d="M2399.57 1627.47H2400.01C2402.52 1627.47 2404.57 1625.43 2404.57 1622.92V1560C2404.57 1557.49 2402.52 1555.44 2400.01 1555.44H2399.57C2397.07 1555.44 2395.01 1557.49 2395.01 1560V1622.92C2395.01 1625.43 2397.07 1627.47 2399.57 1627.47Z" fill="white"/>
<path d="M2372.86 1633.35H2373.3C2375.81 1633.35 2377.86 1631.31 2377.86 1628.8V1565.88C2377.86 1563.37 2375.81 1561.32 2373.3 1561.32H2372.86C2370.36 1561.32 2368.3 1563.37 2368.3 1565.88V1628.8C2368.3 1631.31 2370.36 1633.35 2372.86 1633.35Z" fill="white"/>
<path d="M2346.4 1636.29H2346.85C2349.36 1636.29 2351.4 1634.24 2351.4 1631.73V1568.81C2351.4 1566.31 2349.36 1564.27 2346.85 1564.27H2346.4C2343.89 1564.27 2341.85 1566.31 2341.85 1568.81V1631.73C2341.85 1634.24 2343.89 1636.29 2346.4 1636.29Z" fill="white"/>
<path d="M2318.96 1638.25H2319.41C2321.92 1638.25 2323.96 1636.2 2323.96 1633.69V1570.77C2323.96 1568.28 2321.92 1566.23 2319.41 1566.23H2318.96C2316.47 1566.23 2314.41 1568.28 2314.41 1570.77V1633.69C2314.41 1636.2 2316.47 1638.25 2318.96 1638.25Z" fill="white"/>
<path d="M2291.04 1639.72H2291.48C2293.99 1639.72 2296.04 1637.68 2296.04 1635.17V1572.25C2296.04 1569.75 2293.99 1567.69 2291.48 1567.69H2291.04C2288.53 1567.69 2286.48 1569.75 2286.48 1572.25V1635.17C2286.48 1637.68 2288.53 1639.72 2291.04 1639.72Z" fill="white"/>
<path d="M2264.57 1641.2H2265.03C2267.53 1641.2 2269.57 1639.15 2269.57 1636.64V1573.72C2269.57 1571.21 2267.53 1569.16 2265.03 1569.16H2264.57C2262.07 1569.16 2260.03 1571.21 2260.03 1573.72V1636.64C2260.03 1639.15 2262.07 1641.2 2264.57 1641.2Z" fill="white"/>
<path d="M2238.12 1642.17H2238.56C2241.07 1642.17 2243.12 1640.12 2243.12 1637.61V1574.69C2243.12 1572.19 2241.07 1570.15 2238.56 1570.15H2238.12C2235.61 1570.15 2233.56 1572.19 2233.56 1574.69V1637.61C2233.56 1640.12 2235.61 1642.17 2238.12 1642.17Z" fill="white"/>
<path d="M2209.21 1641.68H2209.65C2212.16 1641.68 2214.21 1639.63 2214.21 1637.13V1574.21C2214.21 1571.71 2212.16 1569.65 2209.65 1569.65H2209.21C2206.71 1569.65 2204.65 1571.71 2204.65 1574.21V1637.13C2204.65 1639.63 2206.71 1641.68 2209.21 1641.68Z" fill="white"/>
<path d="M2176.43 1651.01C2113.95 1651.01 2054.59 1648.61 2009.28 1644.24C1938.16 1637.4 1938.16 1629.45 1938.16 1626.07C1938.16 1625.63 1938.23 1625.27 1938.32 1624.99L1938.12 1541.47C1938.12 1539.85 1939.43 1538.53 1941.04 1538.53C1942.65 1538.53 1943.97 1539.84 1943.97 1541.45L1944.17 1625.48C1944.17 1625.64 1944.16 1625.8 1944.13 1625.96C1950.83 1634.07 2041.07 1645.16 2176.43 1645.16C2320.27 1645.16 2404.11 1634.93 2410.83 1627.37C2410.76 1627.12 2410.72 1626.88 2410.72 1626.68L2411.11 1541.44C2411.12 1539.84 2412.43 1538.53 2414.04 1538.53H2414.05C2415.67 1538.55 2416.97 1539.85 2416.96 1541.48L2416.57 1626.08C2416.71 1626.45 2416.81 1626.92 2416.81 1627.49C2416.81 1631.12 2416.81 1638.69 2344.6 1644.96C2299.65 1648.87 2239.93 1651.01 2176.43 1651.01Z" fill="black"/>
<path d="M1944.05 1541.24C1951.52 1548.77 2035.25 1558.89 2178.36 1558.89C2321.47 1558.89 2405.2 1548.77 2412.67 1541.24C2405.19 1533.69 2321.47 1523.59 2178.36 1523.59C2035.25 1523.59 1951.53 1533.69 1944.05 1541.24ZM2178.36 1564.75C2114.84 1564.75 2055.12 1562.6 2010.19 1558.71C1937.95 1552.44 1937.95 1544.88 1937.95 1541.24C1937.95 1537.6 1937.95 1530.03 2010.19 1523.77C2055.12 1519.87 2114.85 1517.73 2178.36 1517.73C2241.87 1517.73 2301.6 1519.87 2346.53 1523.77C2418.77 1530.03 2418.77 1537.6 2418.77 1541.24C2418.77 1544.88 2418.77 1552.44 2346.53 1558.71C2301.6 1562.6 2241.88 1564.75 2178.36 1564.75Z" fill="white"/>
<path d="M1973.03 843.626C1995.97 775.773 2069.69 739.053 2137.68 761.613C2205.67 784.173 2242.19 857.466 2219.24 925.32C2196.29 993.173 2122.57 1029.89 2054.59 1007.33C1986.59 984.773 1950.08 911.48 1973.03 843.626Z" fill="white"/>
<path d="M2096.8 757.92C2043.59 757.92 1993.72 791.533 1975.8 844.56C1964.95 876.627 1967.27 910.933 1982.32 941.147C1997.37 971.373 2023.36 993.88 2055.51 1004.55C2121.87 1026.57 2194.07 990.6 2216.47 924.387C2227.31 892.307 2224.99 858.013 2209.95 827.8C2194.89 797.573 2168.89 775.053 2136.76 764.387C2123.53 760 2110.05 757.92 2096.8 757.92ZM2095.44 1016.88C2081.57 1016.88 2067.49 1014.69 2053.67 1010.11C2020.03 998.947 1992.83 975.387 1977.08 943.76C1961.32 912.133 1958.91 876.24 1970.25 842.68C1993.68 773.427 2069.2 735.8 2138.6 758.84C2172.23 770 2199.43 793.56 2215.17 825.187C2230.93 856.8 2233.36 892.693 2222.01 926.253C2203.25 981.707 2151.11 1016.88 2095.44 1016.88Z" fill="black"/>
<path d="M2162.4 863.466C2161.08 895.866 2106.31 971.626 2093.2 989.306C2091.85 991.133 2089.11 991.013 2087.92 989.093C2079.59 975.706 2052.37 930.933 2038.07 894.693C2032.4 880.306 2028.75 867.28 2029.12 858.08C2030.61 821.266 2061.65 792.64 2098.45 794.133C2135.27 795.626 2163.89 826.666 2162.4 863.466Z" fill="black"/>
<path d="M2126.23 862.013C2125.55 878.84 2111.36 891.92 2094.52 891.24C2077.7 890.56 2064.61 876.373 2065.29 859.533C2065.97 842.706 2080.16 829.626 2097 830.306C2113.83 830.986 2126.91 845.173 2126.23 862.013Z" fill="white"/>
</svg>
