<svg width="412" height="423" viewBox="0 0 412 423" fill="none" xmlns="http://www.w3.org/2000/svg">
<path d="M364.563 336.641H217.204C212.688 336.641 209.391 332.308 210.532 327.875L236.579 227.073C237.376 224 240.115 221.854 243.251 221.854H390.605C395.131 221.854 398.423 226.188 397.282 230.62L371.235 331.417C370.443 334.495 367.699 336.641 364.563 336.641Z" fill="black"/>
<path d="M360.126 335.813H212.772C208.251 335.813 204.954 331.542 206.094 327.172L232.141 227.828C232.933 224.802 235.678 222.688 238.813 222.688H386.173C390.693 222.688 393.99 226.958 392.844 231.323L366.798 330.667C366.006 333.698 363.261 335.813 360.126 335.813Z" fill="#008080"/>
<path d="M238.817 223.458C236.031 223.458 233.599 225.333 232.89 228.026L206.843 327.364C206.364 329.213 206.75 331.14 207.922 332.656C209.088 334.166 210.854 335.036 212.77 335.036H360.125C362.911 335.036 365.349 333.161 366.052 330.468L392.099 231.125C392.583 229.281 392.192 227.354 391.02 225.838C389.859 224.328 388.088 223.458 386.172 223.458H238.817ZM360.125 336.583H212.77C210.375 336.583 208.156 335.494 206.698 333.599C205.234 331.703 204.744 329.291 205.354 326.974L231.395 227.635C232.276 224.265 235.328 221.911 238.817 221.911H386.172C388.573 221.911 390.786 223 392.25 224.896C393.708 226.791 394.203 229.203 393.593 231.515L367.547 330.859C366.666 334.229 363.614 336.583 360.125 336.583Z" fill="#051832"/>
<path d="M282.6 382.479H136.12C134.714 382.479 133.86 381.38 133.818 380.245C133.792 379.422 133.709 375.406 133.709 375.406L201.964 345.229C203.657 344.391 205.521 343.953 207.407 343.953L358.719 341.594C358.719 341.594 358.719 345.063 358.756 346.208C358.777 347.026 358.381 347.854 357.475 348.307L293.454 379.943C290.079 381.609 286.365 382.479 282.6 382.479Z" fill="#051832"/>
<path d="M281.891 377.912H137.089C134.344 377.912 133.475 374.214 135.938 372.995L201.261 340.662C202.954 339.823 204.818 339.386 206.704 339.386H355.631C358.063 339.386 358.829 342.667 356.652 343.745L292.751 375.375C289.376 377.042 285.662 377.912 281.891 377.912Z" fill="white"/>
<path d="M206.703 340.161C204.942 340.161 203.182 340.573 201.604 341.354L136.276 373.687C135.322 374.161 135.156 375.088 135.312 375.734C135.463 376.385 136.02 377.14 137.088 377.14H281.89C285.52 377.14 289.156 376.291 292.406 374.682L356.307 343.052C357.109 342.656 357.249 341.906 357.114 341.338C356.984 340.771 356.52 340.161 355.63 340.161H206.703ZM281.89 378.687H137.088C135.489 378.687 134.171 377.64 133.807 376.088C133.442 374.531 134.161 373.015 135.593 372.307L200.916 339.968C202.703 339.083 204.708 338.614 206.703 338.614H355.63C357.083 338.614 358.291 339.567 358.619 340.989C358.947 342.406 358.296 343.791 356.989 344.437L293.093 376.067C289.624 377.781 285.755 378.687 281.89 378.687Z" fill="#051832"/>
<path d="M182.777 355.49L203.949 345.245C205.215 344.625 206.61 344.308 208.027 344.308H339.485C340.631 344.308 340.985 345.86 339.954 346.354L318.798 356.589C317.782 357.084 316.673 357.339 315.543 357.339L183.246 357.537C182.1 357.537 181.741 355.985 182.777 355.49Z" fill="#008080" fill-opacity="0.4"/>
<path d="M239.959 372.333H199.782C199.022 372.333 198.782 371.307 199.464 370.969L217.589 361.995C218.058 361.766 218.574 361.641 219.1 361.641H260.418C261.089 361.641 261.308 362.552 260.699 362.849L242.97 371.625C242.037 372.089 241.001 372.333 239.959 372.333Z" fill="#008080" fill-opacity="0.4"/>
<path d="M199.022 323.969H359.475L383.891 232.354C388.292 215.859 393.454 199.583 399.376 183.568L404.683 169.208C404.683 169.208 416.99 135.245 391.819 135.995L362.829 136.812C368.907 118.015 375.688 102.734 375.428 94.4373C374.897 77.3279 366.058 74.3227 359.501 74.0311L326.183 74.479C330.47 60.7029 334.569 46.2082 328.277 26.3436C324.334 13.88 315.001 8.62482 303.194 7.76544L300.782 7.66128C222.167 5.86961 186.73 5.47378 157.98 4.15607C129.157 2.82794 108.522 19.3488 108.522 19.3488L18.1414 18.8957C16.4227 18.8852 15.5321 20.9373 16.7039 22.1873L26.7144 32.8227C38.9435 45.8227 55.9956 53.2186 73.8602 53.2602L165.662 53.4998C185.251 53.7498 195.756 49.1925 201.042 46.7602C201.042 46.7602 203.501 61.9842 196.761 73.104C187.699 88.0623 185.194 113.823 201.522 117.187C204.98 117.906 210.985 117.052 224.506 117.057C224.506 117.057 223.917 121.245 223.506 123.193C217.506 151.562 201.308 180.989 198.912 193.776C196.511 206.562 199.412 222.448 210.11 222.948C212.147 223.041 214.115 222.943 226.897 223.104L199.022 323.969Z" fill="white"/>
<path d="M200.036 323.198H358.874L383.145 232.161C387.525 215.708 392.744 199.271 398.645 183.302L403.958 168.937C404.02 168.76 410.504 150.542 404.057 141.635C401.598 138.234 397.489 136.599 391.843 136.766L361.754 137.62L362.093 136.578C363.916 130.937 365.843 125.505 367.541 120.708C371.614 109.213 374.833 100.135 374.656 94.4635C374.254 81.6718 369.286 75.2395 359.463 74.802L325.124 75.2656L325.442 74.2499C330.27 58.7343 333.489 45.3697 327.541 26.5781C324.041 15.5312 315.833 9.45827 303.135 8.54161L300.744 8.43744C275.682 7.86453 255.411 7.44265 237.525 7.07286C200.114 6.29681 177.531 5.82807 157.937 4.92702C129.739 3.63015 109.208 19.7916 109.004 19.9583L108.791 20.1301L108.52 20.1249L18.1347 19.6666C18.1347 19.6666 18.1347 19.6666 18.1295 19.6666C17.6451 19.6666 17.2389 19.9322 17.0462 20.3801C16.8482 20.8281 16.9316 21.3072 17.2649 21.6614L27.2701 32.2968C39.3066 45.0885 56.2857 52.4479 73.8587 52.4947L165.661 52.7291C185.682 52.9791 196.213 48.1354 200.713 46.0624L201.635 45.6354L201.801 46.6406C201.9 47.2708 204.223 62.2708 197.416 73.5051C191.64 83.0364 187.864 98.5729 192.234 108.599C194.114 112.896 197.286 115.531 201.671 116.437C203.546 116.823 206.255 116.724 210.739 116.568C214.223 116.443 218.551 116.286 224.333 116.286C224.39 116.286 224.447 116.286 224.505 116.286H225.39L225.265 117.167C225.244 117.338 224.671 121.396 224.26 123.354C220.739 140.016 213.692 157.088 208.031 170.807C204.067 180.406 200.65 188.687 199.666 193.922C198.15 202 198.661 212.724 203.208 218.479C205.051 220.802 207.38 222.047 210.14 222.177C211.057 222.219 211.937 222.219 213.874 222.229C216.145 222.234 219.937 222.24 226.906 222.333L227.906 222.344L200.036 323.198ZM360.062 324.74H198.01L225.885 223.865C219.557 223.786 216.025 223.776 213.874 223.771C211.911 223.766 211.015 223.766 210.067 223.719C206.843 223.568 204.124 222.13 201.999 219.432C197.145 213.302 196.567 202.057 198.15 193.635C199.161 188.25 202.609 179.896 206.603 170.219C212.239 156.557 219.255 139.557 222.749 123.036C223.036 121.672 223.416 119.161 223.609 117.833C218.213 117.844 214.119 117.99 210.791 118.109C206.192 118.271 203.416 118.37 201.359 117.948C196.525 116.948 192.88 113.932 190.822 109.213C186.244 98.7187 190.119 82.5676 196.098 72.7031C201.624 63.5781 200.796 51.4531 200.406 47.901C195.353 50.1874 184.708 54.5156 165.645 54.2708L73.8535 54.0364C55.8639 53.9947 38.4732 46.4531 26.1503 33.3541L16.1399 22.7187C15.3847 21.9114 15.1868 20.7812 15.6295 19.7656C16.0722 18.7447 17.0462 18.1301 18.1451 18.1249L108.26 18.5781C110.583 16.8176 130.822 2.14057 158.01 3.38536C177.583 4.28119 200.161 4.74994 237.557 5.53119C255.447 5.90098 275.718 6.32286 300.796 6.89577L303.223 6.99994C316.64 7.96869 325.301 14.401 329.015 26.1093C335.4 46.2916 331.031 61.4583 327.234 73.6979L359.489 73.2604C370.166 73.7343 375.775 80.8541 376.197 94.4166C376.385 100.375 373.124 109.578 368.994 121.229C367.406 125.713 365.614 130.766 363.9 136.01L391.796 135.224C397.978 135.036 402.531 136.896 405.307 140.734C412.234 150.302 405.692 168.693 405.411 169.474L400.093 183.838C394.208 199.76 389.004 216.151 384.635 232.557L360.062 324.74Z" fill="#051832"/>
<path d="M184.552 49.1977C184.484 49.1977 184.417 49.1872 184.354 49.1716C171.052 45.6508 162.604 29.9216 159.589 23.3174C158.938 21.8956 157.505 20.9477 155.943 20.9216C146.578 20.7393 123.172 20.2914 108.104 20.1247C107.677 20.1195 107.339 19.7706 107.344 19.3435C107.349 18.9164 107.693 18.5779 108.125 18.5831C123.193 18.7445 146.604 19.1924 155.969 19.3747C158.125 19.4164 160.094 20.7133 160.99 22.6768C163.917 29.0779 172.083 44.3279 184.745 47.6768C185.156 47.7862 185.406 48.2081 185.297 48.6195C185.203 48.9685 184.891 49.1977 184.552 49.1977Z" fill="#051832"/>
<path d="M330.109 117.219C328.458 117.219 326.796 116.906 325.27 116.146C321.661 114.338 317.807 109.39 319.958 96.0727C321.312 87.6925 323.489 80.7237 325.593 73.9893L326.13 72.2654C326.255 71.8591 326.692 71.63 327.099 71.7602C327.505 71.8852 327.734 72.3175 327.609 72.7237L327.067 74.4477C324.979 81.1352 322.817 88.0518 321.484 96.3175C319.901 106.125 321.447 112.505 325.958 114.765C330.718 117.14 337.244 114.364 339.26 112.271C343.166 108.224 345.197 100.588 347.161 93.2029C349.385 84.8539 351.484 76.9581 356.213 74.1925C357.197 73.6091 358.291 73.2914 359.463 73.2446C359.895 73.2237 360.25 73.5571 360.265 73.9841C360.286 74.406 359.958 74.7706 359.531 74.7862C358.614 74.8227 357.76 75.0727 356.989 75.5206C352.812 77.9737 350.791 85.5623 348.656 93.5987C346.64 101.172 344.557 109.005 340.375 113.344C338.677 115.104 334.416 117.219 330.109 117.219Z" fill="black"/>
<path d="M201.099 47.5159C200.807 47.5159 200.526 47.3492 200.396 47.0679C200.219 46.6773 200.391 46.2242 200.776 46.0419C203.807 44.6461 206.807 43.0627 209.693 41.3284L210.281 40.9794C232.865 27.4065 274.979 4.94815 303.25 6.99503C303.672 7.02628 303.995 7.39607 303.964 7.82315C303.932 8.24503 303.563 8.56795 303.141 8.5367C275.287 6.51586 233.505 28.8232 211.073 42.3023L210.49 42.6565C207.557 44.4117 204.505 46.0263 201.422 47.4429C201.318 47.4898 201.208 47.5159 201.099 47.5159Z" fill="#051832"/>
<path d="M224.505 117.833C224.083 117.833 223.744 117.495 223.729 117.078C223.718 116.656 224.057 116.297 224.484 116.287C256.588 115.422 328.651 115.667 329.38 115.667C329.802 115.667 330.151 116.016 330.145 116.443C330.14 116.87 329.796 117.208 329.375 117.208C328.645 117.208 256.604 116.964 224.526 117.833C224.515 117.833 224.51 117.833 224.505 117.833Z" fill="black"/>
<path d="M354.119 224.239C352.614 224.239 351.109 223.948 349.687 223.323C346.494 221.932 336.682 215.463 344.327 190.713C347.437 180.651 351.234 169.271 354.906 158.265C357.322 151.015 359.827 143.51 362.088 136.51C362.223 136.104 362.656 135.88 363.062 136.015C363.468 136.146 363.692 136.578 363.562 136.984C361.291 143.994 358.791 151.5 356.369 158.76C352.702 169.75 348.911 181.119 345.807 191.166C340.031 209.864 344.343 219.307 350.301 221.911C354.921 223.927 360.583 221.963 363.192 217.442C365.202 213.963 366.525 204.099 368.062 192.672C371.463 167.359 375.692 135.854 390.734 135.114C391.104 135.099 391.463 135.083 391.812 135.083C391.812 135.083 391.812 135.083 391.817 135.083C392.239 135.083 392.583 135.427 392.588 135.854C392.588 136.276 392.249 136.625 391.822 136.625C391.489 136.63 391.156 136.64 390.807 136.656C377.051 137.333 372.739 169.437 369.593 192.875C367.968 204.942 366.692 214.474 364.531 218.213C362.333 222.021 358.244 224.239 354.119 224.239Z" fill="black"/>
<path d="M300.115 224.636C297.88 224.636 295.615 224.631 293.318 224.631C292.891 224.631 292.547 224.282 292.547 223.854C292.547 223.427 292.891 223.084 293.318 223.084C326.37 223.131 353.938 222.808 354.219 222.808C354.651 222.813 354.995 223.141 354.995 223.568C355.005 223.995 354.661 224.344 354.234 224.349C353.979 224.354 330.073 224.636 300.115 224.636Z" fill="#051832"/>
<path d="M256.339 224.401C256.339 224.401 256.334 224.401 256.328 224.401C245.531 224.276 235.62 224.099 226.875 223.875C226.453 223.865 226.115 223.51 226.125 223.083C226.136 222.656 226.485 222.307 226.917 222.333C235.656 222.557 245.558 222.734 256.349 222.859C256.776 222.859 257.115 223.214 257.11 223.635C257.104 224.063 256.761 224.401 256.339 224.401Z" fill="black"/>
<path d="M332.823 280.282L325.292 272.761C324.094 271.568 322.156 271.568 320.963 272.761L312.828 280.886L309.557 293.037C308.885 295.532 310.765 297.979 313.349 297.979H354.443C356.219 297.979 357.771 296.792 358.234 295.078L359.042 292.073L344.359 277.401C343.167 276.209 341.229 276.209 340.031 277.401L337.146 280.282C335.953 281.479 334.015 281.479 332.823 280.282Z" fill="#008080"/>
<path d="M320.917 262.823C319.49 262.823 318.24 263.782 317.87 265.157L310.302 293.24C310.042 294.193 310.24 295.193 310.839 295.974C311.443 296.761 312.354 297.209 313.344 297.209H354.438C355.865 297.209 357.115 296.25 357.485 294.881L365.052 266.792C365.308 265.839 365.115 264.844 364.511 264.058C363.912 263.271 363 262.823 362.011 262.823H320.917ZM354.438 298.756H313.344C311.87 298.756 310.511 298.084 309.615 296.912C308.719 295.745 308.427 294.261 308.813 292.839L316.375 264.75C316.927 262.709 318.792 261.276 320.917 261.276H362.011C363.485 261.276 364.844 261.948 365.74 263.12C366.63 264.287 366.927 265.771 366.542 267.193L358.979 295.282C358.422 297.323 356.563 298.756 354.438 298.756Z" fill="black"/>
<path d="M356.666 271.849C356.666 273.979 354.942 275.703 352.807 275.703C350.676 275.703 348.947 273.979 348.947 271.849C348.947 269.724 350.676 267.995 352.807 267.995C354.942 267.995 356.666 269.724 356.666 271.849Z" fill="#008080"/>
<path d="M238.558 156.813L231.704 149.964C230.615 148.881 228.855 148.881 227.766 149.964L222.537 155.261L217.386 168.417C216.777 170.688 218.485 172.917 220.839 172.917H258.23C259.85 172.917 261.261 171.834 261.683 170.276L262.417 167.542L249.058 154.188C247.969 153.104 246.209 153.104 245.12 154.188L242.495 156.813C241.407 157.901 239.646 157.901 238.558 156.813Z" fill="#008080"/>
<path d="M230.239 140.99C229.182 140.99 228.229 141.657 227.875 142.651L218.479 168.787C218.198 169.568 218.312 170.401 218.786 171.078C219.265 171.756 220.01 172.141 220.843 172.141H258.656C259.718 172.141 260.661 171.479 261.026 170.485L270.416 144.349C270.698 143.568 270.583 142.735 270.109 142.058C269.63 141.381 268.885 140.99 268.052 140.99H230.239ZM258.656 173.688H220.843C219.521 173.688 218.281 173.042 217.526 171.969C216.755 170.87 216.573 169.521 217.026 168.266L226.422 142.131C227 140.526 228.531 139.448 230.239 139.448H268.052C269.37 139.448 270.609 140.094 271.37 141.167C272.14 142.266 272.323 143.615 271.87 144.87L262.474 171.006C261.901 172.61 260.364 173.688 258.656 173.688Z" fill="#051832"/>
<path d="M260.255 149.135C260.255 151.078 258.687 152.646 256.745 152.646C254.807 152.646 253.234 151.078 253.234 149.135C253.234 147.198 254.807 145.63 256.745 145.63C258.687 145.63 260.255 147.198 260.255 149.135Z" fill="#008080"/>
<path d="M207.734 101.906C238.781 101.89 279.463 101.312 301.672 100.859C303.453 100.828 305.062 99.8279 305.432 98.0883C306.38 93.6039 308.26 78.6872 310.239 72.7081C310.989 70.4216 309.26 68.0726 306.844 68.1091C292.12 68.307 229.416 67.3435 217.62 67.156C216.193 67.1351 214.791 67.5779 213.682 68.4737C213.614 68.531 213.552 68.5831 213.495 68.6299C208.969 72.7029 202.693 90.3383 204.026 98.3956C204.354 100.385 205.713 101.906 207.734 101.906Z" fill="#008080" fill-opacity="0.4"/>
<path d="M327.874 149.391C327.453 149.391 327.109 149.052 327.104 148.63C327.098 148.198 327.437 147.849 327.864 147.844C338.89 147.713 343.187 147.448 348.64 146.906C349.057 146.864 349.437 147.172 349.484 147.594C349.52 148.021 349.213 148.396 348.786 148.443C343.291 148.989 338.968 149.255 327.885 149.391C327.88 149.391 327.874 149.391 327.874 149.391Z" fill="#051832"/>
<path d="M317.058 164.938C316.636 164.938 316.287 164.594 316.287 164.172C316.287 163.745 316.626 163.401 317.053 163.396C322.011 163.365 327.709 163.084 332.74 162.828C335.521 162.693 338.152 162.563 340.303 162.495C340.725 162.464 341.084 162.813 341.1 163.24C341.11 163.667 340.777 164.021 340.35 164.037C338.214 164.104 335.594 164.235 332.818 164.375C327.777 164.625 322.058 164.907 317.063 164.938H317.058Z" fill="#051832"/>
<path d="M315.453 180.271C315.031 180.271 314.682 179.933 314.682 179.511C314.676 179.084 315.015 178.735 315.447 178.729C327.328 178.615 333.812 178.532 339.76 177.933C340.187 177.896 340.567 178.203 340.609 178.625C340.65 179.047 340.338 179.427 339.916 179.474C333.895 180.073 327.39 180.162 315.458 180.271H315.453Z" fill="#051832"/>
<path d="M228.084 194.271C228.079 194.271 228.074 194.271 228.069 194.266C217.235 194.063 210.001 193.886 209.933 193.886C209.506 193.875 209.168 193.521 209.178 193.094C209.188 192.677 209.532 192.339 209.949 192.339C209.954 192.339 209.959 192.339 209.97 192.339C210.043 192.344 217.267 192.521 228.1 192.724C228.527 192.735 228.865 193.084 228.855 193.511C228.845 193.933 228.506 194.271 228.084 194.271Z" fill="black"/>
<path d="M305.188 196.058C304.761 196.058 304.412 195.714 304.412 195.287C304.407 194.86 304.756 194.516 305.183 194.511C319.542 194.427 328.839 194.099 335.329 193.448C335.756 193.412 336.131 193.719 336.173 194.141C336.214 194.568 335.907 194.943 335.48 194.985C328.943 195.641 319.6 195.969 305.188 196.058Z" fill="#051832"/>
<path d="M305.24 211.479C304.818 211.479 304.479 211.141 304.469 210.719C304.464 210.292 304.807 209.943 305.234 209.938C317.287 209.787 325.917 209.464 330.891 208.964C331.313 208.927 331.693 209.235 331.734 209.657C331.776 210.084 331.469 210.459 331.042 210.5C326.026 211.006 317.349 211.334 305.25 211.479C305.25 211.479 305.245 211.479 305.24 211.479Z" fill="#051832"/>
<path d="M353.964 236.38C348.115 236.38 340.787 236.354 331.99 236.302C331.568 236.297 331.219 235.953 331.225 235.526C331.225 235.099 331.574 234.755 331.996 234.755H332.001C355.756 234.906 368.782 234.854 370.709 234.614C371.131 234.557 371.522 234.859 371.574 235.286C371.626 235.708 371.329 236.094 370.902 236.146C369.641 236.302 363.964 236.38 353.964 236.38Z" fill="#051832"/>
<path d="M356.245 251.297C355.818 251.297 355.469 250.954 355.469 250.532C355.469 250.105 355.812 249.756 356.24 249.756C362.833 249.73 366.661 249.657 367.625 249.542C368.047 249.485 368.432 249.787 368.484 250.209C368.536 250.631 368.234 251.021 367.813 251.068C366.776 251.198 362.995 251.277 356.245 251.297Z" fill="black"/>
<path d="M346.979 251.308C331.797 251.277 312.646 251.11 288.563 250.87C288.135 250.865 287.792 250.521 287.797 250.094C287.802 249.667 288.146 249.313 288.578 249.329C312.656 249.568 331.802 249.735 346.979 249.761C347.406 249.761 347.755 250.11 347.75 250.537C347.75 250.959 347.406 251.308 346.979 251.308Z" fill="black"/>
<path d="M308.178 266.047C308.173 266.047 308.173 266.047 308.173 266.047C302.391 265.994 298.704 265.948 294.803 265.89C291.688 265.843 288.433 265.797 283.865 265.755C283.438 265.75 283.094 265.401 283.1 264.974C283.105 264.552 283.449 264.208 283.871 264.208C283.876 264.208 283.876 264.208 283.881 264.208C288.454 264.255 291.709 264.302 294.824 264.343C298.725 264.401 302.412 264.453 308.183 264.5C308.61 264.505 308.954 264.849 308.949 265.276C308.943 265.703 308.6 266.047 308.178 266.047Z" fill="black"/>
<path d="M304.921 280.771C304.921 280.771 304.921 280.771 304.916 280.771C298.166 280.718 291.994 280.661 285.854 280.604L279.822 280.552C279.395 280.547 279.051 280.198 279.057 279.771C279.062 279.349 279.406 279.005 279.833 279.005H279.838L285.869 279.062C292.01 279.114 298.182 279.172 304.932 279.224C305.359 279.229 305.697 279.578 305.692 280.005C305.692 280.427 305.348 280.771 304.921 280.771Z" fill="black"/>
<path d="M301.359 295.891H301.354C291.719 295.812 284.833 295.682 278.177 295.557C272.953 295.458 267.547 295.354 260.891 295.281C260.464 295.276 260.12 294.927 260.125 294.5C260.13 294.073 260.49 293.734 260.901 293.734C267.568 293.813 272.979 293.911 278.208 294.016C284.859 294.141 291.734 294.266 301.37 294.349C301.797 294.349 302.135 294.698 302.13 295.125C302.13 295.547 301.787 295.891 301.359 295.891Z" fill="#051832"/>
<path d="M338.537 311.005C321.385 311.005 294.219 310.776 270.37 310.536C269.943 310.531 269.604 310.182 269.609 309.755C269.615 309.333 269.958 308.989 270.38 308.989H270.385C322.938 309.526 352.287 309.609 355.255 309.239C355.682 309.187 356.068 309.489 356.12 309.911C356.172 310.333 355.87 310.718 355.448 310.771C354.104 310.937 347.771 311.005 338.537 311.005Z" fill="#051832"/>
<path d="M242.261 310.229C242.261 310.229 242.261 310.229 242.256 310.229L226.178 310.125C225.751 310.125 225.407 309.776 225.412 309.349C225.412 308.927 225.761 308.583 226.183 308.583C226.183 308.583 226.183 308.583 226.188 308.583L242.266 308.687C242.693 308.687 243.037 309.036 243.037 309.463C243.032 309.885 242.688 310.229 242.261 310.229Z" fill="#051832"/>
<path d="M312.275 56.8337C312.265 56.8337 312.255 56.8337 312.234 56.8337C280.15 55.1253 214.52 56.3024 213.859 56.318C213.432 56.3337 213.083 55.9847 213.072 55.5576C213.067 55.1305 213.406 54.7816 213.833 54.7712C214.489 54.7608 280.176 53.5837 312.317 55.2868C312.744 55.3128 313.072 55.6722 313.046 56.0993C313.025 56.5108 312.687 56.8337 312.275 56.8337Z" fill="#051832"/>
<path d="M312.75 41.9328C312.729 41.9328 312.708 41.9328 312.682 41.9328C279.406 39.0213 227.422 41.2922 226.901 41.3182C226.468 41.3338 226.114 41.0057 226.099 40.5786C226.078 40.1515 226.406 39.7922 226.833 39.7713C227.354 39.7505 279.442 37.4745 312.817 40.3911C313.239 40.4276 313.557 40.8026 313.52 41.2297C313.484 41.6307 313.145 41.9328 312.75 41.9328Z" fill="#051832"/>
<path d="M312.864 27.5471C312.844 27.5471 312.823 27.5471 312.797 27.5471C303.422 26.7502 291.463 26.7971 279.896 26.8388C272.229 26.87 264.302 26.9013 257.224 26.6825C256.797 26.6669 256.463 26.3127 256.479 25.8857C256.489 25.4638 256.854 25.1304 257.276 25.1409C264.323 25.3544 272.234 25.3232 279.885 25.2919C291.489 25.2502 303.484 25.2034 312.927 26.0054C313.354 26.0419 313.672 26.4169 313.63 26.8388C313.599 27.245 313.26 27.5471 312.864 27.5471Z" fill="#051832"/>
<path d="M227.301 17.844C209.572 17.844 190.567 17.0419 173.405 16.3231L171.353 16.2346C170.926 16.219 170.598 15.8596 170.614 15.4325C170.635 15.0054 170.989 14.6773 171.421 14.6929L173.468 14.7815C194.723 15.6721 218.812 16.6877 239.754 16.1513C240.176 16.1304 240.536 16.4742 240.546 16.9013C240.562 17.3283 240.223 17.6825 239.791 17.6929C235.734 17.7971 231.551 17.844 227.301 17.844Z" fill="#051832"/>
<path d="M186.527 263.515C186.527 263.515 212.068 259.104 229.907 258.13C247.745 257.151 276.641 197.432 277.24 190.224C277.24 190.224 277.719 188.739 277.162 187C275.433 181.619 271.37 170.276 274.219 164.312C278.98 154.317 287.907 155.786 287.907 155.786C287.907 155.786 290.376 146.864 296.183 148.896C300.646 150.458 305.553 154.833 306.443 162.958C307.657 174.036 307.844 184.812 297.396 193.333C295.365 194.984 293.949 197.26 293.412 199.817C290.094 215.677 277.558 270.156 259.49 283.479C238.282 299.114 181.193 317.89 181.193 317.89L186.527 263.515Z" fill="white"/>
<path d="M187.24 264.177L182.079 316.781C190.193 314.047 239.808 297.037 259.037 282.854C276.823 269.74 289.266 215.859 292.657 199.656C293.219 196.969 294.73 194.505 296.912 192.729C307.105 184.417 306.876 173.943 305.678 163.042C304.62 153.385 297.948 150.328 295.928 149.625C294.803 149.229 293.782 149.287 292.808 149.792C289.985 151.271 288.667 155.943 288.657 155.984C288.547 156.365 288.178 156.604 287.787 156.547C287.448 156.49 279.36 155.323 274.912 164.641C272.407 169.896 275.714 180.047 277.49 185.505C277.636 185.953 277.771 186.375 277.896 186.766C278.448 188.479 278.11 189.979 278.006 190.359C277.579 194.526 269.823 211.635 260.709 226.906C252.167 241.203 239.902 258.354 229.954 258.901C213.839 259.781 191.141 263.521 187.24 264.177ZM181.193 318.662C181.021 318.662 180.849 318.604 180.714 318.495C180.511 318.328 180.402 318.073 180.428 317.813L185.756 263.443C185.792 263.094 186.053 262.813 186.396 262.755C186.652 262.714 212.188 258.328 229.865 257.359C237.099 256.964 247.584 245.865 259.381 226.115C268.886 210.198 276.193 193.589 276.475 190.156C276.48 190.094 276.495 190.042 276.511 189.984C276.511 189.974 276.902 188.698 276.428 187.234C276.303 186.849 276.167 186.432 276.021 185.984C274.047 179.927 270.751 169.792 273.516 163.979C277.709 155.203 285.105 154.849 287.36 154.958C287.865 153.5 289.339 149.865 292.089 148.427C293.443 147.714 294.907 147.63 296.443 148.167C298.678 148.948 306.058 152.318 307.214 162.875C308.407 173.76 308.672 185.13 297.886 193.927C295.98 195.479 294.657 197.63 294.167 199.974C290.751 216.313 278.178 270.662 259.948 284.099C238.886 299.63 182.006 318.432 181.433 318.625C181.355 318.651 181.277 318.662 181.193 318.662Z" fill="#051832"/>
<path d="M258.131 205.896L245.646 192.36L252.548 186.688C252.933 186.37 253.381 186.151 253.86 186.042L254.73 185.849C255.824 185.604 256.714 184.792 257.037 183.729C257.209 183.151 257.558 182.636 258.027 182.25L309.277 140C309.699 139.657 310.167 139.365 310.662 139.136L325.969 132.167L317.86 146.047C317.417 146.802 316.876 147.5 316.256 148.12L269.303 194.787C268.902 195.188 268.402 195.469 267.85 195.61L267.714 195.641C266.657 195.907 265.813 196.698 265.495 197.719L265.329 198.235C265.183 198.714 264.917 199.146 264.563 199.5L258.131 205.896Z" fill="white"/>
<path d="M246.772 192.437L258.157 204.781L264.022 198.948C264.287 198.687 264.485 198.359 264.6 198.005L264.761 197.489C265.157 196.213 266.22 195.219 267.527 194.89L267.667 194.859C268.084 194.75 268.459 194.542 268.761 194.239L315.714 147.568C316.292 146.995 316.787 146.349 317.199 145.656L324.079 133.875L310.985 139.833C310.553 140.036 310.141 140.292 309.772 140.599L258.522 182.838C258.162 183.135 257.907 183.515 257.777 183.948C257.371 185.281 256.272 186.297 254.902 186.599L254.027 186.797C253.667 186.875 253.329 187.047 253.042 187.281L246.772 192.437ZM258.136 206.661C258.126 206.661 258.121 206.661 258.121 206.661C257.907 206.661 257.709 206.568 257.563 206.411L245.084 192.885C244.938 192.724 244.865 192.521 244.881 192.307C244.897 192.094 244.996 191.896 245.162 191.765L252.058 186.083C252.537 185.698 253.1 185.422 253.693 185.286L254.563 185.099C255.391 184.911 256.058 184.297 256.303 183.5C256.516 182.776 256.949 182.135 257.537 181.651L308.787 139.406C309.261 139.015 309.787 138.687 310.35 138.432L325.652 131.463C325.959 131.323 326.318 131.396 326.548 131.646C326.772 131.896 326.808 132.26 326.641 132.552L318.527 146.432C318.053 147.245 317.47 147.995 316.803 148.661L269.85 195.333C269.35 195.833 268.725 196.182 268.037 196.354L267.902 196.39C267.11 196.583 266.47 197.182 266.23 197.948L266.068 198.463C265.886 199.057 265.553 199.604 265.11 200.047L258.673 206.437C258.532 206.583 258.334 206.661 258.136 206.661Z" fill="#051832"/>
<path d="M315.15 145.589C314.952 145.589 314.76 145.516 314.609 145.365L309.432 140.214C309.135 139.917 309.13 139.427 309.432 139.125C309.734 138.823 310.218 138.818 310.525 139.125L315.697 144.271C315.999 144.573 315.999 145.063 315.697 145.365C315.546 145.516 315.348 145.589 315.15 145.589Z" fill="black"/>
<path d="M234.182 202.354L245.849 192.109L258.234 205.865L246.568 216.104C244.432 217.979 241.193 217.833 239.338 215.771L233.672 209.479C231.818 207.422 232.047 204.229 234.182 202.354Z" fill="#008080"/>
<path d="M234.693 202.933C233.797 203.719 233.266 204.792 233.198 205.959C233.136 207.068 233.505 208.141 234.25 208.964L239.912 215.256C241.484 217 244.24 217.12 246.057 215.526L257.136 205.802L245.781 193.193L234.693 202.933ZM243.089 218.188C241.484 218.188 239.901 217.547 238.766 216.287L233.099 210C232.078 208.865 231.568 207.396 231.656 205.865C231.75 204.287 232.464 202.834 233.672 201.771L245.912 191.026L259.328 205.927L247.078 216.683C245.932 217.693 244.505 218.188 243.089 218.188Z" fill="black"/>
<path d="M264.265 194.822C264.051 194.822 263.838 194.734 263.687 194.562L257.895 187.984C257.614 187.666 257.64 187.177 257.963 186.895C258.281 186.614 258.77 186.645 259.051 186.963L264.843 193.536C265.124 193.859 265.098 194.349 264.775 194.63C264.63 194.755 264.447 194.822 264.265 194.822Z" fill="black"/>
<path d="M263.397 184.01C263.178 184.01 262.959 183.921 262.808 183.739C262.532 183.416 262.574 182.927 262.897 182.651L277.876 169.942C278.199 169.666 278.683 169.708 278.964 170.036C279.235 170.359 279.199 170.843 278.87 171.125L263.897 183.828C263.751 183.953 263.574 184.01 263.397 184.01Z" fill="black"/>
<path d="M303.532 149.709C303.313 149.709 303.094 149.62 302.943 149.443C302.667 149.115 302.703 148.63 303.026 148.354L308.844 143.38C309.172 143.104 309.662 143.141 309.938 143.464C310.214 143.787 310.177 144.276 309.849 144.552L304.032 149.526C303.886 149.651 303.703 149.709 303.532 149.709Z" fill="black"/>
<path d="M242.687 213.885C242.473 213.885 242.26 213.796 242.104 213.619C241.828 213.296 241.864 212.807 242.182 212.531L251.166 204.755C251.489 204.479 251.973 204.51 252.255 204.833C252.536 205.156 252.499 205.645 252.177 205.921L243.192 213.698C243.046 213.823 242.869 213.885 242.687 213.885Z" fill="white"/>
<path d="M277.244 190.218C277.244 190.218 279.739 176.739 283.494 168.838C286.427 162.687 287.885 142.198 298.942 150.078C301.322 151.776 302.947 152.786 304.703 155.932C305.666 157.656 307.369 162.083 307.614 164.359C308.833 175.442 307.843 184.828 297.364 193.354C295.343 195 293.942 197.271 293.411 199.817C293.098 201.302 277.203 190.708 277.244 190.218Z" fill="white"/>
<path d="M292.099 206.62C292.042 206.62 291.985 206.61 291.927 206.599C291.511 206.505 291.25 206.089 291.349 205.677C291.808 203.61 292.25 201.589 292.657 199.657C293.219 196.964 294.719 194.511 296.875 192.755C306.875 184.62 308.105 175.891 306.849 164.443C306.62 162.328 304.98 158.011 304.032 156.313C302.48 153.526 301.084 152.542 298.974 151.042L298.495 150.703C296.469 149.261 294.802 148.802 293.391 149.292C290.245 150.396 288.594 156.167 287.136 161.266C286.214 164.49 285.344 167.532 284.131 169.282C277.995 178.099 278.016 190.094 278.016 190.214C278.016 190.235 278.016 190.261 278.016 190.282C277.985 190.646 277.813 191.469 276.782 194.672C276.651 195.078 276.219 195.302 275.813 195.172C275.401 195.037 275.183 194.604 275.313 194.198C276.245 191.318 276.443 190.443 276.469 190.183C276.469 189.255 276.568 177.443 282.865 168.401C283.933 166.865 284.766 163.938 285.657 160.839C287.214 155.386 288.985 149.203 292.881 147.839C294.771 147.172 296.964 147.719 299.391 149.448L299.865 149.782C301.985 151.287 303.657 152.469 305.381 155.558C306.407 157.401 308.12 161.875 308.386 164.271C309.662 175.907 308.36 185.407 297.849 193.953C295.969 195.485 294.657 197.625 294.167 199.969C293.761 201.912 293.318 203.943 292.855 206.016C292.771 206.375 292.448 206.62 292.099 206.62Z" fill="#051832"/>
<path d="M184.365 259.568C151.609 260.104 130.818 253.688 102.208 244.974C82.2605 238.896 49.8803 233.745 36.8751 235.349C22.4271 237.125 6.09902 253.25 16.823 317.833C18.9271 330.49 20.4897 341.917 22.7136 352.042C36.1355 371.531 53.9376 388.193 77.5522 400.302C87.9897 405.656 130.724 418.026 181.542 421.261C165.932 401.469 141.245 370.578 144.125 346.583C145.474 335.385 183.156 326.172 183.156 326.172C183.156 326.172 208.625 293.385 198.724 269.057C196.172 262.781 191.146 259.458 184.365 259.568Z" fill="#008080"/>
<path d="M103.124 172.312C103.124 172.312 107.88 179.437 108.171 185.328C108.249 186.885 108.895 191.865 112.728 197.307C113.103 197.833 113.02 198.547 112.531 198.979L108.869 202.245C108.614 202.474 108.473 202.786 108.468 203.12C108.458 205.198 108.395 212.88 108.145 214.313C107.853 215.969 106.52 217.438 105.859 217.797C104.109 218.74 96.5306 217.776 96.5306 217.776C96.5306 217.776 94.4993 217.969 90.5149 228.755C86.2076 240.401 95.1347 244.807 95.1347 244.807C98.4889 246.552 98.5514 248.25 94.9264 249.406C82.416 253.391 56.5618 256.302 43.5045 241.646C42.7597 240.813 43.1295 239.474 44.2233 239.151C77.3951 229.365 61.5879 201.172 62.2858 200.984C64.0826 200.51 74.3847 189.651 80.4212 186.563C84.5358 184.453 89.5306 187.505 92.8795 184.318L103.124 172.312Z" fill="white"/>
<path d="M63.1711 201.401C63.2388 201.589 63.3221 201.813 63.4055 202.031C64.7128 205.557 68.7023 216.281 63.9055 225.87C60.6815 232.318 54.1346 237.031 44.4419 239.891C44.1815 239.969 43.9888 240.156 43.9159 240.417C43.843 240.672 43.9003 240.938 44.0773 241.136C57.0669 255.714 82.8638 252.438 94.6867 248.667C96.2596 248.172 96.8482 247.636 96.8742 247.328C96.8794 247.255 96.8742 246.583 94.7805 245.49C94.6971 245.453 85.2961 240.646 89.7909 228.485C93.5357 218.344 95.7023 217.078 96.4576 217.005C96.5148 217 96.5721 217 96.6294 217.011C99.6711 217.396 104.437 217.688 105.489 217.115C105.911 216.891 107.124 215.641 107.385 214.182C107.572 213.099 107.671 207.755 107.697 203.115C107.702 202.568 107.942 202.042 108.353 201.672L112.02 198.406C112.213 198.235 112.244 197.958 112.098 197.75C107.916 191.813 107.452 186.391 107.4 185.365C107.182 180.938 104.265 175.662 103.03 173.615L93.4628 184.818C93.4471 184.839 93.4315 184.86 93.4107 184.875C91.343 186.844 88.7753 186.714 86.2909 186.583C84.3169 186.485 82.4575 186.391 80.7753 187.25C77.3065 189.021 72.3898 193.427 68.4419 196.969C65.77 199.365 64.1659 200.787 63.1711 201.401ZM73.3898 253.401C62.369 253.401 50.5669 250.735 42.9263 242.162C42.4003 241.568 42.2128 240.755 42.4315 239.995C42.6503 239.224 43.2388 238.636 44.0044 238.412C53.27 235.677 59.4992 231.224 62.5253 225.177C67.02 216.193 63.2075 205.943 61.9575 202.573C61.4836 201.297 61.3846 201.031 61.5878 200.641C61.6867 200.448 61.8794 200.297 62.0878 200.24C62.6815 200.057 65.1971 197.807 67.4107 195.818C71.4263 192.219 76.4263 187.74 80.0721 185.875C82.1242 184.823 84.2805 184.938 86.369 185.042C88.7128 185.167 90.7336 185.266 92.3169 183.787L102.541 171.813C102.697 171.625 102.926 171.531 103.171 171.542C103.411 171.557 103.635 171.682 103.77 171.886C103.968 172.182 108.645 179.255 108.942 185.292C108.989 186.24 109.421 191.271 113.364 196.865C113.958 197.708 113.822 198.865 113.046 199.557L109.385 202.823C109.291 202.906 109.244 203.011 109.239 203.125C109.223 206.052 109.155 213.005 108.905 214.448C108.577 216.302 107.14 217.979 106.223 218.474C104.437 219.438 98.3326 218.776 96.6451 218.568C96.2284 218.844 94.4003 220.469 91.2388 229.021C87.2232 239.891 95.1398 243.943 95.4784 244.115C97.5565 245.198 98.5148 246.292 98.4107 247.464C98.3117 248.599 97.2492 249.474 95.1555 250.141C89.8742 251.823 81.8638 253.401 73.3898 253.401Z" fill="#051832"/>
<path d="M112.411 197.214C112.01 197.214 111.671 196.907 111.64 196.501C111.609 196.073 111.932 195.704 112.354 195.672C113.411 195.599 114.218 195.172 114.817 194.381C116.588 192.047 116.104 187.376 115.838 185.579L90.1245 189.615C89.7078 189.683 89.3068 189.396 89.2443 188.974C89.1766 188.553 89.463 188.157 89.8849 188.089L116.354 183.933C116.76 183.87 117.145 184.141 117.229 184.542C117.286 184.839 118.677 191.855 116.052 195.313C115.177 196.464 113.968 197.105 112.468 197.214C112.447 197.214 112.427 197.214 112.411 197.214Z" fill="#051832"/>
<path d="M89.9072 200.317C87.6468 200.317 84.1103 199.489 82.1937 194.781C81.0062 191.859 81.4072 189.26 83.277 187.823C85.2041 186.333 88.1624 186.5 90.4697 188.234C91.3395 188.885 92.4541 190.661 92.5791 190.864C92.803 191.224 92.6884 191.698 92.3291 191.927C91.9645 192.151 91.4905 192.036 91.2666 191.677C90.8551 191.015 90.0218 189.828 89.5426 189.468C87.7926 188.151 85.5999 187.979 84.2197 189.041C82.9176 190.046 82.6989 191.927 83.6259 194.203C86.0322 200.119 91.3291 198.656 91.553 198.588C91.9645 198.474 92.3916 198.703 92.5114 199.114C92.6312 199.52 92.402 199.948 91.9905 200.073C91.9697 200.078 91.1207 200.317 89.9072 200.317Z" fill="#051832"/>
<path d="M112.885 154.667C110.453 150.589 107.838 147.084 99.8432 145.511C94.3692 144.433 85.4474 148.474 81.0515 153.136C80.6869 153.527 80.1036 153.537 79.7963 153.152C78.8536 151.959 76.6088 149.271 74.6244 149.032C68.8744 148.349 62.989 155.797 60.8953 159.625C59.3692 162.422 56.7911 168.745 55.4942 176.094C55.4109 176.553 54.9942 176.896 54.5411 176.855C52.8067 176.688 49.338 176.693 46.2546 178.974C40.7546 183.042 41.3536 189 41.4161 189.73C42.1609 198.219 50.7911 204.49 57.3328 207.891C61.7703 210.198 63.4369 210.527 66.0515 211.136C66.2026 211.167 66.3588 211.157 66.5046 211.105C68.8171 211.448 72.7442 211.62 77.114 210.105C84.0619 207.693 83.5359 196.172 83.5359 196.172L82.6609 193.995C82.1296 192.678 82.0567 191.193 82.5932 189.881C84.2338 185.875 90.2859 188.886 90.5099 188.839C101.89 186.474 105.911 183.141 107.979 180.87C115.39 172.74 118.77 164.537 112.885 154.667Z" fill="black"/>
<path d="M114.313 330.135C114.286 330.13 114.255 330.125 114.229 330.12L89.4427 328.167C66.724 326.375 44.8125 318.937 25.724 306.5C25.5729 306.401 25.4271 306.307 25.276 306.213C22.2865 304.281 18.625 303.677 15.1719 304.542L11.8073 305.391C9.68229 305.922 7.71875 306.974 6.125 308.474C5.75521 308.823 5.51562 309.083 5.51562 309.177L8.71354 327.599C22.9167 357.588 44.5625 383.385 77.5521 400.302C84.3646 403.797 104.927 410.276 132.51 415.255C132.464 408.594 132.396 399.411 132.396 399.401V352.213C132.396 341.484 124.833 332.25 114.313 330.135Z" fill="#051832"/>
<path d="M80.2142 414.635C42.5632 407.13 26.5527 398.109 15.0215 391.344C7.66211 387.026 3.14648 379.13 3.14648 370.604V314.495C3.14648 308.573 9.54232 304.854 14.6934 307.781C16.5944 308.859 18.4069 309.984 20.1673 311.13C39.1517 323.536 60.985 330.917 83.6048 332.703L108.584 334.672C119.126 336.776 126.714 346.016 126.714 356.755C126.714 356.755 126.516 418.5 125.761 419.005C122.318 421.297 80.2142 414.635 80.2142 414.635Z" fill="white"/>
<path d="M109.046 411.088C108.989 411.088 108.926 411.083 108.864 411.067C101.603 409.307 94.7337 407.39 89.0097 405.536C88.6035 405.406 88.3795 404.968 88.5097 404.567C88.6451 404.161 89.0774 403.937 89.4837 404.067C95.1764 405.911 102.004 407.812 109.228 409.567C109.645 409.666 109.9 410.083 109.796 410.5C109.713 410.854 109.395 411.088 109.046 411.088Z" fill="black"/>
<path d="M89.2444 405.578C89.1663 405.578 89.0881 405.562 89.01 405.536C83.7913 403.849 79.7079 402.276 77.1975 400.989C73.1246 398.901 69.1298 396.625 65.3225 394.224C64.9631 393.994 64.8538 393.52 65.0829 393.161C65.3069 392.797 65.786 392.692 66.1454 392.916C69.911 395.291 73.8694 397.547 77.9006 399.614C80.3017 400.849 84.4163 402.427 89.484 404.067C89.8902 404.198 90.1142 404.635 89.9788 405.041C89.8746 405.369 89.5725 405.578 89.2444 405.578Z" fill="black"/>
<path d="M65.7338 394.344C65.5931 394.344 65.4525 394.302 65.3223 394.224C40.8692 378.807 21.6296 356.583 8.12959 328.177C7.9473 327.792 8.10876 327.328 8.49418 327.146C8.87959 326.969 9.33793 327.13 9.52543 327.516C22.8952 355.656 41.9473 377.656 66.1452 392.917C66.5046 393.146 66.614 393.62 66.39 393.984C66.239 394.214 65.989 394.344 65.7338 394.344Z" fill="#051832"/>
</svg>
