<svg width="237" height="355" viewBox="0 0 237 355" fill="none" xmlns="http://www.w3.org/2000/svg">
<path d="M149.177 199.668C148.791 200.562 148.404 201.455 148.017 202.362C155.55 205.895 163.07 209.428 170.59 212.962C171.03 212.015 171.457 211.082 171.884 210.135C164.31 206.642 156.751 203.162 149.177 199.668ZM179.137 236.402C166.844 229.988 154.55 223.562 141.924 216.962C143.99 225.508 148.83 227.975 179.137 236.402ZM184.564 315.095C184.257 316.095 183.937 317.095 183.631 318.095C197.604 322.695 211.577 327.308 225.564 331.908C225.924 330.722 226.297 329.522 226.67 328.335C212.63 323.922 198.604 319.508 184.564 315.095ZM151.204 187.162C149.91 183.162 148.564 179.028 146.897 173.868C142.337 176.242 138.564 178.215 134.817 180.162C139.857 191.628 141.497 192.322 151.204 187.162ZM138.217 203.442C137.604 204.455 137.004 205.468 136.39 206.495C149.91 213.655 163.444 220.815 176.964 227.975C177.564 226.882 178.164 225.788 178.75 224.695C165.244 217.602 151.724 210.522 138.217 203.442ZM202.124 271.322C202.404 270.842 202.684 270.348 202.95 269.868C194.99 266.135 187.124 262.215 179.057 258.735C170.95 255.242 162.657 252.188 154.444 248.948C155.484 252.175 157.084 255.495 159.577 256.428C173.644 261.708 187.924 266.428 202.124 271.322ZM162.377 264.482C161.804 265.708 161.23 266.922 160.67 268.148C176.91 274.575 193.164 280.988 209.404 287.402C209.737 286.655 210.084 285.895 210.417 285.148C195.817 275.162 179.151 269.708 162.377 264.482ZM173.564 298.135C175.857 301.162 177.577 305.975 180.524 306.882C194.124 311.122 208.057 314.268 221.87 317.815C222.15 317.162 222.43 316.495 222.724 315.842C208.177 306.255 190.764 303.322 173.564 298.135ZM194.111 256.135C182.471 240.362 161.657 242.042 145.924 229.228C148.39 235.548 149.924 239.482 150.697 241.455C166.137 246.682 180.124 251.402 194.111 256.135ZM168.937 278.775C168.284 279.695 167.631 280.628 166.977 281.548C169.151 284.295 170.79 288.495 173.604 289.548C187.47 294.748 201.67 299.095 216.524 304.002C215.55 301.415 215.311 297.922 213.844 297.282C198.991 290.842 183.937 284.882 168.937 278.775ZM29.9772 146.308C37.2705 151.055 44.1372 156.735 51.9639 160.348C72.4572 169.815 95.5239 175.868 116.631 171.575C139.644 166.895 161.35 155.628 172.884 130.148C186.284 100.548 183.217 57.695 153.044 35.3083C124.484 14.1083 94.9905 0.588387 59.4438 16.0551C43.4705 23.0151 28.5372 31.7751 18.2306 46.6551C2.5239 69.3351 8.35051 121.562 29.9772 146.308ZM133.35 195.855C129.11 187.842 125.564 183.655 115.67 182.842C94.8171 181.122 73.8437 177.202 53.6837 171.495C28.2304 164.295 13.2038 144.548 5.97718 120.322C1.57718 105.535 0.470511 89.3084 0.577178 73.7484C0.710511 53.5617 9.59046 36.8817 26.4571 24.6017C49.9238 7.52167 75.0572 -3.8783 104.764 1.22836C125.511 4.80169 142.59 16.335 159.417 28.5617C192.644 52.7217 197.844 101.562 181.27 133.522C174.897 145.828 169.044 157.815 155.911 164.402C154.537 165.082 153.564 168.775 154.07 170.615C155.577 175.975 157.91 181.095 160.124 186.815C162.124 186.615 164.164 186.402 166.217 186.242C170.737 185.895 175.27 185.282 173.684 192.575C173.31 194.322 174.684 196.655 175.684 198.482C184.697 215.055 194.777 231.122 202.657 248.215C214.577 274.108 225.377 300.535 235.844 327.055C239.55 336.468 233.977 344.348 224.524 346.802C216.564 348.868 208.67 351.228 200.857 353.775C194.91 355.722 192.151 351.682 190.097 347.828C181.471 331.588 172.391 315.508 165.097 298.668C152.977 270.748 142.11 242.295 130.75 214.055C129.75 211.575 129.124 208.962 128.164 206.468C126.204 201.442 126.684 197.482 133.35 195.855Z" fill="#008080"/>
</svg>
