<svg width="24" height="24" viewBox="0 0 24 24" fill="none" xmlns="http://www.w3.org/2000/svg">
<g clip-path="url(#clip0_10_33)">
<path d="M23.711 22.302L17.831 16.427C19.3044 14.631 20.1101 12.38 20.111 10.057C20.111 4.51 15.6 0 10.057 0C8.70202 0 7.38702 0.265 6.14702 0.79C4.95214 1.29596 3.86651 2.02843 2.95002 2.947C2.03141 3.86328 1.29863 4.94853 0.792016 6.143C0.267026 7.38028 -0.00237158 8.71095 1.57287e-05 10.055C1.57287e-05 15.602 4.51202 20.113 10.054 20.113C12.379 20.113 14.624 19.305 16.422 17.833L22.295 23.707C22.3873 23.8001 22.4971 23.8739 22.6181 23.9242C22.7392 23.9745 22.869 24.0003 23 24C23.1311 24.0008 23.2611 23.9752 23.3822 23.9249C23.5033 23.8746 23.6131 23.8005 23.705 23.707C23.798 23.6154 23.8719 23.5063 23.9225 23.386C23.9731 23.2657 23.9994 23.1366 23.9999 23.006C24.0003 22.8755 23.975 22.7462 23.9252 22.6255C23.8755 22.5049 23.8023 22.3953 23.71 22.303L23.711 22.302ZM18.121 10.054C18.121 14.504 14.503 18.12 10.058 18.12C5.61101 18.12 1.99502 14.5 1.99502 10.054C1.99502 5.607 5.61402 1.989 10.058 1.989C14.504 1.989 18.121 5.609 18.121 10.054Z" fill="white"/>
</g>
<defs>
<clipPath id="clip0_10_33">
<rect width="24" height="24" fill="white"/>
</clipPath>
</defs>
</svg>
