<svg width="13" height="14" viewBox="0 0 13 14" fill="none" xmlns="http://www.w3.org/2000/svg">
<g clip-path="url(#clip0_53_18)">
<path d="M12.8395 2.25296C12.7889 2.20204 12.7288 2.16163 12.6625 2.13406C12.5963 2.10648 12.5252 2.09229 12.4535 2.09229C12.3817 2.09229 12.3107 2.10648 12.2444 2.13406C12.1782 2.16163 12.118 2.20204 12.0675 2.25296L6.99746 7.32296L5.19946 5.52696C5.14877 5.47627 5.0886 5.43606 5.02237 5.40862C4.95614 5.38119 4.88515 5.36707 4.81346 5.36707C4.74178 5.36707 4.67079 5.38119 4.60456 5.40862C4.53833 5.43606 4.47815 5.47627 4.42746 5.52696C4.37677 5.57765 4.33656 5.63783 4.30913 5.70406C4.2817 5.77029 4.26758 5.84127 4.26758 5.91296C4.26758 5.98464 4.2817 6.05563 4.30913 6.12186C4.33656 6.18809 4.37677 6.24827 4.42746 6.29896L6.61146 8.47996C6.66201 8.53072 6.72208 8.571 6.78824 8.59849C6.85439 8.62598 6.92533 8.64013 6.99696 8.64013C7.0686 8.64013 7.13953 8.62598 7.20569 8.59849C7.27184 8.571 7.33192 8.53072 7.38246 8.47996L12.8395 3.02396C12.8904 2.97339 12.9308 2.91326 12.9584 2.84701C12.9859 2.78076 13.0001 2.70971 13.0001 2.63796C13.0001 2.5662 12.9859 2.49515 12.9584 2.42891C12.9308 2.36266 12.8904 2.30352 12.8395 2.25296Z" fill="#008080"/>
<path d="M12.879 5.80093C12.85 5.65904 12.7658 5.5345 12.6449 5.4547C12.524 5.37491 12.3764 5.34639 12.2345 5.37543C12.0926 5.40447 11.9681 5.48869 11.8883 5.60956C11.8085 5.73043 11.78 5.87804 11.809 6.01993C12.0337 7.11781 11.8762 8.25952 11.3626 9.25552C10.8489 10.2515 10.0101 11.0419 8.98536 11.4954C7.9606 11.949 6.81155 12.0384 5.72896 11.7489C4.64637 11.4594 3.69536 10.8083 3.03381 9.90377C2.37226 8.99924 2.03996 7.89566 2.09208 6.77623C2.1442 5.65681 2.5776 4.58888 3.32033 3.74973C4.06307 2.91058 5.07046 2.35069 6.17527 2.163C7.28008 1.97532 8.41585 2.17113 9.39403 2.71793C9.45674 2.75306 9.52575 2.7755 9.59712 2.78395C9.6685 2.79241 9.74084 2.78673 9.81002 2.76723C9.8792 2.74773 9.94386 2.71479 10.0003 2.6703C10.0568 2.62581 10.1039 2.57064 10.139 2.50793C10.1742 2.44523 10.1966 2.37622 10.2051 2.30484C10.2135 2.23346 10.2078 2.16112 10.1883 2.09194C10.1688 2.02276 10.1359 1.9581 10.0914 1.90165C10.0469 1.8452 9.99174 1.79806 9.92903 1.76293C8.73406 1.09439 7.34639 0.854607 5.99637 1.08339C4.64634 1.31218 3.41516 1.99577 2.50718 3.0207C1.5992 4.04563 1.06903 5.35026 1.00468 6.71802C0.940332 8.08578 1.34567 9.43441 2.15341 10.5401C2.96116 11.6457 4.12272 12.4419 5.4453 12.7964C6.76788 13.1509 8.17194 13.0425 9.4244 12.4891C10.6769 11.9357 11.7024 10.9706 12.3308 9.75404C12.9592 8.53747 13.1526 7.14259 12.879 5.80093Z" fill="#008080"/>
</g>
<defs>
<clipPath id="clip0_53_18">
<rect width="13" height="14" fill="white"/>
</clipPath>
</defs>
</svg>
